<svg width="680" height="580" viewBox="0 0 680 580" fill="none" xmlns="http://www.w3.org/2000/svg">
<rect x="73" y="117" width="544" height="352" rx="8" fill="#0C1142"/>
<path d="M315 165V175" stroke="#3D4168"/>
<path d="M81 227V237" stroke="#3D4168"/>
<path d="M617 227V236.5" stroke="#3D4168"/>
<path d="M237 227V237" stroke="#3D4168"/>
<path d="M159 227V237" stroke="#3D4168"/>
<path d="M315 227V237" stroke="#3D4168"/>
<path d="M393 227V237" stroke="#3D4168"/>
<path d="M471 227V236.5" stroke="#3D4168"/>
<path d="M549 227V236.5" stroke="#3D4168"/>
<path d="M81 289V299" stroke="#3D4168"/>
<path d="M159 289V299" stroke="#3D4168"/>
<path d="M237 289V299" stroke="#3D4168"/>
<path d="M315 289V299" stroke="#3D4168"/>
<path d="M393 289V299" stroke="#3D4168"/>
<path d="M471 289V298.5" stroke="#3D4168"/>
<path d="M549 289V298.5" stroke="#3D4168"/>
<path d="M81 351V360.5" stroke="#3D4168"/>
<path d="M159 351V360.5" stroke="#3D4168"/>
<path d="M237 351V360.5" stroke="#3D4168"/>
<path d="M315 351V361" stroke="#3D4168"/>
<path d="M393 351V361" stroke="#3D4168"/>
<path d="M471 351V360.5" stroke="#3D4168"/>
<path d="M549 351V360.5" stroke="#3D4168"/>
<path d="M81 413V422.5" stroke="#3D4168"/>
<path d="M159 413V422.5" stroke="#3D4168"/>
<path d="M237 413V422.5" stroke="#3D4168"/>
<path d="M315 413V423" stroke="#3D4168"/>
<path d="M393 413V423" stroke="#3D4168"/>
<path d="M393 165V175" stroke="#3D4168"/>
<path d="M471 165V174.5" stroke="#3D4168"/>
<path d="M548 165.5V175" stroke="#3D4168"/>
<path d="M73 157.5H617" stroke="#3D4168"/>
<path d="M73 219.5H617" stroke="#3D4168"/>
<path d="M73 281.5H617" stroke="#3D4168"/>
<path d="M73 343.5H617" stroke="#3D4168"/>
<path d="M73 405.5H617" stroke="#3D4168"/>
<path d="M151.5 219V469" stroke="#3D4168"/>
<path d="M229.5 219V469" stroke="#3D4168"/>
<path d="M307.5 157V469" stroke="#3D4168"/>
<path d="M385.5 157V469" stroke="#3D4168"/>
<path d="M463.5 157V469" stroke="#3D4168"/>
<path d="M541 158L541 404" stroke="#3D4168"/>
<circle cx="160" cy="271" r="2" fill="#2BD4DB"/>
<circle cx="82" cy="271" r="2" fill="#2BD4DB"/>
<circle cx="238" cy="271" r="2" fill="#2BD4DB"/>
<circle cx="316" cy="271" r="2" fill="#55587B"/>
<circle cx="394" cy="271" r="2" fill="#55587B"/>
<circle cx="472" cy="271" r="2" fill="#2BD4DB"/>
<circle cx="550" cy="271" r="2" fill="#2BD4DB"/>
<circle cx="316" cy="333" r="4.5" stroke="#2BD4DB"/>
<circle cx="160" cy="333" r="2" fill="#2BD4DB"/>
<circle cx="82" cy="333" r="2" fill="#2BD4DB"/>
<circle cx="238" cy="333" r="2" fill="#2BD4DB"/>
<circle cx="316" cy="333" r="2" fill="#2BD4DB"/>
<circle cx="394" cy="333" r="2" fill="#55587B"/>
<circle cx="472" cy="333" r="2" fill="#55587B"/>
<circle cx="550" cy="333" r="2" fill="#55587B"/>
<circle cx="160" cy="395" r="2" fill="#55587B"/>
<circle cx="82" cy="395" r="2" fill="#55587B"/>
<circle cx="238" cy="395" r="2" fill="#55587B"/>
<circle cx="316" cy="395" r="2" fill="#55587B"/>
<circle cx="394" cy="395" r="2" fill="#55587B"/>
<circle cx="472" cy="395" r="2" fill="#55587B"/>
<circle cx="550" cy="395" r="2" fill="#55587B"/>
<circle cx="160" cy="460" r="2" fill="#55587B"/>
<circle cx="82" cy="460" r="2" fill="#55587B"/>
<circle cx="238" cy="460" r="2" fill="#55587B"/>
<circle cx="316" cy="460" r="2" fill="#55587B"/>
<circle cx="394" cy="460" r="2" fill="#55587B"/>
<path d="M613 137.5H576M173 137.5H151M214.5 137.5H193M189 137.5H177" stroke="#55587B"/>
<path d="M91.95 141.1C93.65 141.1 94.87 140.23 95.08 138.51H93.78C93.64 139.52 92.94 140.02 91.95 140.02C90.63 140.02 89.86 139.07 89.86 137.46V137.38C89.86 135.78 90.68 134.8 91.94 134.8C92.97 134.8 93.5 135.29 93.65 136.24H95C94.84 134.56 93.57 133.74 91.93 133.74C89.94 133.74 88.46 135.24 88.46 137.39V137.47C88.46 139.67 89.71 141.1 91.95 141.1ZM97.5509 141.1C98.3509 141.1 98.8109 140.81 99.1509 140.36V141H100.341V137.57C100.341 136.14 99.4209 135.66 98.2509 135.66C97.0809 135.66 96.1109 136.17 96.0109 137.39H97.1809C97.2409 136.87 97.5509 136.57 98.1809 136.57C98.8909 136.57 99.1309 136.92 99.1309 137.62V137.89H98.4809C96.9809 137.89 95.8009 138.33 95.8009 139.55C95.8009 140.64 96.5909 141.1 97.5509 141.1ZM97.8409 140.23C97.2409 140.23 97.0009 139.94 97.0009 139.5C97.0009 138.86 97.5909 138.65 98.5109 138.65H99.1309V139.17C99.1309 139.84 98.5809 140.23 97.8409 140.23ZM101.758 141H102.968V133.35H101.758V141ZM106.743 141.1C108.083 141.1 108.973 140.5 109.143 139.4H107.973C107.883 139.91 107.503 140.2 106.773 140.2C105.873 140.2 105.373 139.64 105.333 138.65H109.163V138.3C109.163 136.43 107.993 135.66 106.693 135.66C105.203 135.66 104.093 136.74 104.093 138.36V138.44C104.093 140.09 105.203 141.1 106.743 141.1ZM105.353 137.84C105.473 137.03 105.963 136.54 106.693 136.54C107.443 136.54 107.903 136.94 107.963 137.84H105.353ZM110.243 141H111.453V137.92C111.453 137.09 112.003 136.67 112.683 136.67C113.403 136.67 113.723 137.03 113.723 137.82V141H114.933V137.71C114.933 136.27 114.193 135.66 113.143 135.66C112.283 135.66 111.703 136.09 111.453 136.6V135.77H110.243V141ZM118.287 141.1C119.057 141.1 119.727 140.64 120.007 140.12V141H121.217V133.35H120.007V136.57C119.717 136.05 119.187 135.66 118.337 135.66C116.977 135.66 115.987 136.72 115.987 138.39V138.47C115.987 140.17 116.977 141.1 118.287 141.1ZM118.587 140.14C117.807 140.14 117.227 139.59 117.227 138.44V138.36C117.227 137.23 117.747 136.61 118.637 136.61C119.517 136.61 120.047 137.18 120.047 138.33V138.41C120.047 139.58 119.427 140.14 118.587 140.14ZM124.026 141.1C124.826 141.1 125.286 140.81 125.626 140.36V141H126.816V137.57C126.816 136.14 125.896 135.66 124.726 135.66C123.556 135.66 122.586 136.17 122.486 137.39H123.656C123.716 136.87 124.026 136.57 124.656 136.57C125.366 136.57 125.606 136.92 125.606 137.62V137.89H124.956C123.456 137.89 122.276 138.33 122.276 139.55C122.276 140.64 123.066 141.1 124.026 141.1ZM124.316 140.23C123.716 140.23 123.476 139.94 123.476 139.5C123.476 138.86 124.066 138.65 124.986 138.65H125.606V139.17C125.606 139.84 125.056 140.23 124.316 140.23ZM128.202 141H129.412V138.28C129.412 137.17 130.052 136.83 131.112 136.82V135.69C130.232 135.7 129.742 136.09 129.412 136.75V135.77H128.202V141Z" fill="white"/>
<path d="M89 205.5H150" stroke="#2BD4DB"/>
<path d="M89 172.5C112.822 172.5 126.178 172.5 150 172.5M89 179.5H150M89 186.5H150" stroke="#3D4168"/>
<rect x="415.5" y="69.5" width="240" height="361" rx="8" fill="white" stroke="#0C1142"/>
<path d="M444 109.5H464" stroke="#2BD4DB"/>
<path d="M434 145.5H464" stroke="#0C1142"/>
<path d="M431 266H461" stroke="#2BD4DB" stroke-width="4"/>
<path d="M434 121.5H488" stroke="#3D4168"/>
<path d="M434 133.5H473" stroke="#CECFD9"/>
<path d="M605 109.5L639 109.5" stroke="#CECFD9"/>
<path d="M588 145.5L639 145.5" stroke="#CECFD9"/>
<path d="M585 121.5H639" stroke="#CECFD9"/>
<path d="M597.5 133.5H639" stroke="#CECFD9"/>
<rect x="431" y="285" width="16" height="1" fill="#CECFD9"/>
<rect x="463" y="285" width="56" height="1" fill="#CECFD9"/>
<rect x="535" y="285" width="29" height="1" fill="#CECFD9"/>
<rect x="616" y="285" width="23" height="1" fill="#CECFD9"/>
<rect x="463" y="304" width="56" height="1" fill="#CECFD9"/>
<rect x="535" y="304" width="29" height="1" fill="#CECFD9"/>
<rect x="615" y="304" width="24" height="1" fill="#CECFD9"/>
<rect x="431" y="323" width="16" height="1" fill="#CECFD9"/>
<rect x="431" y="304" width="16" height="1" fill="#0C1142"/>
<rect x="463" y="323" width="56" height="1" fill="#CECFD9"/>
<rect x="535" y="323" width="29" height="1" fill="#CECFD9"/>
<rect x="624" y="323" width="15" height="1" fill="#CECFD9"/>
<rect x="431" y="342" width="16" height="1" fill="#CECFD9"/>
<rect x="463" y="342" width="56" height="1" fill="#CECFD9"/>
<rect x="535" y="342" width="29" height="1" fill="#CECFD9"/>
<rect x="616" y="342" width="23" height="1" fill="#CECFD9"/>
<rect x="616" y="361" width="23" height="1" fill="#0C1142"/>
<rect x="431" y="361" width="16" height="1" fill="#CECFD9"/>
<rect x="463" y="361" width="56" height="1" fill="#CECFD9"/>
<rect x="431" y="380" width="208" height="1" fill="#CECFD9"/>
<rect x="431" y="285" width="208" height="1" fill="#CECFD9"/>
<rect x="535" y="361" width="29" height="1" fill="#CECFD9"/>
<rect x="610" y="399" width="29" height="2" rx="1" fill="#0C1142"/>
<rect x="431.5" y="399.5" width="17" height="1" fill="#2BD4DB" stroke="#2BD4DB"/>
<rect x="607" y="396" width="35" height="8" rx="4" stroke="#2BD4DB" stroke-width="2"/>
<path d="M435.25 93.1C436.83 93.1 437.88 92.13 437.88 90.89C437.88 89.46 437.01 88.98 435.33 88.75C434.09 88.57 433.85 88.28 433.85 87.7C433.85 87.15 434.27 86.76 435.08 86.76C435.9 86.76 436.33 87.08 436.46 87.83H437.68C437.54 86.46 436.62 85.76 435.08 85.76C433.59 85.76 432.59 86.64 432.59 87.81C432.59 89.15 433.4 89.67 435.11 89.9C436.27 90.09 436.6 90.34 436.6 91C436.6 91.66 436.04 92.1 435.25 92.1C434.04 92.1 433.75 91.5 433.66 90.78H432.38C432.48 92.13 433.3 93.1 435.25 93.1ZM440.848 93.09C441.218 93.09 441.478 93.03 441.668 92.96V92C441.498 92.07 441.318 92.1 441.078 92.1C440.698 92.1 440.478 91.89 440.478 91.43V88.68H441.628V87.77H440.478V86.62H439.268V87.77H438.568V88.68H439.268V91.54C439.268 92.53 439.808 93.09 440.848 93.09ZM444.468 92.23C443.868 92.23 443.628 91.94 443.628 91.5C443.628 90.86 444.218 90.65 445.138 90.65H445.758V91.17C445.758 91.84 445.208 92.23 444.468 92.23ZM444.178 93.1C444.978 93.1 445.438 92.81 445.778 92.36V93H446.968V89.57C446.968 88.14 446.048 87.66 444.878 87.66C443.708 87.66 442.738 88.17 442.638 89.39H443.808C443.868 88.87 444.178 88.57 444.808 88.57C445.518 88.57 445.758 88.92 445.758 89.62V89.89H445.108C443.608 89.89 442.428 90.33 442.428 91.55C442.428 92.64 443.218 93.1 444.178 93.1ZM450.135 93.09C450.505 93.09 450.765 93.03 450.955 92.96V92C450.785 92.07 450.605 92.1 450.365 92.1C449.985 92.1 449.765 91.89 449.765 91.43V88.68H450.915V87.77H449.765V86.62H448.555V87.77H447.855V88.68H448.555V91.54C448.555 92.53 449.095 93.09 450.135 93.09ZM454.346 93.1C455.686 93.1 456.576 92.5 456.746 91.4H455.576C455.486 91.91 455.106 92.2 454.376 92.2C453.476 92.2 452.976 91.64 452.936 90.65H456.766V90.3C456.766 88.43 455.596 87.66 454.296 87.66C452.806 87.66 451.696 88.74 451.696 90.36V90.44C451.696 92.09 452.806 93.1 454.346 93.1ZM452.956 89.84C453.076 89.03 453.566 88.54 454.296 88.54C455.046 88.54 455.506 88.94 455.566 89.84H452.956ZM457.847 93H459.057V89.87C459.057 89.07 459.607 88.67 460.207 88.67C460.797 88.67 461.137 89 461.137 89.77V93H462.347V89.87C462.347 89.07 462.897 88.67 463.497 88.67C464.097 88.67 464.427 89 464.427 89.77V93H465.637V89.69C465.637 88.25 464.857 87.66 463.897 87.66C463.247 87.66 462.527 87.95 462.127 88.6C461.867 87.95 461.327 87.66 460.647 87.66C459.877 87.66 459.307 88.08 459.057 88.57V87.77H457.847V93ZM469.327 93.1C470.667 93.1 471.557 92.5 471.727 91.4H470.557C470.467 91.91 470.087 92.2 469.357 92.2C468.457 92.2 467.957 91.64 467.917 90.65H471.747V90.3C471.747 88.43 470.577 87.66 469.277 87.66C467.787 87.66 466.677 88.74 466.677 90.36V90.44C466.677 92.09 467.787 93.1 469.327 93.1ZM467.937 89.84C468.057 89.03 468.547 88.54 469.277 88.54C470.027 88.54 470.487 88.94 470.547 89.84H467.937ZM472.827 93H474.037V89.92C474.037 89.09 474.587 88.67 475.267 88.67C475.987 88.67 476.307 89.03 476.307 89.82V93H477.517V89.71C477.517 88.27 476.777 87.66 475.727 87.66C474.867 87.66 474.287 88.09 474.037 88.6V87.77H472.827V93ZM480.691 93.09C481.061 93.09 481.321 93.03 481.511 92.96V92C481.341 92.07 481.161 92.1 480.921 92.1C480.541 92.1 480.321 91.89 480.321 91.43V88.68H481.471V87.77H480.321V86.62H479.111V87.77H478.411V88.68H479.111V91.54C479.111 92.53 479.651 93.09 480.691 93.09Z" fill="#0C1142"/>
<rect x="11" y="333.501" width="240" height="179" rx="8" fill="white" stroke="#2BD4DB"/>
<rect x="26" y="449" width="16" height="1" fill="#CECFD9"/>
<rect x="26" y="430" width="16" height="1" fill="#0C1142"/>
<rect x="26" y="411" width="16" height="1" fill="#CECFD9"/>
<rect x="26" y="392" width="16" height="1" fill="#CECFD9"/>
<rect x="26" y="373" width="16" height="1" fill="#CECFD9"/>
<rect x="58" y="449" width="56" height="1" fill="#CECFD9"/>
<rect x="58" y="430" width="56" height="1" fill="#CECFD9"/>
<rect x="58" y="411" width="56" height="1" fill="#CECFD9"/>
<rect x="58" y="392" width="56" height="1" fill="#0C1142"/>
<rect x="58" y="373" width="56" height="1" fill="#CECFD9"/>
<rect x="130" y="449" width="29" height="1" fill="#0C1142"/>
<rect x="130" y="430" width="29" height="1" fill="#CECFD9"/>
<rect x="130" y="411" width="29" height="1" fill="#CECFD9"/>
<rect x="130" y="392" width="29" height="1" fill="#CECFD9"/>
<rect x="130" y="373" width="29" height="1" fill="#CECFD9"/>
<rect x="175" y="449" width="59" height="1" fill="#CECFD9"/>
<rect x="175" y="430" width="59" height="1" fill="#CECFD9"/>
<rect x="26" y="487" width="16" height="1" fill="#CECFD9"/>
<rect x="26" y="468" width="16" height="1" fill="#CECFD9"/>
<rect x="58" y="487" width="56" height="1" fill="#CECFD9"/>
<rect x="58" y="468" width="56" height="1" fill="#CECFD9"/>
<rect x="130" y="487" width="29" height="1" fill="#CECFD9"/>
<rect x="130" y="468" width="29" height="1" fill="#CECFD9"/>
<rect x="175" y="487" width="59" height="1" fill="#CECFD9"/>
<rect x="175" y="468" width="59" height="1" fill="#0C1142"/>
<rect x="175" y="411" width="59" height="1" fill="#0C1142"/>
<rect x="175" y="392" width="59" height="1" fill="#CECFD9"/>
<rect x="175" y="373" width="59" height="1" fill="#CECFD9"/>
<rect x="24.5" y="428.5" width="19" height="4" rx="2" stroke="#2BD4DB"/>
<rect x="128.5" y="447.5" width="32" height="4" rx="2" stroke="#2BD4DB"/>
<rect x="173.5" y="409.5" width="62" height="4" rx="2" stroke="#2BD4DB"/>
<path d="M27.25 357H28.59V350.9H30.58V349.85H25.26V350.9H27.25V357ZM31.1985 357H32.4085V354.28C32.4085 353.17 33.0485 352.83 34.1085 352.82V351.69C33.2285 351.7 32.7385 352.09 32.4085 352.75V351.77H31.1985V357ZM36.7355 356.23C36.1355 356.23 35.8955 355.94 35.8955 355.5C35.8955 354.86 36.4855 354.65 37.4055 354.65H38.0255V355.17C38.0255 355.84 37.4755 356.23 36.7355 356.23ZM36.4455 357.1C37.2455 357.1 37.7055 356.81 38.0455 356.36V357H39.2355V353.57C39.2355 352.14 38.3155 351.66 37.1455 351.66C35.9755 351.66 35.0055 352.17 34.9055 353.39H36.0755C36.1355 352.87 36.4455 352.57 37.0755 352.57C37.7855 352.57 38.0255 352.92 38.0255 353.62V353.89H37.3755C35.8755 353.89 34.6955 354.33 34.6955 355.55C34.6955 356.64 35.4855 357.1 36.4455 357.1ZM40.6223 357H41.8323V353.92C41.8323 353.09 42.3823 352.67 43.0623 352.67C43.7823 352.67 44.1023 353.03 44.1023 353.82V357H45.3123V353.71C45.3123 352.27 44.5723 351.66 43.5223 351.66C42.6623 351.66 42.0823 352.09 41.8323 352.6V351.77H40.6223V357ZM48.4963 357.1C49.8363 357.1 50.5863 356.49 50.5863 355.43C50.5863 354.32 49.8563 354.02 48.6263 353.83C47.7963 353.69 47.5463 353.54 47.5463 353.16C47.5463 352.79 47.8563 352.54 48.3763 352.54C48.9363 352.54 49.2063 352.76 49.3063 353.24H50.4263C50.2963 352.06 49.4463 351.66 48.3763 351.66C47.3963 351.66 46.4163 352.18 46.4163 353.23C46.4163 354.21 46.9263 354.6 48.3063 354.82C49.0763 354.95 49.4263 355.11 49.4263 355.54C49.4263 355.98 49.1363 356.21 48.4863 356.21C47.7763 356.21 47.5063 355.9 47.4463 355.37H46.3063C46.3563 356.48 47.1463 357.1 48.4963 357.1ZM53.3077 356.23C52.7077 356.23 52.4677 355.94 52.4677 355.5C52.4677 354.86 53.0577 354.65 53.9777 354.65H54.5977V355.17C54.5977 355.84 54.0477 356.23 53.3077 356.23ZM53.0177 357.1C53.8177 357.1 54.2777 356.81 54.6177 356.36V357H55.8077V353.57C55.8077 352.14 54.8877 351.66 53.7177 351.66C52.5477 351.66 51.5777 352.17 51.4777 353.39H52.6477C52.7077 352.87 53.0177 352.57 53.6477 352.57C54.3577 352.57 54.5977 352.92 54.5977 353.62V353.89H53.9477C52.4477 353.89 51.2677 354.33 51.2677 355.55C51.2677 356.64 52.0577 357.1 53.0177 357.1ZM59.4846 357.1C60.9046 357.1 61.8146 356.25 61.9046 355.05H60.7946C60.7246 355.79 60.1746 356.17 59.5346 356.17C58.6446 356.17 58.0846 355.57 58.0846 354.43V354.35C58.0846 353.27 58.6746 352.63 59.5046 352.63C60.1446 352.63 60.6046 352.92 60.7046 353.62H61.8746C61.7346 352.18 60.6446 351.66 59.4846 351.66C58.0246 351.66 56.8446 352.71 56.8446 354.37V354.45C56.8446 356.12 57.9846 357.1 59.4846 357.1ZM64.7266 357.09C65.0966 357.09 65.3566 357.03 65.5466 356.96V356C65.3766 356.07 65.1966 356.1 64.9566 356.1C64.5766 356.1 64.3566 355.89 64.3566 355.43V352.68H65.5066V351.77H64.3566V350.62H63.1466V351.77H62.4466V352.68H63.1466V355.54C63.1466 356.53 63.6866 357.09 64.7266 357.09ZM67.258 350.91C67.658 350.91 67.978 350.61 67.978 350.22C67.978 349.82 67.658 349.52 67.258 349.52C66.858 349.52 66.538 349.82 66.538 350.22C66.538 350.61 66.858 350.91 67.258 350.91ZM66.668 357H67.878V351.77H66.668V357ZM71.6828 357.1C73.2228 357.1 74.3728 356.04 74.3728 354.41V354.33C74.3728 352.73 73.2228 351.66 71.6928 351.66C70.1528 351.66 69.0028 352.74 69.0028 354.36V354.44C69.0028 356.03 70.1428 357.1 71.6828 357.1ZM71.6928 356.16C70.7728 356.16 70.2428 355.49 70.2428 354.42V354.34C70.2428 353.26 70.7928 352.61 71.6928 352.61C72.5928 352.61 73.1328 353.27 73.1328 354.35V354.42C73.1328 355.49 72.5928 356.16 71.6928 356.16ZM75.4661 357H76.6761V353.92C76.6761 353.09 77.2261 352.67 77.9061 352.67C78.6261 352.67 78.9461 353.03 78.9461 353.82V357H80.1561V353.71C80.1561 352.27 79.4161 351.66 78.3661 351.66C77.5061 351.66 76.9261 352.09 76.6761 352.6V351.77H75.4661V357ZM83.3401 357.1C84.6801 357.1 85.4301 356.49 85.4301 355.43C85.4301 354.32 84.7001 354.02 83.4701 353.83C82.6401 353.69 82.3901 353.54 82.3901 353.16C82.3901 352.79 82.7001 352.54 83.2201 352.54C83.7801 352.54 84.0501 352.76 84.1501 353.24H85.2701C85.1401 352.06 84.2901 351.66 83.2201 351.66C82.2401 351.66 81.2601 352.18 81.2601 353.23C81.2601 354.21 81.7701 354.6 83.1501 354.82C83.9201 354.95 84.2701 355.11 84.2701 355.54C84.2701 355.98 83.9801 356.21 83.3301 356.21C82.6201 356.21 82.3501 355.9 82.2901 355.37H81.1501C81.2001 356.48 81.9901 357.1 83.3401 357.1Z" fill="#0C1142"/>
<circle cx="436" cy="109" r="2" fill="#2BD4DB"/>
<path d="M318.5 329L433 112.5" stroke="#2BD4DB"/>
<circle cx="436" cy="109" r="4.5" stroke="#2BD4DB"/>
<circle cx="230" cy="354" r="2" fill="#2BD4DB"/>
<circle cx="230" cy="354" r="4.5" stroke="#2BD4DB"/>
<path d="M234.5 353L311.5 334.5" stroke="#2BD4DB"/>
</svg>
