<svg width="600" height="264" viewBox="0 0 600 264" fill="none" xmlns="http://www.w3.org/2000/svg">
<path d="M412 76.5H503" stroke="#CECFD9"/>
<path d="M412 94.5H542.25" stroke="#CECFD9"/>
<path d="M412 112.5H519.738" stroke="#2BD4DB"/>
<path d="M412 148.5H502.451" stroke="#2BD4DB"/>
<path d="M412 130.5H560.5" stroke="#55587B"/>
<path d="M412 184.5H512" stroke="#CECFD9"/>
<path d="M412 202.5H533" stroke="#55587B"/>
<path d="M412 219.5H498" stroke="#CECFD9"/>
<path d="M412 166.5H572.802" stroke="#CECFD9"/>
<path d="M115 218.5L43.0409 218.5" stroke="#CECFD9"/>
<path d="M165 200.5L34.7501 200.5" stroke="#CECFD9"/>
<path d="M135 182.5L27.2624 182.5" stroke="#CECFD9"/>
<path d="M115 146.5L24.5486 146.5" stroke="#2BD4DB"/>
<path d="M205 164.5L37.7655 164.5" stroke="#55587B"/>
<path d="M115 110.5L47.463 110.5" stroke="#CECFD9"/>
<path d="M145 92.5L24 92.5" stroke="#CECFD9"/>
<path d="M115 74.5L29 74.5" stroke="#CECFD9"/>
<path d="M164.766 128.5H34.7656" stroke="#55587B"/>
<rect x="64.5" y="32.5" width="416" height="231" rx="7.5" fill="white" stroke="#0C1142"/>
<rect x="102" y="62" width="366" height="48" rx="4" fill="#0C1142"/>
<path d="M108 95.5H122" stroke="#55587B"/>
<path d="M108 98.4997H146" stroke="#55587B"/>
<path d="M108 87H150" stroke="#FFFFC8" stroke-width="2"/>
<path d="M201 95.5H215" stroke="#55587B"/>
<path d="M201 98.4992H239" stroke="#55587B"/>
<path d="M201 87H243" stroke="#55587B" stroke-width="2"/>
<path d="M294 95.5H308" stroke="#55587B"/>
<path d="M294 98.5005H332" stroke="#55587B"/>
<path d="M294 87H336" stroke="#55587B" stroke-width="2"/>
<path d="M387 95.5H401" stroke="#55587B"/>
<path d="M387 98.5H424.766" stroke="#55587B"/>
<path d="M387 87H429" stroke="#55587B" stroke-width="2"/>
<rect x="102" y="170" width="366" height="82" rx="2" fill="white"/>
<path d="M173 184.5H219" stroke="#CECFD9"/>
<path d="M136 184.502L160 184.502" stroke="#CECFD9"/>
<path d="M232 184.5H278" stroke="#CECFD9"/>
<path d="M291 184.5H337" stroke="#CECFD9"/>
<path d="M350 184.5H396" stroke="#CECFD9"/>
<path d="M409 184.5H455" stroke="#CECFD9"/>
<path d="M173 198.5H219" stroke="#CECFD9"/>
<path d="M136 198.502L160 198.502" stroke="#CECFD9"/>
<path d="M232 198.5H278" stroke="#CECFD9"/>
<path d="M291 198.5H337" stroke="#CECFD9"/>
<path d="M350 198.5H396" stroke="#CECFD9"/>
<path d="M409 198.5H455" stroke="#CECFD9"/>
<path d="M173 212.5H219" stroke="#CECFD9"/>
<path d="M136 212.502L160 212.502" stroke="#CECFD9"/>
<path d="M232 212.5H278" stroke="#CECFD9"/>
<path d="M291 212.5H337" stroke="#CECFD9"/>
<path d="M350 212.5H396" stroke="#CECFD9"/>
<path d="M409 212.5H455" stroke="#CECFD9"/>
<path d="M173 226.5H219" stroke="#CECFD9"/>
<path d="M136 226.502L160 226.502" stroke="#CECFD9"/>
<path d="M232 226.5H278" stroke="#CECFD9"/>
<path d="M291 226.5H337" stroke="#CECFD9"/>
<path d="M350 226.5H396" stroke="#CECFD9"/>
<path d="M409 226.5H455" stroke="#CECFD9"/>
<path d="M173 240.5H219" stroke="#CECFD9"/>
<path d="M136 240.502L160 240.502" stroke="#CECFD9"/>
<path d="M232 240.5H278" stroke="#CECFD9"/>
<path d="M291 240.5H337" stroke="#CECFD9"/>
<path d="M350 240.5H396" stroke="#CECFD9"/>
<path d="M409 240.5H455" stroke="#CECFD9"/>
<path d="M119.917 180H109.083C108.485 180 108 180.488 108 181.091V186.909C108 187.512 108.485 188 109.083 188H119.917C120.515 188 121 187.512 121 186.909V181.091C121 180.488 120.515 180 119.917 180Z" fill="#224DBA"/>
<path d="M111.972 185.455H111.221L110.658 183.178C110.648 183.129 110.628 183.082 110.6 183.041C110.571 182.999 110.534 182.964 110.492 182.938C110.277 182.822 110.046 182.741 109.806 182.698V182.611H111.015C111.095 182.613 111.171 182.645 111.229 182.7C111.287 182.755 111.323 182.829 111.33 182.909L111.618 184.538L112.37 182.611H113.092L111.972 185.455ZM113.514 185.455H112.792L113.373 182.629H114.096L113.514 185.455ZM115.016 183.411C115.026 183.342 115.062 183.278 115.116 183.235C115.171 183.191 115.24 183.169 115.309 183.175C115.545 183.151 115.783 183.195 115.995 183.302L116.118 182.695C115.914 182.603 115.695 182.553 115.471 182.545C114.785 182.545 114.283 182.938 114.283 183.48C114.303 183.652 114.37 183.815 114.478 183.95C114.585 184.085 114.728 184.187 114.89 184.244C115.161 184.371 115.251 184.462 115.251 184.589C115.232 184.681 115.178 184.763 115.1 184.815C115.023 184.868 114.928 184.889 114.836 184.873C114.585 184.869 114.339 184.809 114.114 184.698L113.991 185.309C114.235 185.411 114.496 185.462 114.76 185.458C115.533 185.48 116.013 185.095 116.013 184.502C116.013 183.775 115.031 183.72 115.031 183.393L115.016 183.411ZM118.472 185.455L117.913 182.611H117.31C117.244 182.613 117.182 182.635 117.129 182.674C117.077 182.713 117.038 182.767 117.017 182.829L115.977 185.455H116.699L116.844 185.04H117.75L117.83 185.455H118.472ZM117.414 183.371L117.62 184.436H117.028L117.414 183.371Z" fill="white"/>
<path d="M119.917 194H109.083C108.485 194 108 194.488 108 195.091V200.909C108 201.512 108.485 202 109.083 202H119.917C120.515 202 121 201.512 121 200.909V195.091C121 194.488 120.515 194 119.917 194Z" fill="#0C1142"/>
<path d="M113.055 200.182C114.252 200.182 115.222 199.205 115.222 198C115.222 196.795 114.252 195.818 113.055 195.818C111.859 195.818 110.889 196.795 110.889 198C110.889 199.205 111.859 200.182 113.055 200.182Z" fill="#E82C30"/>
<path d="M115.944 200.182C117.141 200.182 118.111 199.205 118.111 198C118.111 196.795 117.141 195.818 115.944 195.818C114.747 195.818 113.777 196.795 113.777 198C113.777 199.205 114.747 200.182 115.944 200.182Z" fill="#ECA21D"/>
<path d="M114.5 196.182C114.194 196.346 113.934 196.585 113.745 196.877C113.557 197.17 113.445 197.505 113.42 197.853C113.396 198.201 113.459 198.55 113.605 198.866C113.751 199.182 113.974 199.456 114.254 199.662L114.5 199.818H114.525C114.852 199.641 115.124 199.377 115.313 199.055C115.502 198.734 115.601 198.366 115.598 197.992C115.596 197.619 115.492 197.252 115.299 196.934C115.105 196.615 114.829 196.355 114.5 196.182Z" fill="#F36D1E"/>
<path d="M119.917 236H109.083C108.485 236 108 236.488 108 237.091V242.909C108 243.512 108.485 244 109.083 244H119.917C120.515 244 121 243.512 121 242.909V237.091C121 236.488 120.515 236 119.917 236Z" fill="#072694"/>
<path d="M112.03 239.556H111.424C111.428 239.487 111.416 239.417 111.388 239.353C111.351 239.302 111.25 239.273 111.088 239.273C110.981 239.264 110.874 239.279 110.774 239.316C110.744 239.338 110.721 239.367 110.707 239.401C110.693 239.435 110.689 239.473 110.694 239.509C110.69 239.542 110.695 239.575 110.707 239.605C110.718 239.636 110.738 239.663 110.763 239.684C110.803 239.706 110.847 239.719 110.893 239.72H111.016C111.279 239.72 111.442 239.749 111.51 239.756C111.675 239.76 111.834 239.819 111.962 239.924C112.038 239.996 112.084 240.095 112.092 240.2C112.099 240.276 112.099 240.353 112.092 240.429C112.101 240.577 112.083 240.725 112.038 240.865C111.995 240.954 111.931 241.03 111.85 241.085C111.77 241.141 111.676 241.174 111.579 241.182C111.43 241.206 111.279 241.216 111.128 241.211C110.885 241.222 110.642 241.201 110.405 241.149C110.33 241.129 110.261 241.091 110.204 241.038C110.148 240.985 110.105 240.918 110.08 240.844C110.044 240.704 110.03 240.559 110.037 240.415H110.662C110.662 240.44 110.662 240.455 110.662 240.465C110.655 240.505 110.66 240.546 110.676 240.583C110.692 240.62 110.718 240.651 110.752 240.673C110.8 240.695 110.851 240.706 110.904 240.705H111.128C111.2 240.71 111.273 240.704 111.344 240.687C111.369 240.679 111.393 240.665 111.412 240.647C111.431 240.629 111.446 240.607 111.456 240.582C111.462 240.542 111.462 240.502 111.456 240.462C111.463 240.42 111.454 240.378 111.432 240.342C111.411 240.306 111.377 240.279 111.337 240.265C111.203 240.245 111.068 240.232 110.933 240.225C110.738 240.225 110.6 240.2 110.525 240.185C110.445 240.178 110.369 240.153 110.3 240.113C110.232 240.073 110.173 240.018 110.127 239.953C110.07 239.815 110.046 239.665 110.059 239.516C110.055 239.393 110.071 239.271 110.106 239.153C110.132 239.067 110.185 238.993 110.257 238.942C110.374 238.863 110.51 238.818 110.651 238.811C110.785 238.811 110.933 238.811 111.095 238.811C111.278 238.804 111.461 238.818 111.64 238.855C111.768 238.889 111.88 238.969 111.953 239.08C112.026 239.192 112.056 239.326 112.038 239.458C112.038 239.462 112.034 239.502 112.03 239.556ZM114.706 241.225V238.771H115.923C116.052 238.767 116.181 238.782 116.306 238.815C116.4 238.841 116.486 238.89 116.556 238.958C116.627 239.026 116.68 239.11 116.71 239.204C116.754 239.355 116.772 239.512 116.765 239.669C116.773 239.849 116.752 240.03 116.703 240.204C116.667 240.305 116.602 240.393 116.517 240.457C116.432 240.522 116.329 240.56 116.223 240.567H115.862H115.36V241.2L114.706 241.225ZM115.36 240.022H115.768C115.847 240.025 115.926 240.015 116.003 239.993C116.024 239.979 116.043 239.96 116.057 239.938C116.07 239.916 116.079 239.891 116.082 239.865C116.087 239.801 116.087 239.737 116.082 239.673C116.086 239.595 116.078 239.518 116.057 239.444C116.044 239.408 116.022 239.377 115.993 239.354C115.963 239.33 115.928 239.316 115.891 239.313H115.349V240.04L115.36 240.022ZM118.158 240.804H117.285L117.165 241.225H116.49L117.212 238.771H118.202L118.924 241.225H118.285L118.158 240.804ZM118.028 240.324L117.725 239.273L117.425 240.335L118.028 240.324Z" fill="white"/>
<path d="M113.055 239.564H114.406L114.243 239.927H112.936C112.936 239.96 112.936 239.989 112.936 240.018C112.933 240.062 112.933 240.106 112.936 240.149H114.139L113.976 240.513H113.055C113.181 240.707 113.378 240.844 113.604 240.892C113.829 240.941 114.064 240.897 114.258 240.771C114.326 240.728 114.387 240.674 114.438 240.611H114.42V241.044C114.285 241.133 114.133 241.195 113.974 241.225C113.815 241.255 113.651 241.253 113.493 241.219C113.335 241.185 113.184 241.12 113.051 241.028C112.918 240.935 112.804 240.817 112.716 240.68C112.677 240.625 112.644 240.565 112.618 240.502H112.203L112.366 240.138H112.553C112.553 240.102 112.553 240.062 112.553 240.022C112.553 239.982 112.553 239.96 112.553 239.924H112.192L112.355 239.56H112.633C112.71 239.376 112.83 239.214 112.983 239.087C113.136 238.96 113.317 238.873 113.511 238.832C113.705 238.791 113.906 238.799 114.096 238.853C114.287 238.908 114.461 239.008 114.605 239.145L114.464 239.451C114.392 239.361 114.304 239.287 114.204 239.232C114.104 239.177 113.994 239.143 113.88 239.13C113.767 239.118 113.652 239.129 113.543 239.161C113.434 239.194 113.332 239.248 113.243 239.32C113.158 239.388 113.087 239.472 113.034 239.567L113.055 239.564Z" fill="#FFBC00"/>
<path d="M119.917 208H109.083C108.485 208 108 208.488 108 209.091V214.909C108 215.512 108.485 216 109.083 216H119.917C120.515 216 121 215.512 121 214.909V209.091C121 208.488 120.515 208 119.917 208Z" fill="#2464B4"/>
<path d="M116.306 211.593C116.305 211.692 116.296 211.79 116.277 211.887C116.241 212.212 116.08 212.509 115.827 212.713C115.575 212.918 115.252 213.013 114.93 212.978H114.825C114.786 212.978 114.747 212.992 114.717 213.018C114.687 213.044 114.668 213.08 114.663 213.12L114.518 214.047C114.511 214.087 114.491 214.123 114.461 214.149C114.43 214.174 114.392 214.189 114.352 214.189H113.857C113.827 214.189 113.797 214.177 113.776 214.155C113.754 214.133 113.742 214.104 113.742 214.073C113.74 214.067 113.74 214.061 113.742 214.055L113.991 212.44H114.381C114.788 212.478 115.194 212.356 115.513 212.099C115.832 211.842 116.04 211.47 116.093 211.062C116.162 211.131 116.217 211.214 116.253 211.305C116.29 211.397 116.308 211.494 116.306 211.593ZM113.738 212.364C113.737 212.336 113.742 212.308 113.752 212.282C113.762 212.255 113.776 212.231 113.796 212.211C113.815 212.191 113.838 212.174 113.863 212.163C113.889 212.152 113.916 212.146 113.944 212.145H114.395C115.222 212.145 115.695 211.764 115.84 210.982C115.984 210.2 115.464 209.818 114.757 209.818H113.417C113.371 209.819 113.327 209.835 113.293 209.865C113.259 209.895 113.236 209.937 113.229 209.982C112.825 212.68 112.695 213.364 112.695 213.575C112.694 213.59 112.696 213.606 112.701 213.62C112.706 213.635 112.714 213.649 112.725 213.66C112.735 213.672 112.748 213.681 112.762 213.688C112.776 213.694 112.791 213.698 112.807 213.698H113.529L113.738 212.364Z" fill="white"/>
<path d="M119.917 222H109.083C108.485 222 108 222.488 108 223.091V228.909C108 229.512 108.485 230 109.083 230H119.917C120.515 230 121 229.512 121 228.909V223.091C121 222.488 120.515 222 119.917 222Z" fill="#C52B71"/>
<path d="M113.091 226.342H112.105V227.993H113.091V226.342Z" fill="white"/>
<path d="M113.167 225.516C113.167 225.628 113.134 225.737 113.073 225.83C113.011 225.922 112.924 225.994 112.822 226.037C112.719 226.08 112.607 226.091 112.498 226.069C112.39 226.047 112.29 225.994 112.212 225.915C112.134 225.836 112.08 225.736 112.059 225.626C112.037 225.517 112.048 225.404 112.09 225.301C112.133 225.198 112.205 225.11 112.297 225.048C112.389 224.986 112.497 224.953 112.608 224.953C112.756 224.953 112.898 225.012 113.003 225.118C113.108 225.224 113.167 225.367 113.167 225.516Z" fill="white"/>
<path d="M114.962 223.295H111.42V228.705H114.962C115.612 228.732 116.251 228.529 116.768 228.131C117.299 227.676 117.566 226.96 117.566 226.004C117.583 225.588 117.523 225.172 117.389 224.778C117.258 224.451 117.051 224.159 116.786 223.927C116.278 223.508 115.637 223.285 114.98 223.298L114.962 223.295ZM114.894 223.658C115.49 223.624 116.078 223.81 116.548 224.182C116.785 224.417 116.969 224.702 117.085 225.016C117.202 225.33 117.249 225.666 117.223 226C117.223 227.578 116.461 228.345 114.894 228.345H111.777V223.655L114.894 223.658Z" fill="white"/>
<path d="M113.778 225.844C113.802 225.837 113.824 225.826 113.843 225.811C113.863 225.788 113.876 225.761 113.883 225.731C113.892 225.677 113.892 225.621 113.883 225.567C113.892 225.516 113.892 225.463 113.883 225.411C113.875 225.382 113.86 225.356 113.839 225.335C113.818 225.313 113.792 225.298 113.763 225.291C113.713 225.287 113.662 225.287 113.612 225.291H113.558V225.855H113.67C113.706 225.856 113.742 225.853 113.778 225.844Z" fill="white"/>
<path d="M115.519 225.636H115.699L115.609 225.389L115.519 225.636Z" fill="white"/>
<path d="M116.215 226.062V225.08H116.454V225.855H116.898C116.808 224.473 115.746 224.091 114.731 224.091H113.547V225.073H113.673C113.735 225.071 113.797 225.078 113.857 225.091C113.915 225.109 113.967 225.142 114.009 225.185C114.052 225.231 114.084 225.286 114.103 225.345C114.126 225.421 114.137 225.499 114.135 225.578C114.136 225.648 114.127 225.718 114.107 225.785C114.085 225.852 114.048 225.912 113.998 225.96C113.958 225.998 113.91 226.027 113.857 226.044C113.801 226.057 113.742 226.063 113.684 226.062H113.547V227.993H114.746C115.789 227.993 116.894 227.676 116.912 226.062H116.215ZM115.056 226.062H114.298V225.073H115.02V225.273H114.536V225.429H115.002V225.636H114.536V225.84H115.056V226.062ZM115.862 226.062L115.779 225.851H115.443L115.367 226.062H115.11L115.493 225.073H115.728L116.122 226.062H115.862Z" fill="white"/>
<rect x="102.5" y="116.5" width="179" height="47" rx="3.5" fill="white" stroke="#2BD4DB"/>
<path d="M108 148.5H123" stroke="#2BD4DB"/>
<path d="M108 151.5H146" stroke="#2BD4DB"/>
<path d="M108 140H150" stroke="#2BD4DB" stroke-width="2"/>
<path d="M201 148.5H215.949" stroke="#2BD4DB"/>
<path d="M201 151.5H239" stroke="#2BD4DB"/>
<path d="M201.014 140H244" stroke="#2BD4DB" stroke-width="2"/>
<path d="M108 126.5H129" stroke="#2BD4DB"/>
<path d="M108 74.0039H130" stroke="#55587B"/>
<rect x="288" y="116" width="180" height="48" rx="2" fill="white"/>
<path d="M298.5 164V151.047" stroke="#2BD4DB"/>
<path d="M306.5 163.999L306.5 135.666" stroke="#2BD4DB"/>
<path d="M314.5 163.998L314.5 133.236" stroke="#2BD4DB"/>
<path d="M410.5 163.999V151.047" stroke="#2BD4DB"/>
<path d="M418.5 163.999L418.5 135.666" stroke="#0C1142"/>
<path d="M426.5 164L426.5 143.762" stroke="#2BD4DB"/>
<path d="M322.5 163.999L322.5 142.143" stroke="#2BD4DB"/>
<path d="M330.5 163.999L330.5 135.666" stroke="#2BD4DB"/>
<path d="M338.5 163.998L338.5 141.332" stroke="#2BD4DB"/>
<path d="M346.5 163.998L346.5 159.305" stroke="#0C1142"/>
<path d="M354.5 164L354.5 138.096" stroke="#2BD4DB"/>
<path d="M362.5 163.999L362.5 135.666" stroke="#2BD4DB"/>
<path d="M370.5 164L370.5 131.619" stroke="#2BD4DB"/>
<path d="M378.5 163.999L378.5 142.143" stroke="#2BD4DB"/>
<path d="M386.5 163.999L386.5 135.666" stroke="#2BD4DB"/>
<path d="M394.5 163.999L394.5 142.143" stroke="#2BD4DB"/>
<path d="M402.5 164L402.5 130" stroke="#2BD4DB"/>
<path d="M458.5 163.999V151.047" stroke="#2BD4DB"/>
<path d="M434.5 163.999L434.5 135.666" stroke="#2BD4DB"/>
<path d="M442.5 163.999L442.5 142.143" stroke="#2BD4DB"/>
<path d="M450.5 164L450.5 130" stroke="#2BD4DB"/>
<rect x="77" y="200" width="12.5887" height="1" rx="0.5" fill="#CECFD9"/>
<rect x="77" y="170" width="12.5887" height="1" rx="0.5" fill="#CECFD9"/>
<rect x="77" y="155" width="12.5887" height="1" rx="0.5" fill="#CECFD9"/>
<rect x="77" y="110" width="12.5887" height="1" rx="0.5" fill="#CECFD9"/>
<rect x="77" y="80" width="12.5887" height="1" rx="0.5" fill="#CECFD9"/>
<rect x="77" y="62.0034" width="12" height="5" rx="2" fill="#0C1142"/>
<rect x="77" y="125" width="12.5887" height="1" rx="0.5" fill="#CECFD9"/>
<rect x="77" y="185" width="12.5887" height="1" rx="0.5" fill="#CECFD9"/>
<rect x="77" y="95" width="12.5887" height="1" rx="0.5" fill="#CECFD9"/>
<rect x="77" y="140" width="12.5887" height="1" rx="0.5" fill="#CECFD9"/>
<circle cx="81" cy="47.0015" r="4" fill="#0C1142"/>
<circle cx="97" cy="47.0015" r="4" fill="#0C1142"/>
<circle cx="113" cy="47.0015" r="4" fill="#0C1142"/>
</svg>
