<svg width="680" height="580" viewBox="0 0 680 580" fill="none" xmlns="http://www.w3.org/2000/svg">
<path d="M81 117.5H609C613.142 117.5 616.5 120.858 616.5 125V461C616.5 465.142 613.142 468.5 609 468.5H81C76.8579 468.5 73.5 465.142 73.5 461V125C73.5 120.858 76.8579 117.5 81 117.5Z" fill="#E2F3F6" stroke="#091F23"/>
<path d="M315 165V175" stroke="#091F23"/>
<path d="M81 227V237" stroke="#091F23"/>
<path d="M617 227V236.5" stroke="#3D4168"/>
<path d="M237 227V237" stroke="#091F23"/>
<path d="M159 227V237" stroke="#091F23"/>
<path d="M315 227V237" stroke="#091F23"/>
<path d="M393 227V237" stroke="#091F23"/>
<path d="M471 227V236.5" stroke="#3D4168"/>
<path d="M549 227V236.5" stroke="#3D4168"/>
<path d="M81 289V299" stroke="#091F23"/>
<path d="M159 289V299" stroke="#091F23"/>
<path d="M237 289V299" stroke="#091F23"/>
<path d="M315 289V299" stroke="#091F23"/>
<path d="M393 289V299" stroke="#091F23"/>
<path d="M471 289V298.5" stroke="#3D4168"/>
<path d="M549 289V298.5" stroke="#3D4168"/>
<path d="M81 351V360.5" stroke="#3D4168"/>
<path d="M159 351V360.5" stroke="#3D4168"/>
<path d="M237 351V360.5" stroke="#3D4168"/>
<path d="M315 351V361" stroke="#091F23"/>
<path d="M393 351V361" stroke="#091F23"/>
<path d="M471 351V360.5" stroke="#3D4168"/>
<path d="M549 351V360.5" stroke="#3D4168"/>
<path d="M81 413V422.5" stroke="#3D4168"/>
<path d="M159 413V422.5" stroke="#3D4168"/>
<path d="M237 413V422.5" stroke="#3D4168"/>
<path d="M315 413V423" stroke="#091F23"/>
<path d="M393 413V423" stroke="#091F23"/>
<path d="M393 165V175" stroke="#091F23"/>
<path d="M471 165V174.5" stroke="#3D4168"/>
<path d="M548 165.5V175" stroke="#3D4168"/>
<path d="M73 157.5H617" stroke="#091F23"/>
<path d="M73 219.5H617" stroke="#091F23"/>
<path d="M73 281.5H617" stroke="#091F23"/>
<path d="M73 343.5H617" stroke="#091F23"/>
<path d="M73 405.5H617" stroke="#091F23"/>
<path d="M151.5 219V469" stroke="#091F23"/>
<path d="M229.5 219V469" stroke="#091F23"/>
<path d="M307.5 157V469" stroke="#091F23"/>
<path d="M385.5 157V469" stroke="#091F23"/>
<path d="M463.5 157V469" stroke="#091F23"/>
<path d="M541 158V404" stroke="#3D4168"/>
<path d="M160 273C161.105 273 162 272.105 162 271C162 269.895 161.105 269 160 269C158.895 269 158 269.895 158 271C158 272.105 158.895 273 160 273Z" fill="#091F23"/>
<path d="M82 273C83.1046 273 84 272.105 84 271C84 269.895 83.1046 269 82 269C80.8954 269 80 269.895 80 271C80 272.105 80.8954 273 82 273Z" fill="#091F23"/>
<path d="M238 273C239.105 273 240 272.105 240 271C240 269.895 239.105 269 238 269C236.895 269 236 269.895 236 271C236 272.105 236.895 273 238 273Z" fill="#091F23"/>
<path d="M316 273C317.105 273 318 272.105 318 271C318 269.895 317.105 269 316 269C314.895 269 314 269.895 314 271C314 272.105 314.895 273 316 273Z" fill="#091F23"/>
<path d="M394 273C395.105 273 396 272.105 396 271C396 269.895 395.105 269 394 269C392.895 269 392 269.895 392 271C392 272.105 392.895 273 394 273Z" fill="#091F23"/>
<path d="M472 273C473.105 273 474 272.105 474 271C474 269.895 473.105 269 472 269C470.895 269 470 269.895 470 271C470 272.105 470.895 273 472 273Z" fill="#091F23"/>
<path d="M550 273C551.105 273 552 272.105 552 271C552 269.895 551.105 269 550 269C548.895 269 548 269.895 548 271C548 272.105 548.895 273 550 273Z" fill="#091F23"/>
<path d="M316 337.5C318.485 337.5 320.5 335.485 320.5 333C320.5 330.515 318.485 328.5 316 328.5C313.515 328.5 311.5 330.515 311.5 333C311.5 335.485 313.515 337.5 316 337.5Z" stroke="#091F23"/>
<path d="M160 335C161.105 335 162 334.105 162 333C162 331.895 161.105 331 160 331C158.895 331 158 331.895 158 333C158 334.105 158.895 335 160 335Z" fill="#091F23"/>
<path d="M82 335C83.1046 335 84 334.105 84 333C84 331.895 83.1046 331 82 331C80.8954 331 80 331.895 80 333C80 334.105 80.8954 335 82 335Z" fill="#091F23"/>
<path d="M238 335C239.105 335 240 334.105 240 333C240 331.895 239.105 331 238 331C236.895 331 236 331.895 236 333C236 334.105 236.895 335 238 335Z" fill="#091F23"/>
<path d="M316 335C317.105 335 318 334.105 318 333C318 331.895 317.105 331 316 331C314.895 331 314 331.895 314 333C314 334.105 314.895 335 316 335Z" fill="#091F23"/>
<path d="M394 335C395.105 335 396 334.105 396 333C396 331.895 395.105 331 394 331C392.895 331 392 331.895 392 333C392 334.105 392.895 335 394 335Z" fill="#091F23"/>
<path d="M472 335C473.105 335 474 334.105 474 333C474 331.895 473.105 331 472 331C470.895 331 470 331.895 470 333C470 334.105 470.895 335 472 335Z" fill="#55587B"/>
<path d="M550 335C551.105 335 552 334.105 552 333C552 331.895 551.105 331 550 331C548.895 331 548 331.895 548 333C548 334.105 548.895 335 550 335Z" fill="#55587B"/>
<path d="M160 397C161.105 397 162 396.105 162 395C162 393.895 161.105 393 160 393C158.895 393 158 393.895 158 395C158 396.105 158.895 397 160 397Z" fill="#55587B"/>
<path d="M82 397C83.1046 397 84 396.105 84 395C84 393.895 83.1046 393 82 393C80.8954 393 80 393.895 80 395C80 396.105 80.8954 397 82 397Z" fill="#55587B"/>
<path d="M238 397C239.105 397 240 396.105 240 395C240 393.895 239.105 393 238 393C236.895 393 236 393.895 236 395C236 396.105 236.895 397 238 397Z" fill="#55587B"/>
<path d="M316 397C317.105 397 318 396.105 318 395C318 393.895 317.105 393 316 393C314.895 393 314 393.895 314 395C314 396.105 314.895 397 316 397Z" fill="#091F23"/>
<path d="M394 397C395.105 397 396 396.105 396 395C396 393.895 395.105 393 394 393C392.895 393 392 393.895 392 395C392 396.105 392.895 397 394 397Z" fill="#091F23"/>
<path d="M472 397C473.105 397 474 396.105 474 395C474 393.895 473.105 393 472 393C470.895 393 470 393.895 470 395C470 396.105 470.895 397 472 397Z" fill="#55587B"/>
<path d="M550 397C551.105 397 552 396.105 552 395C552 393.895 551.105 393 550 393C548.895 393 548 393.895 548 395C548 396.105 548.895 397 550 397Z" fill="#55587B"/>
<path d="M160 462C161.105 462 162 461.105 162 460C162 458.895 161.105 458 160 458C158.895 458 158 458.895 158 460C158 461.105 158.895 462 160 462Z" fill="#55587B"/>
<path d="M82 462C83.1046 462 84 461.105 84 460C84 458.895 83.1046 458 82 458C80.8954 458 80 458.895 80 460C80 461.105 80.8954 462 82 462Z" fill="#55587B"/>
<path d="M238 462C239.105 462 240 461.105 240 460C240 458.895 239.105 458 238 458C236.895 458 236 458.895 236 460C236 461.105 236.895 462 238 462Z" fill="#55587B"/>
<path d="M316 462C317.105 462 318 461.105 318 460C318 458.895 317.105 458 316 458C314.895 458 314 458.895 314 460C314 461.105 314.895 462 316 462Z" fill="#091F23"/>
<path d="M394 462C395.105 462 396 461.105 396 460C396 458.895 395.105 458 394 458C392.895 458 392 458.895 392 460C392 461.105 392.895 462 394 462Z" fill="#091F23"/>
<path d="M189 137.5H177M613 137.5H576H613ZM173 137.5H151H173ZM214.5 137.5H193H214.5Z" stroke="#091F23"/>
<path d="M89 205.5H150" stroke="#091F23"/>
<path d="M89 186.5H150M89 172.5C112.822 172.5 126.178 172.5 150 172.5H89ZM89 179.5H150H89Z" stroke="#091F23"/>
<path d="M647.5 69.5H423.5C419.082 69.5 415.5 73.0817 415.5 77.5V422.5C415.5 426.918 419.082 430.5 423.5 430.5H647.5C651.918 430.5 655.5 426.918 655.5 422.5V77.5C655.5 73.0817 651.918 69.5 647.5 69.5Z" fill="#E2F3F6" stroke="#0C1142"/>
<path d="M444 109.5H464" stroke="#091F23"/>
<path d="M434 145.5H464" stroke="#0C1142"/>
<path d="M431 266H461" stroke="#091F23" stroke-width="4"/>
<path d="M434 121.5H488" stroke="#E2F3F6"/>
<path d="M434 133.5H473" stroke="#091F23"/>
<path d="M605 109.5H639" stroke="#091F23"/>
<path d="M588 145.5H639" stroke="#091F23"/>
<path d="M585 121.5H639" stroke="#091F23"/>
<path d="M597.5 133.5H639" stroke="#091F23"/>
<path d="M447 285H431V286H447V285Z" fill="#091F23"/>
<path d="M519 285H463V286H519V285Z" fill="#091F23"/>
<path d="M564 285H535V286H564V285Z" fill="#091F23"/>
<path d="M639 285H616V286H639V285Z" fill="#091F23"/>
<path d="M519 304H463V305H519V304Z" fill="#091F23"/>
<path d="M564 304H535V305H564V304Z" fill="#091F23"/>
<path d="M639 304H615V305H639V304Z" fill="#091F23"/>
<path d="M447 323H431V324H447V323Z" fill="#091F23"/>
<path d="M447 304H431V305H447V304Z" fill="#091F23"/>
<path d="M519 323H463V324H519V323Z" fill="#091F23"/>
<path d="M564 323H535V324H564V323Z" fill="#091F23"/>
<path d="M639 323H624V324H639V323Z" fill="#091F23"/>
<path d="M447 342H431V343H447V342Z" fill="#091F23"/>
<path d="M519 342H463V343H519V342Z" fill="#091F23"/>
<path d="M564 342H535V343H564V342Z" fill="#091F23"/>
<path d="M639 342H616V343H639V342Z" fill="#091F23"/>
<path d="M639 361H616V362H639V361Z" fill="#E2F3F6"/>
<path d="M447 361H431V362H447V361Z" fill="#091F23"/>
<path d="M519 361H463V362H519V361Z" fill="#091F23"/>
<path d="M639 380H431V381H639V380Z" fill="#091F23"/>
<path d="M639 285H431V286H639V285Z" fill="#091F23"/>
<path d="M564 361H535V362H564V361Z" fill="#091F23"/>
<path d="M638 399H611C610.448 399 610 399.448 610 400C610 400.552 610.448 401 611 401H638C638.552 401 639 400.552 639 400C639 399.448 638.552 399 638 399Z" fill="#091F23"/>
<path d="M448.5 399.5H431.5V400.5H448.5V399.5Z" fill="#091F23" stroke="#091F23"/>
<path d="M638 396H611C608.791 396 607 397.791 607 400C607 402.209 608.791 404 611 404H638C640.209 404 642 402.209 642 400C642 397.791 640.209 396 638 396Z" stroke="#091F23" stroke-width="2"/>
<path d="M243 333.501H19C14.5817 333.501 11 337.083 11 341.501V504.501C11 508.919 14.5817 512.501 19 512.501H243C247.418 512.501 251 508.919 251 504.501V341.501C251 337.083 247.418 333.501 243 333.501Z" fill="#E2F3F6" stroke="#091F23"/>
<path d="M42 449H26V450H42V449Z" fill="#091F23"/>
<path d="M42 430H26V431H42V430Z" fill="#E2F3F6"/>
<path d="M42 411H26V412H42V411Z" fill="#091F23"/>
<path d="M42 392H26V393H42V392Z" fill="#091F23"/>
<path d="M42 373H26V374H42V373Z" fill="#091F23"/>
<path d="M114 449H58V450H114V449Z" fill="#091F23"/>
<path d="M114 430H58V431H114V430Z" fill="#091F23"/>
<path d="M114 411H58V412H114V411Z" fill="#091F23"/>
<path d="M114 392H58V393H114V392Z" fill="#E2F3F6"/>
<path d="M114 373H58V374H114V373Z" fill="#091F23"/>
<path d="M159 449H130V450H159V449Z" fill="#E2F3F6"/>
<path d="M159 430H130V431H159V430Z" fill="#091F23"/>
<path d="M159 411H130V412H159V411Z" fill="#091F23"/>
<path d="M159 392H130V393H159V392Z" fill="#091F23"/>
<path d="M159 373H130V374H159V373Z" fill="#091F23"/>
<path d="M234 449H175V450H234V449Z" fill="#091F23"/>
<path d="M234 430H175V431H234V430Z" fill="#091F23"/>
<path d="M42 487H26V488H42V487Z" fill="#091F23"/>
<path d="M42 468H26V469H42V468Z" fill="#091F23"/>
<path d="M114 487H58V488H114V487Z" fill="#091F23"/>
<path d="M114 468H58V469H114V468Z" fill="#091F23"/>
<path d="M159 487H130V488H159V487Z" fill="#091F23"/>
<path d="M159 468H130V469H159V468Z" fill="#091F23"/>
<path d="M234 487H175V488H234V487Z" fill="#091F23"/>
<path d="M234 468H175V469H234V468Z" fill="#E2F3F6"/>
<path d="M234 411H175V412H234V411Z" fill="#091F23"/>
<path d="M234 392H175V393H234V392Z" fill="#091F23"/>
<path d="M234 373H175V374H234V373Z" fill="#091F23"/>
<path d="M436 111C437.105 111 438 110.105 438 109C438 107.895 437.105 107 436 107C434.895 107 434 107.895 434 109C434 110.105 434.895 111 436 111Z" fill="#091F23"/>
<path d="M318.5 329L433 112.5" stroke="#091F23"/>
<path d="M436 113.5C438.485 113.5 440.5 111.485 440.5 109C440.5 106.515 438.485 104.5 436 104.5C433.515 104.5 431.5 106.515 431.5 109C431.5 111.485 433.515 113.5 436 113.5Z" stroke="#091F23"/>
<path d="M230 356C231.105 356 232 355.105 232 354C232 352.895 231.105 352 230 352C228.895 352 228 352.895 228 354C228 355.105 228.895 356 230 356Z" fill="#091F23"/>
<path d="M230 358.5C232.485 358.5 234.5 356.485 234.5 354C234.5 351.515 232.485 349.5 230 349.5C227.515 349.5 225.5 351.515 225.5 354C225.5 356.485 227.515 358.5 230 358.5Z" stroke="#091F23"/>
<path d="M234.5 353L311.5 334.5" stroke="#091F23"/>
<path d="M434.09 91.89H436.39V93H432.69V86.02H434.09V91.89ZM438.68 85.6V93H437.28V85.6H438.68ZM442.523 93.09C441.99 93.09 441.51 92.9733 441.083 92.74C440.656 92.5 440.32 92.1633 440.073 91.73C439.833 91.2967 439.713 90.7967 439.713 90.23C439.713 89.6633 439.836 89.1633 440.083 88.73C440.336 88.2967 440.68 87.9633 441.113 87.73C441.546 87.49 442.03 87.37 442.563 87.37C443.096 87.37 443.58 87.49 444.013 87.73C444.446 87.9633 444.786 88.2967 445.033 88.73C445.286 89.1633 445.413 89.6633 445.413 90.23C445.413 90.7967 445.283 91.2967 445.023 91.73C444.77 92.1633 444.423 92.5 443.983 92.74C443.55 92.9733 443.063 93.09 442.523 93.09ZM442.523 91.87C442.776 91.87 443.013 91.81 443.233 91.69C443.46 91.5633 443.64 91.3767 443.773 91.13C443.906 90.8833 443.973 90.5833 443.973 90.23C443.973 89.7033 443.833 89.3 443.553 89.02C443.28 88.7333 442.943 88.59 442.543 88.59C442.143 88.59 441.806 88.7333 441.533 89.02C441.266 89.3 441.133 89.7033 441.133 90.23C441.133 90.7567 441.263 91.1633 441.523 91.45C441.79 91.73 442.123 91.87 442.523 91.87ZM448.61 87.37C449.023 87.37 449.387 87.4533 449.7 87.62C450.013 87.78 450.26 87.99 450.44 88.25V87.46H451.85V93.04C451.85 93.5533 451.747 94.01 451.54 94.41C451.333 94.8167 451.023 95.1367 450.61 95.37C450.197 95.61 449.697 95.73 449.11 95.73C448.323 95.73 447.677 95.5467 447.17 95.18C446.67 94.8133 446.387 94.3133 446.32 93.68H447.71C447.783 93.9333 447.94 94.1333 448.18 94.28C448.427 94.4333 448.723 94.51 449.07 94.51C449.477 94.51 449.807 94.3867 450.06 94.14C450.313 93.9 450.44 93.5333 450.44 93.04V92.18C450.26 92.44 450.01 92.6567 449.69 92.83C449.377 93.0033 449.017 93.09 448.61 93.09C448.143 93.09 447.717 92.97 447.33 92.73C446.943 92.49 446.637 92.1533 446.41 91.72C446.19 91.28 446.08 90.7767 446.08 90.21C446.08 89.65 446.19 89.1533 446.41 88.72C446.637 88.2867 446.94 87.9533 447.32 87.72C447.707 87.4867 448.137 87.37 448.61 87.37ZM450.44 90.23C450.44 89.89 450.373 89.6 450.24 89.36C450.107 89.1133 449.927 88.9267 449.7 88.8C449.473 88.6667 449.23 88.6 448.97 88.6C448.71 88.6 448.47 88.6633 448.25 88.79C448.03 88.9167 447.85 89.1033 447.71 89.35C447.577 89.59 447.51 89.8767 447.51 90.21C447.51 90.5433 447.577 90.8367 447.71 91.09C447.85 91.3367 448.03 91.5267 448.25 91.66C448.477 91.7933 448.717 91.86 448.97 91.86C449.23 91.86 449.473 91.7967 449.7 91.67C449.927 91.5367 450.107 91.35 450.24 91.11C450.373 90.8633 450.44 90.57 450.44 90.23ZM452.857 90.21C452.857 89.65 452.967 89.1533 453.187 88.72C453.414 88.2867 453.717 87.9533 454.097 87.72C454.484 87.4867 454.914 87.37 455.387 87.37C455.801 87.37 456.161 87.4533 456.467 87.62C456.781 87.7867 457.031 87.9967 457.217 88.25V87.46H458.627V93H457.217V92.19C457.037 92.45 456.787 92.6667 456.467 92.84C456.154 93.0067 455.791 93.09 455.377 93.09C454.911 93.09 454.484 92.97 454.097 92.73C453.717 92.49 453.414 92.1533 453.187 91.72C452.967 91.28 452.857 90.7767 452.857 90.21ZM457.217 90.23C457.217 89.89 457.151 89.6 457.017 89.36C456.884 89.1133 456.704 88.9267 456.477 88.8C456.251 88.6667 456.007 88.6 455.747 88.6C455.487 88.6 455.247 88.6633 455.027 88.79C454.807 88.9167 454.627 89.1033 454.487 89.35C454.354 89.59 454.287 89.8767 454.287 90.21C454.287 90.5433 454.354 90.8367 454.487 91.09C454.627 91.3367 454.807 91.5267 455.027 91.66C455.254 91.7933 455.494 91.86 455.747 91.86C456.007 91.86 456.251 91.7967 456.477 91.67C456.704 91.5367 456.884 91.35 457.017 91.11C457.151 90.8633 457.217 90.57 457.217 90.23ZM461.395 88.32C461.575 88.0267 461.808 87.7967 462.095 87.63C462.388 87.4633 462.721 87.38 463.095 87.38V88.85H462.725C462.285 88.85 461.951 88.9533 461.725 89.16C461.505 89.3667 461.395 89.7267 461.395 90.24V93H459.995V87.46H461.395V88.32ZM464.748 86.8C464.501 86.8 464.294 86.7233 464.128 86.57C463.968 86.41 463.888 86.2133 463.888 85.98C463.888 85.7467 463.968 85.5533 464.128 85.4C464.294 85.24 464.501 85.16 464.748 85.16C464.994 85.16 465.198 85.24 465.358 85.4C465.524 85.5533 465.608 85.7467 465.608 85.98C465.608 86.2133 465.524 86.41 465.358 86.57C465.198 86.7233 464.994 86.8 464.748 86.8ZM465.438 87.46V93H464.038V87.46H465.438ZM466.461 90.21C466.461 89.65 466.571 89.1533 466.791 88.72C467.018 88.2867 467.321 87.9533 467.701 87.72C468.088 87.4867 468.518 87.37 468.991 87.37C469.404 87.37 469.764 87.4533 470.071 87.62C470.384 87.7867 470.634 87.9967 470.821 88.25V87.46H472.231V93H470.821V92.19C470.641 92.45 470.391 92.6667 470.071 92.84C469.758 93.0067 469.394 93.09 468.981 93.09C468.514 93.09 468.088 92.97 467.701 92.73C467.321 92.49 467.018 92.1533 466.791 91.72C466.571 91.28 466.461 90.7767 466.461 90.21ZM470.821 90.23C470.821 89.89 470.754 89.6 470.621 89.36C470.488 89.1133 470.308 88.9267 470.081 88.8C469.854 88.6667 469.611 88.6 469.351 88.6C469.091 88.6 468.851 88.6633 468.631 88.79C468.411 88.9167 468.231 89.1033 468.091 89.35C467.958 89.59 467.891 89.8767 467.891 90.21C467.891 90.5433 467.958 90.8367 468.091 91.09C468.231 91.3367 468.411 91.5267 468.631 91.66C468.858 91.7933 469.098 91.86 469.351 91.86C469.611 91.86 469.854 91.7967 470.081 91.67C470.308 91.5367 470.488 91.35 470.621 91.11C470.754 90.8633 470.821 90.57 470.821 90.23Z" fill="#091F23"/>
<path d="M30.44 350.02V351.15H28.58V357H27.18V351.15H25.32V350.02H30.44ZM32.8615 352.32C33.0415 352.027 33.2748 351.797 33.5615 351.63C33.8548 351.463 34.1882 351.38 34.5615 351.38V352.85H34.1915C33.7515 352.85 33.4182 352.953 33.1915 353.16C32.9715 353.367 32.8615 353.727 32.8615 354.24V357H31.4615V351.46H32.8615V352.32ZM35.1445 354.21C35.1445 353.65 35.2545 353.153 35.4745 352.72C35.7011 352.287 36.0045 351.953 36.3845 351.72C36.7711 351.487 37.2011 351.37 37.6745 351.37C38.0878 351.37 38.4478 351.453 38.7545 351.62C39.0678 351.787 39.3178 351.997 39.5045 352.25V351.46H40.9145V357H39.5045V356.19C39.3245 356.45 39.0745 356.667 38.7545 356.84C38.4411 357.007 38.0778 357.09 37.6645 357.09C37.1978 357.09 36.7711 356.97 36.3845 356.73C36.0045 356.49 35.7011 356.153 35.4745 355.72C35.2545 355.28 35.1445 354.777 35.1445 354.21ZM39.5045 354.23C39.5045 353.89 39.4378 353.6 39.3045 353.36C39.1711 353.113 38.9911 352.927 38.7645 352.8C38.5378 352.667 38.2945 352.6 38.0345 352.6C37.7745 352.6 37.5345 352.663 37.3145 352.79C37.0945 352.917 36.9145 353.103 36.7745 353.35C36.6411 353.59 36.5745 353.877 36.5745 354.21C36.5745 354.543 36.6411 354.837 36.7745 355.09C36.9145 355.337 37.0945 355.527 37.3145 355.66C37.5411 355.793 37.7811 355.86 38.0345 355.86C38.2945 355.86 38.5378 355.797 38.7645 355.67C38.9911 355.537 39.1711 355.35 39.3045 355.11C39.4378 354.863 39.5045 354.57 39.5045 354.23ZM45.3518 351.38C46.0118 351.38 46.5451 351.59 46.9518 352.01C47.3585 352.423 47.5618 353.003 47.5618 353.75V357H46.1618V353.94C46.1618 353.5 46.0518 353.163 45.8318 352.93C45.6118 352.69 45.3118 352.57 44.9318 352.57C44.5451 352.57 44.2385 352.69 44.0118 352.93C43.7918 353.163 43.6818 353.5 43.6818 353.94V357H42.2818V351.46H43.6818V352.15C43.8685 351.91 44.1051 351.723 44.3918 351.59C44.6851 351.45 45.0051 351.38 45.3518 351.38ZM51.0131 357.09C50.5598 357.09 50.1531 357.01 49.7931 356.85C49.4331 356.683 49.1465 356.46 48.9331 356.18C48.7265 355.9 48.6131 355.59 48.5931 355.25H50.0031C50.0298 355.463 50.1331 355.64 50.3131 355.78C50.4998 355.92 50.7298 355.99 51.0031 355.99C51.2698 355.99 51.4765 355.937 51.6231 355.83C51.7765 355.723 51.8531 355.587 51.8531 355.42C51.8531 355.24 51.7598 355.107 51.5731 355.02C51.3931 354.927 51.1031 354.827 50.7031 354.72C50.2898 354.62 49.9498 354.517 49.6831 354.41C49.4231 354.303 49.1965 354.14 49.0031 353.92C48.8165 353.7 48.7231 353.403 48.7231 353.03C48.7231 352.723 48.8098 352.443 48.9831 352.19C49.1631 351.937 49.4165 351.737 49.7431 351.59C50.0765 351.443 50.4665 351.37 50.9131 351.37C51.5731 351.37 52.0998 351.537 52.4931 351.87C52.8865 352.197 53.1031 352.64 53.1431 353.2H51.8031C51.7831 352.98 51.6898 352.807 51.5231 352.68C51.3631 352.547 51.1465 352.48 50.8731 352.48C50.6198 352.48 50.4231 352.527 50.2831 352.62C50.1498 352.713 50.0831 352.843 50.0831 353.01C50.0831 353.197 50.1765 353.34 50.3631 353.44C50.5498 353.533 50.8398 353.63 51.2331 353.73C51.6331 353.83 51.9631 353.933 52.2231 354.04C52.4831 354.147 52.7065 354.313 52.8931 354.54C53.0865 354.76 53.1865 355.053 53.1931 355.42C53.1931 355.74 53.1031 356.027 52.9231 356.28C52.7498 356.533 52.4965 356.733 52.1631 356.88C51.8365 357.02 51.4531 357.09 51.0131 357.09ZM53.9823 354.21C53.9823 353.65 54.0923 353.153 54.3123 352.72C54.539 352.287 54.8423 351.953 55.2223 351.72C55.609 351.487 56.039 351.37 56.5123 351.37C56.9257 351.37 57.2857 351.453 57.5923 351.62C57.9057 351.787 58.1557 351.997 58.3423 352.25V351.46H59.7523V357H58.3423V356.19C58.1623 356.45 57.9123 356.667 57.5923 356.84C57.279 357.007 56.9157 357.09 56.5023 357.09C56.0357 357.09 55.609 356.97 55.2223 356.73C54.8423 356.49 54.539 356.153 54.3123 355.72C54.0923 355.28 53.9823 354.777 53.9823 354.21ZM58.3423 354.23C58.3423 353.89 58.2757 353.6 58.1423 353.36C58.009 353.113 57.829 352.927 57.6023 352.8C57.3757 352.667 57.1323 352.6 56.8723 352.6C56.6123 352.6 56.3723 352.663 56.1523 352.79C55.9323 352.917 55.7523 353.103 55.6123 353.35C55.479 353.59 55.4123 353.877 55.4123 354.21C55.4123 354.543 55.479 354.837 55.6123 355.09C55.7523 355.337 55.9323 355.527 56.1523 355.66C56.379 355.793 56.619 355.86 56.8723 355.86C57.1323 355.86 57.3757 355.797 57.6023 355.67C57.829 355.537 58.009 355.35 58.1423 355.11C58.2757 354.863 58.3423 354.57 58.3423 354.23ZM64.3997 357L62.5197 354.64V357H61.1197V349.6H62.5197V353.81L64.3797 351.46H66.1997L63.7597 354.24L66.2197 357H64.3997ZM69.0795 357.09C68.6262 357.09 68.2195 357.01 67.8595 356.85C67.4995 356.683 67.2129 356.46 66.9995 356.18C66.7929 355.9 66.6795 355.59 66.6595 355.25H68.0695C68.0962 355.463 68.1995 355.64 68.3795 355.78C68.5662 355.92 68.7962 355.99 69.0695 355.99C69.3362 355.99 69.5429 355.937 69.6895 355.83C69.8429 355.723 69.9195 355.587 69.9195 355.42C69.9195 355.24 69.8262 355.107 69.6395 355.02C69.4595 354.927 69.1695 354.827 68.7695 354.72C68.3562 354.62 68.0162 354.517 67.7495 354.41C67.4895 354.303 67.2629 354.14 67.0695 353.92C66.8829 353.7 66.7895 353.403 66.7895 353.03C66.7895 352.723 66.8762 352.443 67.0495 352.19C67.2295 351.937 67.4829 351.737 67.8095 351.59C68.1429 351.443 68.5329 351.37 68.9795 351.37C69.6395 351.37 70.1662 351.537 70.5595 351.87C70.9529 352.197 71.1695 352.64 71.2095 353.2H69.8695C69.8495 352.98 69.7562 352.807 69.5895 352.68C69.4295 352.547 69.2129 352.48 68.9395 352.48C68.6862 352.48 68.4895 352.527 68.3495 352.62C68.2162 352.713 68.1495 352.843 68.1495 353.01C68.1495 353.197 68.2429 353.34 68.4295 353.44C68.6162 353.533 68.9062 353.63 69.2995 353.73C69.6995 353.83 70.0295 353.933 70.2895 354.04C70.5495 354.147 70.7729 354.313 70.9595 354.54C71.1529 354.76 71.2529 355.053 71.2595 355.42C71.2595 355.74 71.1695 356.027 70.9895 356.28C70.8162 356.533 70.5629 356.733 70.2295 356.88C69.9029 357.02 69.5195 357.09 69.0795 357.09ZM73.1188 350.8C72.8721 350.8 72.6654 350.723 72.4988 350.57C72.3388 350.41 72.2588 350.213 72.2588 349.98C72.2588 349.747 72.3388 349.553 72.4988 349.4C72.6654 349.24 72.8721 349.16 73.1188 349.16C73.3654 349.16 73.5688 349.24 73.7288 349.4C73.8954 349.553 73.9788 349.747 73.9788 349.98C73.9788 350.213 73.8954 350.41 73.7288 350.57C73.5688 350.723 73.3654 350.8 73.1188 350.8ZM73.8088 351.46V357H72.4088V351.46H73.8088ZM77.652 357.09C77.1186 357.09 76.6386 356.973 76.212 356.74C75.7853 356.5 75.4486 356.163 75.202 355.73C74.962 355.297 74.842 354.797 74.842 354.23C74.842 353.663 74.9653 353.163 75.212 352.73C75.4653 352.297 75.8086 351.963 76.242 351.73C76.6753 351.49 77.1586 351.37 77.692 351.37C78.2253 351.37 78.7086 351.49 79.142 351.73C79.5753 351.963 79.9153 352.297 80.162 352.73C80.4153 353.163 80.542 353.663 80.542 354.23C80.542 354.797 80.412 355.297 80.152 355.73C79.8986 356.163 79.552 356.5 79.112 356.74C78.6786 356.973 78.192 357.09 77.652 357.09ZM77.652 355.87C77.9053 355.87 78.142 355.81 78.362 355.69C78.5886 355.563 78.7686 355.377 78.902 355.13C79.0353 354.883 79.102 354.583 79.102 354.23C79.102 353.703 78.962 353.3 78.682 353.02C78.4086 352.733 78.072 352.59 77.672 352.59C77.272 352.59 76.9353 352.733 76.662 353.02C76.3953 353.3 76.262 353.703 76.262 354.23C76.262 354.757 76.392 355.163 76.652 355.45C76.9186 355.73 77.252 355.87 77.652 355.87ZM84.6389 351.38C85.2989 351.38 85.8322 351.59 86.2389 352.01C86.6456 352.423 86.8489 353.003 86.8489 353.75V357H85.4489V353.94C85.4489 353.5 85.3389 353.163 85.1189 352.93C84.8989 352.69 84.5989 352.57 84.2189 352.57C83.8322 352.57 83.5256 352.69 83.2989 352.93C83.0789 353.163 82.9689 353.5 82.9689 353.94V357H81.5689V351.46H82.9689V352.15C83.1556 351.91 83.3922 351.723 83.6789 351.59C83.9722 351.45 84.2922 351.38 84.6389 351.38ZM93.3302 354.11C93.3302 354.31 93.3169 354.49 93.2902 354.65H89.2402C89.2736 355.05 89.4136 355.363 89.6602 355.59C89.9069 355.817 90.2102 355.93 90.5702 355.93C91.0902 355.93 91.4602 355.707 91.6802 355.26H93.1902C93.0302 355.793 92.7236 356.233 92.2702 356.58C91.8169 356.92 91.2602 357.09 90.6002 357.09C90.0669 357.09 89.5869 356.973 89.1602 356.74C88.7402 356.5 88.4102 356.163 88.1702 355.73C87.9369 355.297 87.8202 354.797 87.8202 354.23C87.8202 353.657 87.9369 353.153 88.1702 352.72C88.4036 352.287 88.7302 351.953 89.1502 351.72C89.5702 351.487 90.0536 351.37 90.6002 351.37C91.1269 351.37 91.5969 351.483 92.0102 351.71C92.4302 351.937 92.7536 352.26 92.9802 352.68C93.2136 353.093 93.3302 353.57 93.3302 354.11ZM91.8802 353.71C91.8736 353.35 91.7436 353.063 91.4902 352.85C91.2369 352.63 90.9269 352.52 90.5602 352.52C90.2136 352.52 89.9202 352.627 89.6802 352.84C89.4469 353.047 89.3036 353.337 89.2502 353.71H91.8802ZM95.9821 352.61V355.29C95.9821 355.477 96.0254 355.613 96.1121 355.7C96.2054 355.78 96.3588 355.82 96.5721 355.82H97.2221V357H96.3421C95.1621 357 94.5721 356.427 94.5721 355.28V352.61H93.9121V351.46H94.5721V350.09H95.9821V351.46H97.2221V352.61H95.9821Z" fill="#091F23"/>
<path d="M92.63 141L90.09 137.89V141H88.69V134.02H90.09V137.15L92.63 134.02H94.32L91.44 137.48L94.4 141H92.63ZM94.9609 138.21C94.9609 137.65 95.0709 137.153 95.2909 136.72C95.5175 136.287 95.8209 135.953 96.2009 135.72C96.5875 135.487 97.0175 135.37 97.4909 135.37C97.9042 135.37 98.2642 135.453 98.5709 135.62C98.8842 135.787 99.1342 135.997 99.3209 136.25V135.46H100.731V141H99.3209V140.19C99.1409 140.45 98.8909 140.667 98.5709 140.84C98.2575 141.007 97.8942 141.09 97.4809 141.09C97.0142 141.09 96.5875 140.97 96.2009 140.73C95.8209 140.49 95.5175 140.153 95.2909 139.72C95.0709 139.28 94.9609 138.777 94.9609 138.21ZM99.3209 138.23C99.3209 137.89 99.2542 137.6 99.1209 137.36C98.9875 137.113 98.8075 136.927 98.5809 136.8C98.3542 136.667 98.1109 136.6 97.8509 136.6C97.5909 136.6 97.3509 136.663 97.1309 136.79C96.9109 136.917 96.7309 137.103 96.5909 137.35C96.4575 137.59 96.3909 137.877 96.3909 138.21C96.3909 138.543 96.4575 138.837 96.5909 139.09C96.7309 139.337 96.9109 139.527 97.1309 139.66C97.3575 139.793 97.5975 139.86 97.8509 139.86C98.1109 139.86 98.3542 139.797 98.5809 139.67C98.8075 139.537 98.9875 139.35 99.1209 139.11C99.2542 138.863 99.3209 138.57 99.3209 138.23ZM103.498 133.6V141H102.098V133.6H103.498ZM110.031 138.11C110.031 138.31 110.018 138.49 109.991 138.65H105.941C105.975 139.05 106.115 139.363 106.361 139.59C106.608 139.817 106.911 139.93 107.271 139.93C107.791 139.93 108.161 139.707 108.381 139.26H109.891C109.731 139.793 109.425 140.233 108.971 140.58C108.518 140.92 107.961 141.09 107.301 141.09C106.768 141.09 106.288 140.973 105.861 140.74C105.441 140.5 105.111 140.163 104.871 139.73C104.638 139.297 104.521 138.797 104.521 138.23C104.521 137.657 104.638 137.153 104.871 136.72C105.105 136.287 105.431 135.953 105.851 135.72C106.271 135.487 106.755 135.37 107.301 135.37C107.828 135.37 108.298 135.483 108.711 135.71C109.131 135.937 109.455 136.26 109.681 136.68C109.915 137.093 110.031 137.57 110.031 138.11ZM108.581 137.71C108.575 137.35 108.445 137.063 108.191 136.85C107.938 136.63 107.628 136.52 107.261 136.52C106.915 136.52 106.621 136.627 106.381 136.84C106.148 137.047 106.005 137.337 105.951 137.71H108.581ZM114.123 135.38C114.783 135.38 115.317 135.59 115.723 136.01C116.13 136.423 116.333 137.003 116.333 137.75V141H114.933V137.94C114.933 137.5 114.823 137.163 114.603 136.93C114.383 136.69 114.083 136.57 113.703 136.57C113.317 136.57 113.01 136.69 112.783 136.93C112.563 137.163 112.453 137.5 112.453 137.94V141H111.053V135.46H112.453V136.15C112.64 135.91 112.877 135.723 113.163 135.59C113.457 135.45 113.777 135.38 114.123 135.38ZM117.305 138.21C117.305 137.65 117.415 137.153 117.635 136.72C117.861 136.287 118.168 135.953 118.555 135.72C118.941 135.487 119.371 135.37 119.845 135.37C120.205 135.37 120.548 135.45 120.875 135.61C121.201 135.763 121.461 135.97 121.655 136.23V133.6H123.075V141H121.655V140.18C121.481 140.453 121.238 140.673 120.925 140.84C120.611 141.007 120.248 141.09 119.835 141.09C119.368 141.09 118.941 140.97 118.555 140.73C118.168 140.49 117.861 140.153 117.635 139.72C117.415 139.28 117.305 138.777 117.305 138.21ZM121.665 138.23C121.665 137.89 121.598 137.6 121.465 137.36C121.331 137.113 121.151 136.927 120.925 136.8C120.698 136.667 120.455 136.6 120.195 136.6C119.935 136.6 119.695 136.663 119.475 136.79C119.255 136.917 119.075 137.103 118.935 137.35C118.801 137.59 118.735 137.877 118.735 138.21C118.735 138.543 118.801 138.837 118.935 139.09C119.075 139.337 119.255 139.527 119.475 139.66C119.701 139.793 119.941 139.86 120.195 139.86C120.455 139.86 120.698 139.797 120.925 139.67C121.151 139.537 121.331 139.35 121.465 139.11C121.598 138.863 121.665 138.57 121.665 138.23ZM124.082 138.21C124.082 137.65 124.192 137.153 124.412 136.72C124.639 136.287 124.942 135.953 125.322 135.72C125.709 135.487 126.139 135.37 126.612 135.37C127.025 135.37 127.385 135.453 127.692 135.62C128.005 135.787 128.255 135.997 128.442 136.25V135.46H129.852V141H128.442V140.19C128.262 140.45 128.012 140.667 127.692 140.84C127.379 141.007 127.015 141.09 126.602 141.09C126.135 141.09 125.709 140.97 125.322 140.73C124.942 140.49 124.639 140.153 124.412 139.72C124.192 139.28 124.082 138.777 124.082 138.21ZM128.442 138.23C128.442 137.89 128.375 137.6 128.242 137.36C128.109 137.113 127.929 136.927 127.702 136.8C127.475 136.667 127.232 136.6 126.972 136.6C126.712 136.6 126.472 136.663 126.252 136.79C126.032 136.917 125.852 137.103 125.712 137.35C125.579 137.59 125.512 137.877 125.512 138.21C125.512 138.543 125.579 138.837 125.712 139.09C125.852 139.337 126.032 139.527 126.252 139.66C126.479 139.793 126.719 139.86 126.972 139.86C127.232 139.86 127.475 139.797 127.702 139.67C127.929 139.537 128.109 139.35 128.242 139.11C128.375 138.863 128.442 138.57 128.442 138.23ZM132.619 136.32C132.799 136.027 133.033 135.797 133.319 135.63C133.613 135.463 133.946 135.38 134.319 135.38V136.85H133.949C133.509 136.85 133.176 136.953 132.949 137.16C132.729 137.367 132.619 137.727 132.619 138.24V141H131.219V135.46H132.619V136.32ZM135.972 134.8C135.726 134.8 135.519 134.723 135.352 134.57C135.192 134.41 135.112 134.213 135.112 133.98C135.112 133.747 135.192 133.553 135.352 133.4C135.519 133.24 135.726 133.16 135.972 133.16C136.219 133.16 136.422 133.24 136.582 133.4C136.749 133.553 136.832 133.747 136.832 133.98C136.832 134.213 136.749 134.41 136.582 134.57C136.422 134.723 136.219 134.8 135.972 134.8ZM136.662 135.46V141H135.262V135.46H136.662Z" fill="#091F23"/>
</svg>
