<svg width="1238" height="246" viewBox="0 0 1238 246" fill="none" xmlns="http://www.w3.org/2000/svg">
<path d="M302.4 194.6C332 194.6 353.2 172 353.2 140.2C353.2 108.2 333 85.4 303.6 85.4C281.8 85.4 271.2 99.4 268 104.8H266.8V42H251V192H266.2V175.6H267.4C270 179.4 279.8 194.6 302.4 194.6ZM301.4 180.4C279.8 180.4 266.2 162.2 266.2 140.4C266.2 114.6 282.2 99.8 301.8 99.8C322.2 99.8 337 116.6 337 140.4C337 164.6 321.4 180.4 301.4 180.4ZM424.673 194.6C448.673 194.6 465.873 180.8 471.673 161.4L456.273 157.8C452.873 172.2 439.473 180.6 424.873 180.6C403.273 180.6 389.673 167.6 389.473 144.4H473.073V138.6C473.073 107.4 455.073 85.4 423.673 85.4C396.073 85.4 373.273 107.2 373.273 140.4C373.273 172.4 393.073 194.6 424.673 194.6ZM389.873 131.6C391.073 112 406.673 99.6 423.673 99.6C440.873 99.6 455.873 110 456.873 131.6H389.873ZM501 192H516.8V130C516.8 112.8 529.6 100.2 546 100.2C560.6 100.2 572.8 111 572.8 127.6V192H588.6V126.6C588.6 103.6 574 85.4 549.8 85.4C533.6 85.4 522.4 93.8 518 103.2H516.8V88H501V192ZM646.68 69.2C653.48 69.2 658.28 64.2 658.28 57.6C658.28 51.2 653.48 46.2 646.68 46.2C640.08 46.2 635.28 51.2 635.28 57.6C635.28 64.2 640.08 69.2 646.68 69.2ZM607.68 238H623.08C642.08 238 654.68 229.4 654.68 208.4V88H616.28V101.4H638.88V208.2C638.88 219.4 634.28 224 623.28 224H607.68V238ZM713.611 69.2C720.411 69.2 725.211 64.2 725.211 57.6C725.211 51.2 720.411 46.2 713.611 46.2C707.011 46.2 702.211 51.2 702.211 57.6C702.211 64.2 707.011 69.2 713.611 69.2ZM705.811 192H721.611V88H686.211V101.4H705.811V192ZM812.556 194.6C842.156 194.6 863.356 172 863.356 140.2C863.356 108.2 843.156 85.4 813.756 85.4C791.956 85.4 781.356 99.4 778.156 104.8H776.956V42H761.156V192H776.356V175.6H777.556C780.156 179.4 789.956 194.6 812.556 194.6ZM811.556 180.4C789.956 180.4 776.356 162.2 776.356 140.4C776.356 114.6 792.356 99.8 811.956 99.8C832.356 99.8 847.156 116.6 847.156 140.4C847.156 164.6 831.556 180.4 811.556 180.4ZM934.23 194.6C956.83 194.6 966.43 179.8 969.03 175.6H970.23V176.6C970.43 185.6 976.83 192 985.43 192H995.63V178H990.83C987.63 178 985.63 176.4 985.63 173.2V88H969.63V104.8H968.43C965.43 99.4 954.63 85.4 933.03 85.4C903.43 85.4 883.43 108.2 883.43 140.2C883.43 172 904.43 194.6 934.23 194.6ZM935.03 180.4C915.03 180.4 899.63 164.6 899.63 140.4C899.63 116.6 914.43 99.8 934.83 99.8C954.23 99.8 970.23 114.6 970.23 140.4C970.23 162.2 956.83 180.4 935.03 180.4ZM1025.61 192H1041.41V130C1041.41 112.8 1054.21 100.2 1070.61 100.2C1085.21 100.2 1097.41 111 1097.41 127.6V192H1113.21V126.6C1113.21 103.6 1098.61 85.4 1074.41 85.4C1058.21 85.4 1047.01 93.8 1042.61 103.2H1041.41V88H1025.61V192ZM1147.29 192H1163.09V142.6H1181.89L1212.69 192H1231.49L1194.69 135.2V134L1228.89 88H1210.69L1181.29 128.2H1163.09V42H1147.29V192Z" fill="#091F23"/>
<path d="M302.4 195.6C332 195.6 353.2 173 353.2 141.2C353.2 109.2 333 86.4 303.6 86.4C281.8 86.4 271.2 100.4 268 105.8H266.8V43H251V193H266.2V176.6H267.4C270 180.4 279.8 195.6 302.4 195.6ZM301.4 181.4C279.8 181.4 266.2 163.2 266.2 141.4C266.2 115.6 282.2 100.8 301.8 100.8C322.2 100.8 337 117.6 337 141.4C337 165.6 321.4 181.4 301.4 181.4ZM424.673 195.6C448.673 195.6 465.873 181.8 471.673 162.4L456.273 158.8C452.873 173.2 439.473 181.6 424.873 181.6C403.273 181.6 389.673 168.6 389.473 145.4H473.073V139.6C473.073 108.4 455.073 86.4 423.673 86.4C396.073 86.4 373.273 108.2 373.273 141.4C373.273 173.4 393.073 195.6 424.673 195.6ZM389.873 132.6C391.073 113 406.673 100.6 423.673 100.6C440.873 100.6 455.873 111 456.873 132.6H389.873ZM501 193H516.8V131C516.8 113.8 529.6 101.2 546 101.2C560.6 101.2 572.8 112 572.8 128.6V193H588.6V127.6C588.6 104.6 574 86.4 549.8 86.4C533.6 86.4 522.4 94.8 518 104.2H516.8V89H501V193ZM646.68 70.2C653.48 70.2 658.28 65.2 658.28 58.6C658.28 52.2 653.48 47.2 646.68 47.2C640.08 47.2 635.28 52.2 635.28 58.6C635.28 65.2 640.08 70.2 646.68 70.2ZM607.68 239H623.08C642.08 239 654.68 230.4 654.68 209.4V89H616.28V102.4H638.88V209.2C638.88 220.4 634.28 225 623.28 225H607.68V239ZM713.611 70.2C720.411 70.2 725.211 65.2 725.211 58.6C725.211 52.2 720.411 47.2 713.611 47.2C707.011 47.2 702.211 52.2 702.211 58.6C702.211 65.2 707.011 70.2 713.611 70.2ZM705.811 193H721.611V89H686.211V102.4H705.811V193ZM812.556 195.6C842.156 195.6 863.356 173 863.356 141.2C863.356 109.2 843.156 86.4 813.756 86.4C791.956 86.4 781.356 100.4 778.156 105.8H776.956V43H761.156V193H776.356V176.6H777.556C780.156 180.4 789.956 195.6 812.556 195.6ZM811.556 181.4C789.956 181.4 776.356 163.2 776.356 141.4C776.356 115.6 792.356 100.8 811.956 100.8C832.356 100.8 847.156 117.6 847.156 141.4C847.156 165.6 831.556 181.4 811.556 181.4ZM934.23 195.6C956.83 195.6 966.43 180.8 969.03 176.6H970.23V177.6C970.43 186.6 976.83 193 985.43 193H995.63V179H990.83C987.63 179 985.63 177.4 985.63 174.2V89H969.63V105.8H968.43C965.43 100.4 954.63 86.4 933.03 86.4C903.43 86.4 883.43 109.2 883.43 141.2C883.43 173 904.43 195.6 934.23 195.6ZM935.03 181.4C915.03 181.4 899.63 165.6 899.63 141.4C899.63 117.6 914.43 100.8 934.83 100.8C954.23 100.8 970.23 115.6 970.23 141.4C970.23 163.2 956.83 181.4 935.03 181.4ZM1025.61 193H1041.41V131C1041.41 113.8 1054.21 101.2 1070.61 101.2C1085.21 101.2 1097.41 112 1097.41 128.6V193H1113.21V127.6C1113.21 104.6 1098.61 86.4 1074.41 86.4C1058.21 86.4 1047.01 94.8 1042.61 104.2H1041.41V89H1025.61V193ZM1147.29 193H1163.09V143.6H1181.89L1212.69 193H1231.49L1194.69 136.2V135L1228.89 89H1210.69L1181.29 129.2H1163.09V43H1147.29V193Z" fill="#091F23"/>
<path d="M303.4 195.6C333 195.6 354.2 173 354.2 141.2C354.2 109.2 334 86.4 304.6 86.4C282.8 86.4 272.2 100.4 269 105.8H267.8V43H252V193H267.2V176.6H268.4C271 180.4 280.8 195.6 303.4 195.6ZM302.4 181.4C280.8 181.4 267.2 163.2 267.2 141.4C267.2 115.6 283.2 100.8 302.8 100.8C323.2 100.8 338 117.6 338 141.4C338 165.6 322.4 181.4 302.4 181.4ZM425.673 195.6C449.673 195.6 466.873 181.8 472.673 162.4L457.273 158.8C453.873 173.2 440.473 181.6 425.873 181.6C404.273 181.6 390.673 168.6 390.473 145.4H474.073V139.6C474.073 108.4 456.073 86.4 424.673 86.4C397.073 86.4 374.273 108.2 374.273 141.4C374.273 173.4 394.073 195.6 425.673 195.6ZM390.873 132.6C392.073 113 407.673 100.6 424.673 100.6C441.873 100.6 456.873 111 457.873 132.6H390.873ZM502 193H517.8V131C517.8 113.8 530.6 101.2 547 101.2C561.6 101.2 573.8 112 573.8 128.6V193H589.6V127.6C589.6 104.6 575 86.4 550.8 86.4C534.6 86.4 523.4 94.8 519 104.2H517.8V89H502V193ZM647.68 70.2C654.48 70.2 659.28 65.2 659.28 58.6C659.28 52.2 654.48 47.2 647.68 47.2C641.08 47.2 636.28 52.2 636.28 58.6C636.28 65.2 641.08 70.2 647.68 70.2ZM608.68 239H624.08C643.08 239 655.68 230.4 655.68 209.4V89H617.28V102.4H639.88V209.2C639.88 220.4 635.28 225 624.28 225H608.68V239ZM714.611 70.2C721.411 70.2 726.211 65.2 726.211 58.6C726.211 52.2 721.411 47.2 714.611 47.2C708.011 47.2 703.211 52.2 703.211 58.6C703.211 65.2 708.011 70.2 714.611 70.2ZM706.811 193H722.611V89H687.211V102.4H706.811V193ZM813.556 195.6C843.156 195.6 864.356 173 864.356 141.2C864.356 109.2 844.156 86.4 814.756 86.4C792.956 86.4 782.356 100.4 779.156 105.8H777.956V43H762.156V193H777.356V176.6H778.556C781.156 180.4 790.956 195.6 813.556 195.6ZM812.556 181.4C790.956 181.4 777.356 163.2 777.356 141.4C777.356 115.6 793.356 100.8 812.956 100.8C833.356 100.8 848.156 117.6 848.156 141.4C848.156 165.6 832.556 181.4 812.556 181.4ZM935.23 195.6C957.83 195.6 967.43 180.8 970.03 176.6H971.23V177.6C971.43 186.6 977.83 193 986.43 193H996.63V179H991.83C988.63 179 986.63 177.4 986.63 174.2V89H970.63V105.8H969.43C966.43 100.4 955.63 86.4 934.03 86.4C904.43 86.4 884.43 109.2 884.43 141.2C884.43 173 905.43 195.6 935.23 195.6ZM936.03 181.4C916.03 181.4 900.63 165.6 900.63 141.4C900.63 117.6 915.43 100.8 935.83 100.8C955.23 100.8 971.23 115.6 971.23 141.4C971.23 163.2 957.83 181.4 936.03 181.4ZM1026.61 193H1042.41V131C1042.41 113.8 1055.21 101.2 1071.61 101.2C1086.21 101.2 1098.41 112 1098.41 128.6V193H1114.21V127.6C1114.21 104.6 1099.61 86.4 1075.41 86.4C1059.21 86.4 1048.01 94.8 1043.61 104.2H1042.41V89H1026.61V193ZM1148.29 193H1164.09V143.6H1182.89L1213.69 193H1232.49L1195.69 136.2V135L1229.89 89H1211.69L1182.29 129.2H1164.09V43H1148.29V193Z" fill="#091F23"/>
<path d="M303.4 194.6C333 194.6 354.2 172 354.2 140.2C354.2 108.2 334 85.4 304.6 85.4C282.8 85.4 272.2 99.4 269 104.8H267.8V42H252V192H267.2V175.6H268.4C271 179.4 280.8 194.6 303.4 194.6ZM302.4 180.4C280.8 180.4 267.2 162.2 267.2 140.4C267.2 114.6 283.2 99.8 302.8 99.8C323.2 99.8 338 116.6 338 140.4C338 164.6 322.4 180.4 302.4 180.4ZM425.673 194.6C449.673 194.6 466.873 180.8 472.673 161.4L457.273 157.8C453.873 172.2 440.473 180.6 425.873 180.6C404.273 180.6 390.673 167.6 390.473 144.4H474.073V138.6C474.073 107.4 456.073 85.4 424.673 85.4C397.073 85.4 374.273 107.2 374.273 140.4C374.273 172.4 394.073 194.6 425.673 194.6ZM390.873 131.6C392.073 112 407.673 99.6 424.673 99.6C441.873 99.6 456.873 110 457.873 131.6H390.873ZM502 192H517.8V130C517.8 112.8 530.6 100.2 547 100.2C561.6 100.2 573.8 111 573.8 127.6V192H589.6V126.6C589.6 103.6 575 85.4 550.8 85.4C534.6 85.4 523.4 93.8 519 103.2H517.8V88H502V192ZM647.68 69.2C654.48 69.2 659.28 64.2 659.28 57.6C659.28 51.2 654.48 46.2 647.68 46.2C641.08 46.2 636.28 51.2 636.28 57.6C636.28 64.2 641.08 69.2 647.68 69.2ZM608.68 238H624.08C643.08 238 655.68 229.4 655.68 208.4V88H617.28V101.4H639.88V208.2C639.88 219.4 635.28 224 624.28 224H608.68V238ZM714.611 69.2C721.411 69.2 726.211 64.2 726.211 57.6C726.211 51.2 721.411 46.2 714.611 46.2C708.011 46.2 703.211 51.2 703.211 57.6C703.211 64.2 708.011 69.2 714.611 69.2ZM706.811 192H722.611V88H687.211V101.4H706.811V192ZM813.556 194.6C843.156 194.6 864.356 172 864.356 140.2C864.356 108.2 844.156 85.4 814.756 85.4C792.956 85.4 782.356 99.4 779.156 104.8H777.956V42H762.156V192H777.356V175.6H778.556C781.156 179.4 790.956 194.6 813.556 194.6ZM812.556 180.4C790.956 180.4 777.356 162.2 777.356 140.4C777.356 114.6 793.356 99.8 812.956 99.8C833.356 99.8 848.156 116.6 848.156 140.4C848.156 164.6 832.556 180.4 812.556 180.4ZM935.23 194.6C957.83 194.6 967.43 179.8 970.03 175.6H971.23V176.6C971.43 185.6 977.83 192 986.43 192H996.63V178H991.83C988.63 178 986.63 176.4 986.63 173.2V88H970.63V104.8H969.43C966.43 99.4 955.63 85.4 934.03 85.4C904.43 85.4 884.43 108.2 884.43 140.2C884.43 172 905.43 194.6 935.23 194.6ZM936.03 180.4C916.03 180.4 900.63 164.6 900.63 140.4C900.63 116.6 915.43 99.8 935.83 99.8C955.23 99.8 971.23 114.6 971.23 140.4C971.23 162.2 957.83 180.4 936.03 180.4ZM1026.61 192H1042.41V130C1042.41 112.8 1055.21 100.2 1071.61 100.2C1086.21 100.2 1098.41 111 1098.41 127.6V192H1114.21V126.6C1114.21 103.6 1099.61 85.4 1075.41 85.4C1059.21 85.4 1048.01 93.8 1043.61 103.2H1042.41V88H1026.61V192ZM1148.29 192H1164.09V142.6H1182.89L1213.69 192H1232.49L1195.69 135.2V134L1229.89 88H1211.69L1182.29 128.2H1164.09V42H1148.29V192Z" fill="#091F23"/>
<path d="M302.4 194.6C332 194.6 353.2 172 353.2 140.2C353.2 108.2 333 85.4 303.6 85.4C281.8 85.4 271.2 99.4 268 104.8H266.8V42H251V192H266.2V175.6H267.4C270 179.4 279.8 194.6 302.4 194.6ZM301.4 180.4C279.8 180.4 266.2 162.2 266.2 140.4C266.2 114.6 282.2 99.8 301.8 99.8C322.2 99.8 337 116.6 337 140.4C337 164.6 321.4 180.4 301.4 180.4ZM424.673 194.6C448.673 194.6 465.873 180.8 471.673 161.4L456.273 157.8C452.873 172.2 439.473 180.6 424.873 180.6C403.273 180.6 389.673 167.6 389.473 144.4H473.073V138.6C473.073 107.4 455.073 85.4 423.673 85.4C396.073 85.4 373.273 107.2 373.273 140.4C373.273 172.4 393.073 194.6 424.673 194.6ZM389.873 131.6C391.073 112 406.673 99.6 423.673 99.6C440.873 99.6 455.873 110 456.873 131.6H389.873ZM501 192H516.8V130C516.8 112.8 529.6 100.2 546 100.2C560.6 100.2 572.8 111 572.8 127.6V192H588.6V126.6C588.6 103.6 574 85.4 549.8 85.4C533.6 85.4 522.4 93.8 518 103.2H516.8V88H501V192ZM646.68 69.2C653.48 69.2 658.28 64.2 658.28 57.6C658.28 51.2 653.48 46.2 646.68 46.2C640.08 46.2 635.28 51.2 635.28 57.6C635.28 64.2 640.08 69.2 646.68 69.2ZM607.68 238H623.08C642.08 238 654.68 229.4 654.68 208.4V88H616.28V101.4H638.88V208.2C638.88 219.4 634.28 224 623.28 224H607.68V238ZM713.611 69.2C720.411 69.2 725.211 64.2 725.211 57.6C725.211 51.2 720.411 46.2 713.611 46.2C707.011 46.2 702.211 51.2 702.211 57.6C702.211 64.2 707.011 69.2 713.611 69.2ZM705.811 192H721.611V88H686.211V101.4H705.811V192ZM812.556 194.6C842.156 194.6 863.356 172 863.356 140.2C863.356 108.2 843.156 85.4 813.756 85.4C791.956 85.4 781.356 99.4 778.156 104.8H776.956V42H761.156V192H776.356V175.6H777.556C780.156 179.4 789.956 194.6 812.556 194.6ZM811.556 180.4C789.956 180.4 776.356 162.2 776.356 140.4C776.356 114.6 792.356 99.8 811.956 99.8C832.356 99.8 847.156 116.6 847.156 140.4C847.156 164.6 831.556 180.4 811.556 180.4ZM934.23 194.6C956.83 194.6 966.43 179.8 969.03 175.6H970.23V176.6C970.43 185.6 976.83 192 985.43 192H995.63V178H990.83C987.63 178 985.63 176.4 985.63 173.2V88H969.63V104.8H968.43C965.43 99.4 954.63 85.4 933.03 85.4C903.43 85.4 883.43 108.2 883.43 140.2C883.43 172 904.43 194.6 934.23 194.6ZM935.03 180.4C915.03 180.4 899.63 164.6 899.63 140.4C899.63 116.6 914.43 99.8 934.83 99.8C954.23 99.8 970.23 114.6 970.23 140.4C970.23 162.2 956.83 180.4 935.03 180.4ZM1025.61 192H1041.41V130C1041.41 112.8 1054.21 100.2 1070.61 100.2C1085.21 100.2 1097.41 111 1097.41 127.6V192H1113.21V126.6C1113.21 103.6 1098.61 85.4 1074.41 85.4C1058.21 85.4 1047.01 93.8 1042.61 103.2H1041.41V88H1025.61V192ZM1147.29 192H1163.09V142.6H1181.89L1212.69 192H1231.49L1194.69 135.2V134L1228.89 88H1210.69L1181.29 128.2H1163.09V42H1147.29V192Z" fill="#091F23"/>
<path d="M300.4 194.6C330 194.6 351.2 172 351.2 140.2C351.2 108.2 331 85.4 301.6 85.4C279.8 85.4 269.2 99.4 266 104.8H264.8V42H249V192H264.2V175.6H265.4C268 179.4 277.8 194.6 300.4 194.6ZM299.4 180.4C277.8 180.4 264.2 162.2 264.2 140.4C264.2 114.6 280.2 99.8 299.8 99.8C320.2 99.8 335 116.6 335 140.4C335 164.6 319.4 180.4 299.4 180.4ZM422.673 194.6C446.673 194.6 463.873 180.8 469.673 161.4L454.273 157.8C450.873 172.2 437.473 180.6 422.873 180.6C401.273 180.6 387.673 167.6 387.473 144.4H471.073V138.6C471.073 107.4 453.073 85.4 421.673 85.4C394.073 85.4 371.273 107.2 371.273 140.4C371.273 172.4 391.073 194.6 422.673 194.6ZM387.873 131.6C389.073 112 404.673 99.6 421.673 99.6C438.873 99.6 453.873 110 454.873 131.6H387.873ZM499 192H514.8V130C514.8 112.8 527.6 100.2 544 100.2C558.6 100.2 570.8 111 570.8 127.6V192H586.6V126.6C586.6 103.6 572 85.4 547.8 85.4C531.6 85.4 520.4 93.8 516 103.2H514.8V88H499V192ZM644.68 69.2C651.48 69.2 656.28 64.2 656.28 57.6C656.28 51.2 651.48 46.2 644.68 46.2C638.08 46.2 633.28 51.2 633.28 57.6C633.28 64.2 638.08 69.2 644.68 69.2ZM605.68 238H621.08C640.08 238 652.68 229.4 652.68 208.4V88H614.28V101.4H636.88V208.2C636.88 219.4 632.28 224 621.28 224H605.68V238ZM711.611 69.2C718.411 69.2 723.211 64.2 723.211 57.6C723.211 51.2 718.411 46.2 711.611 46.2C705.011 46.2 700.211 51.2 700.211 57.6C700.211 64.2 705.011 69.2 711.611 69.2ZM703.811 192H719.611V88H684.211V101.4H703.811V192ZM810.556 194.6C840.156 194.6 861.356 172 861.356 140.2C861.356 108.2 841.156 85.4 811.756 85.4C789.956 85.4 779.356 99.4 776.156 104.8H774.956V42H759.156V192H774.356V175.6H775.556C778.156 179.4 787.956 194.6 810.556 194.6ZM809.556 180.4C787.956 180.4 774.356 162.2 774.356 140.4C774.356 114.6 790.356 99.8 809.956 99.8C830.356 99.8 845.156 116.6 845.156 140.4C845.156 164.6 829.556 180.4 809.556 180.4ZM932.23 194.6C954.83 194.6 964.43 179.8 967.03 175.6H968.23V176.6C968.43 185.6 974.83 192 983.43 192H993.63V178H988.83C985.63 178 983.63 176.4 983.63 173.2V88H967.63V104.8H966.43C963.43 99.4 952.63 85.4 931.03 85.4C901.43 85.4 881.43 108.2 881.43 140.2C881.43 172 902.43 194.6 932.23 194.6ZM933.03 180.4C913.03 180.4 897.63 164.6 897.63 140.4C897.63 116.6 912.43 99.8 932.83 99.8C952.23 99.8 968.23 114.6 968.23 140.4C968.23 162.2 954.83 180.4 933.03 180.4ZM1023.61 192H1039.41V130C1039.41 112.8 1052.21 100.2 1068.61 100.2C1083.21 100.2 1095.41 111 1095.41 127.6V192H1111.21V126.6C1111.21 103.6 1096.61 85.4 1072.41 85.4C1056.21 85.4 1045.01 93.8 1040.61 103.2H1039.41V88H1023.61V192ZM1145.29 192H1161.09V142.6H1179.89L1210.69 192H1229.49L1192.69 135.2V134L1226.89 88H1208.69L1179.29 128.2H1161.09V42H1145.29V192Z" fill="#091F23"/>
<path d="M300.4 196.6C330 196.6 351.2 174 351.2 142.2C351.2 110.2 331 87.4 301.6 87.4C279.8 87.4 269.2 101.4 266 106.8H264.8V44H249V194H264.2V177.6H265.4C268 181.4 277.8 196.6 300.4 196.6ZM299.4 182.4C277.8 182.4 264.2 164.2 264.2 142.4C264.2 116.6 280.2 101.8 299.8 101.8C320.2 101.8 335 118.6 335 142.4C335 166.6 319.4 182.4 299.4 182.4ZM422.673 196.6C446.673 196.6 463.873 182.8 469.673 163.4L454.273 159.8C450.873 174.2 437.473 182.6 422.873 182.6C401.273 182.6 387.673 169.6 387.473 146.4H471.073V140.6C471.073 109.4 453.073 87.4 421.673 87.4C394.073 87.4 371.273 109.2 371.273 142.4C371.273 174.4 391.073 196.6 422.673 196.6ZM387.873 133.6C389.073 114 404.673 101.6 421.673 101.6C438.873 101.6 453.873 112 454.873 133.6H387.873ZM499 194H514.8V132C514.8 114.8 527.6 102.2 544 102.2C558.6 102.2 570.8 113 570.8 129.6V194H586.6V128.6C586.6 105.6 572 87.4 547.8 87.4C531.6 87.4 520.4 95.8 516 105.2H514.8V90H499V194ZM644.68 71.2C651.48 71.2 656.28 66.2 656.28 59.6C656.28 53.2 651.48 48.2 644.68 48.2C638.08 48.2 633.28 53.2 633.28 59.6C633.28 66.2 638.08 71.2 644.68 71.2ZM605.68 240H621.08C640.08 240 652.68 231.4 652.68 210.4V90H614.28V103.4H636.88V210.2C636.88 221.4 632.28 226 621.28 226H605.68V240ZM711.611 71.2C718.411 71.2 723.211 66.2 723.211 59.6C723.211 53.2 718.411 48.2 711.611 48.2C705.011 48.2 700.211 53.2 700.211 59.6C700.211 66.2 705.011 71.2 711.611 71.2ZM703.811 194H719.611V90H684.211V103.4H703.811V194ZM810.556 196.6C840.156 196.6 861.356 174 861.356 142.2C861.356 110.2 841.156 87.4 811.756 87.4C789.956 87.4 779.356 101.4 776.156 106.8H774.956V44H759.156V194H774.356V177.6H775.556C778.156 181.4 787.956 196.6 810.556 196.6ZM809.556 182.4C787.956 182.4 774.356 164.2 774.356 142.4C774.356 116.6 790.356 101.8 809.956 101.8C830.356 101.8 845.156 118.6 845.156 142.4C845.156 166.6 829.556 182.4 809.556 182.4ZM932.23 196.6C954.83 196.6 964.43 181.8 967.03 177.6H968.23V178.6C968.43 187.6 974.83 194 983.43 194H993.63V180H988.83C985.63 180 983.63 178.4 983.63 175.2V90H967.63V106.8H966.43C963.43 101.4 952.63 87.4 931.03 87.4C901.43 87.4 881.43 110.2 881.43 142.2C881.43 174 902.43 196.6 932.23 196.6ZM933.03 182.4C913.03 182.4 897.63 166.6 897.63 142.4C897.63 118.6 912.43 101.8 932.83 101.8C952.23 101.8 968.23 116.6 968.23 142.4C968.23 164.2 954.83 182.4 933.03 182.4ZM1023.61 194H1039.41V132C1039.41 114.8 1052.21 102.2 1068.61 102.2C1083.21 102.2 1095.41 113 1095.41 129.6V194H1111.21V128.6C1111.21 105.6 1096.61 87.4 1072.41 87.4C1056.21 87.4 1045.01 95.8 1040.61 105.2H1039.41V90H1023.61V194ZM1145.29 194H1161.09V144.6H1179.89L1210.69 194H1229.49L1192.69 137.2V136L1226.89 90H1208.69L1179.29 130.2H1161.09V44H1145.29V194Z" fill="#091F23"/>
<path d="M302.4 198.6C332 198.6 353.2 176 353.2 144.2C353.2 112.2 333 89.4 303.6 89.4C281.8 89.4 271.2 103.4 268 108.8H266.8V46H251V196H266.2V179.6H267.4C270 183.4 279.8 198.6 302.4 198.6ZM301.4 184.4C279.8 184.4 266.2 166.2 266.2 144.4C266.2 118.6 282.2 103.8 301.8 103.8C322.2 103.8 337 120.6 337 144.4C337 168.6 321.4 184.4 301.4 184.4ZM424.673 198.6C448.673 198.6 465.873 184.8 471.673 165.4L456.273 161.8C452.873 176.2 439.473 184.6 424.873 184.6C403.273 184.6 389.673 171.6 389.473 148.4H473.073V142.6C473.073 111.4 455.073 89.4 423.673 89.4C396.073 89.4 373.273 111.2 373.273 144.4C373.273 176.4 393.073 198.6 424.673 198.6ZM389.873 135.6C391.073 116 406.673 103.6 423.673 103.6C440.873 103.6 455.873 114 456.873 135.6H389.873ZM501 196H516.8V134C516.8 116.8 529.6 104.2 546 104.2C560.6 104.2 572.8 115 572.8 131.6V196H588.6V130.6C588.6 107.6 574 89.4 549.8 89.4C533.6 89.4 522.4 97.8 518 107.2H516.8V92H501V196ZM646.68 73.2C653.48 73.2 658.28 68.2 658.28 61.6C658.28 55.2 653.48 50.2 646.68 50.2C640.08 50.2 635.28 55.2 635.28 61.6C635.28 68.2 640.08 73.2 646.68 73.2ZM607.68 242H623.08C642.08 242 654.68 233.4 654.68 212.4V92H616.28V105.4H638.88V212.2C638.88 223.4 634.28 228 623.28 228H607.68V242ZM713.611 73.2C720.411 73.2 725.211 68.2 725.211 61.6C725.211 55.2 720.411 50.2 713.611 50.2C707.011 50.2 702.211 55.2 702.211 61.6C702.211 68.2 707.011 73.2 713.611 73.2ZM705.811 196H721.611V92H686.211V105.4H705.811V196ZM812.556 198.6C842.156 198.6 863.356 176 863.356 144.2C863.356 112.2 843.156 89.4 813.756 89.4C791.956 89.4 781.356 103.4 778.156 108.8H776.956V46H761.156V196H776.356V179.6H777.556C780.156 183.4 789.956 198.6 812.556 198.6ZM811.556 184.4C789.956 184.4 776.356 166.2 776.356 144.4C776.356 118.6 792.356 103.8 811.956 103.8C832.356 103.8 847.156 120.6 847.156 144.4C847.156 168.6 831.556 184.4 811.556 184.4ZM934.23 198.6C956.83 198.6 966.43 183.8 969.03 179.6H970.23V180.6C970.43 189.6 976.83 196 985.43 196H995.63V182H990.83C987.63 182 985.63 180.4 985.63 177.2V92H969.63V108.8H968.43C965.43 103.4 954.63 89.4 933.03 89.4C903.43 89.4 883.43 112.2 883.43 144.2C883.43 176 904.43 198.6 934.23 198.6ZM935.03 184.4C915.03 184.4 899.63 168.6 899.63 144.4C899.63 120.6 914.43 103.8 934.83 103.8C954.23 103.8 970.23 118.6 970.23 144.4C970.23 166.2 956.83 184.4 935.03 184.4ZM1025.61 196H1041.41V134C1041.41 116.8 1054.21 104.2 1070.61 104.2C1085.21 104.2 1097.41 115 1097.41 131.6V196H1113.21V130.6C1113.21 107.6 1098.61 89.4 1074.41 89.4C1058.21 89.4 1047.01 97.8 1042.61 107.2H1041.41V92H1025.61V196ZM1147.29 196H1163.09V146.6H1181.89L1212.69 196H1231.49L1194.69 139.2V138L1228.89 92H1210.69L1181.29 132.2H1163.09V46H1147.29V196Z" fill="#091F23"/>
<path d="M303.4 192.6C333 192.6 354.2 170 354.2 138.2C354.2 106.2 334 83.4 304.6 83.4C282.8 83.4 272.2 97.4 269 102.8H267.8V40H252V190H267.2V173.6H268.4C271 177.4 280.8 192.6 303.4 192.6ZM302.4 178.4C280.8 178.4 267.2 160.2 267.2 138.4C267.2 112.6 283.2 97.8 302.8 97.8C323.2 97.8 338 114.6 338 138.4C338 162.6 322.4 178.4 302.4 178.4ZM425.673 192.6C449.673 192.6 466.873 178.8 472.673 159.4L457.273 155.8C453.873 170.2 440.473 178.6 425.873 178.6C404.273 178.6 390.673 165.6 390.473 142.4H474.073V136.6C474.073 105.4 456.073 83.4 424.673 83.4C397.073 83.4 374.273 105.2 374.273 138.4C374.273 170.4 394.073 192.6 425.673 192.6ZM390.873 129.6C392.073 110 407.673 97.6 424.673 97.6C441.873 97.6 456.873 108 457.873 129.6H390.873ZM502 190H517.8V128C517.8 110.8 530.6 98.2 547 98.2C561.6 98.2 573.8 109 573.8 125.6V190H589.6V124.6C589.6 101.6 575 83.4 550.8 83.4C534.6 83.4 523.4 91.8 519 101.2H517.8V86H502V190ZM647.68 67.2C654.48 67.2 659.28 62.2 659.28 55.6C659.28 49.2 654.48 44.2 647.68 44.2C641.08 44.2 636.28 49.2 636.28 55.6C636.28 62.2 641.08 67.2 647.68 67.2ZM608.68 236H624.08C643.08 236 655.68 227.4 655.68 206.4V86H617.28V99.4H639.88V206.2C639.88 217.4 635.28 222 624.28 222H608.68V236ZM714.611 67.2C721.411 67.2 726.211 62.2 726.211 55.6C726.211 49.2 721.411 44.2 714.611 44.2C708.011 44.2 703.211 49.2 703.211 55.6C703.211 62.2 708.011 67.2 714.611 67.2ZM706.811 190H722.611V86H687.211V99.4H706.811V190ZM813.556 192.6C843.156 192.6 864.356 170 864.356 138.2C864.356 106.2 844.156 83.4 814.756 83.4C792.956 83.4 782.356 97.4 779.156 102.8H777.956V40H762.156V190H777.356V173.6H778.556C781.156 177.4 790.956 192.6 813.556 192.6ZM812.556 178.4C790.956 178.4 777.356 160.2 777.356 138.4C777.356 112.6 793.356 97.8 812.956 97.8C833.356 97.8 848.156 114.6 848.156 138.4C848.156 162.6 832.556 178.4 812.556 178.4ZM935.23 192.6C957.83 192.6 967.43 177.8 970.03 173.6H971.23V174.6C971.43 183.6 977.83 190 986.43 190H996.63V176H991.83C988.63 176 986.63 174.4 986.63 171.2V86H970.63V102.8H969.43C966.43 97.4 955.63 83.4 934.03 83.4C904.43 83.4 884.43 106.2 884.43 138.2C884.43 170 905.43 192.6 935.23 192.6ZM936.03 178.4C916.03 178.4 900.63 162.6 900.63 138.4C900.63 114.6 915.43 97.8 935.83 97.8C955.23 97.8 971.23 112.6 971.23 138.4C971.23 160.2 957.83 178.4 936.03 178.4ZM1026.61 190H1042.41V128C1042.41 110.8 1055.21 98.2 1071.61 98.2C1086.21 98.2 1098.41 109 1098.41 125.6V190H1114.21V124.6C1114.21 101.6 1099.61 83.4 1075.41 83.4C1059.21 83.4 1048.01 91.8 1043.61 101.2H1042.41V86H1026.61V190ZM1148.29 190H1164.09V140.6H1182.89L1213.69 190H1232.49L1195.69 133.2V132L1229.89 86H1211.69L1182.29 126.2H1164.09V40H1148.29V190Z" fill="#091F23"/>
<path d="M303.4 193.6C333 193.6 354.2 171 354.2 139.2C354.2 107.2 334 84.4 304.6 84.4C282.8 84.4 272.2 98.4 269 103.8H267.8V41H252V191H267.2V174.6H268.4C271 178.4 280.8 193.6 303.4 193.6ZM302.4 179.4C280.8 179.4 267.2 161.2 267.2 139.4C267.2 113.6 283.2 98.8 302.8 98.8C323.2 98.8 338 115.6 338 139.4C338 163.6 322.4 179.4 302.4 179.4ZM425.673 193.6C449.673 193.6 466.873 179.8 472.673 160.4L457.273 156.8C453.873 171.2 440.473 179.6 425.873 179.6C404.273 179.6 390.673 166.6 390.473 143.4H474.073V137.6C474.073 106.4 456.073 84.4 424.673 84.4C397.073 84.4 374.273 106.2 374.273 139.4C374.273 171.4 394.073 193.6 425.673 193.6ZM390.873 130.6C392.073 111 407.673 98.6 424.673 98.6C441.873 98.6 456.873 109 457.873 130.6H390.873ZM502 191H517.8V129C517.8 111.8 530.6 99.2 547 99.2C561.6 99.2 573.8 110 573.8 126.6V191H589.6V125.6C589.6 102.6 575 84.4 550.8 84.4C534.6 84.4 523.4 92.8 519 102.2H517.8V87H502V191ZM647.68 68.2C654.48 68.2 659.28 63.2 659.28 56.6C659.28 50.2 654.48 45.2 647.68 45.2C641.08 45.2 636.28 50.2 636.28 56.6C636.28 63.2 641.08 68.2 647.68 68.2ZM608.68 237H624.08C643.08 237 655.68 228.4 655.68 207.4V87H617.28V100.4H639.88V207.2C639.88 218.4 635.28 223 624.28 223H608.68V237ZM714.611 68.2C721.411 68.2 726.211 63.2 726.211 56.6C726.211 50.2 721.411 45.2 714.611 45.2C708.011 45.2 703.211 50.2 703.211 56.6C703.211 63.2 708.011 68.2 714.611 68.2ZM706.811 191H722.611V87H687.211V100.4H706.811V191ZM813.556 193.6C843.156 193.6 864.356 171 864.356 139.2C864.356 107.2 844.156 84.4 814.756 84.4C792.956 84.4 782.356 98.4 779.156 103.8H777.956V41H762.156V191H777.356V174.6H778.556C781.156 178.4 790.956 193.6 813.556 193.6ZM812.556 179.4C790.956 179.4 777.356 161.2 777.356 139.4C777.356 113.6 793.356 98.8 812.956 98.8C833.356 98.8 848.156 115.6 848.156 139.4C848.156 163.6 832.556 179.4 812.556 179.4ZM935.23 193.6C957.83 193.6 967.43 178.8 970.03 174.6H971.23V175.6C971.43 184.6 977.83 191 986.43 191H996.63V177H991.83C988.63 177 986.63 175.4 986.63 172.2V87H970.63V103.8H969.43C966.43 98.4 955.63 84.4 934.03 84.4C904.43 84.4 884.43 107.2 884.43 139.2C884.43 171 905.43 193.6 935.23 193.6ZM936.03 179.4C916.03 179.4 900.63 163.6 900.63 139.4C900.63 115.6 915.43 98.8 935.83 98.8C955.23 98.8 971.23 113.6 971.23 139.4C971.23 161.2 957.83 179.4 936.03 179.4ZM1026.61 191H1042.41V129C1042.41 111.8 1055.21 99.2 1071.61 99.2C1086.21 99.2 1098.41 110 1098.41 126.6V191H1114.21V125.6C1114.21 102.6 1099.61 84.4 1075.41 84.4C1059.21 84.4 1048.01 92.8 1043.61 102.2H1042.41V87H1026.61V191ZM1148.29 191H1164.09V141.6H1182.89L1213.69 191H1232.49L1195.69 134.2V133L1229.89 87H1211.69L1182.29 127.2H1164.09V41H1148.29V191Z" fill="#091F23"/>
<path d="M304.4 193.6C334 193.6 355.2 171 355.2 139.2C355.2 107.2 335 84.4 305.6 84.4C283.8 84.4 273.2 98.4 270 103.8H268.8V41H253V191H268.2V174.6H269.4C272 178.4 281.8 193.6 304.4 193.6ZM303.4 179.4C281.8 179.4 268.2 161.2 268.2 139.4C268.2 113.6 284.2 98.8 303.8 98.8C324.2 98.8 339 115.6 339 139.4C339 163.6 323.4 179.4 303.4 179.4ZM426.673 193.6C450.673 193.6 467.873 179.8 473.673 160.4L458.273 156.8C454.873 171.2 441.473 179.6 426.873 179.6C405.273 179.6 391.673 166.6 391.473 143.4H475.073V137.6C475.073 106.4 457.073 84.4 425.673 84.4C398.073 84.4 375.273 106.2 375.273 139.4C375.273 171.4 395.073 193.6 426.673 193.6ZM391.873 130.6C393.073 111 408.673 98.6 425.673 98.6C442.873 98.6 457.873 109 458.873 130.6H391.873ZM503 191H518.8V129C518.8 111.8 531.6 99.2 548 99.2C562.6 99.2 574.8 110 574.8 126.6V191H590.6V125.6C590.6 102.6 576 84.4 551.8 84.4C535.6 84.4 524.4 92.8 520 102.2H518.8V87H503V191ZM648.68 68.2C655.48 68.2 660.28 63.2 660.28 56.6C660.28 50.2 655.48 45.2 648.68 45.2C642.08 45.2 637.28 50.2 637.28 56.6C637.28 63.2 642.08 68.2 648.68 68.2ZM609.68 237H625.08C644.08 237 656.68 228.4 656.68 207.4V87H618.28V100.4H640.88V207.2C640.88 218.4 636.28 223 625.28 223H609.68V237ZM715.611 68.2C722.411 68.2 727.211 63.2 727.211 56.6C727.211 50.2 722.411 45.2 715.611 45.2C709.011 45.2 704.211 50.2 704.211 56.6C704.211 63.2 709.011 68.2 715.611 68.2ZM707.811 191H723.611V87H688.211V100.4H707.811V191ZM814.556 193.6C844.156 193.6 865.356 171 865.356 139.2C865.356 107.2 845.156 84.4 815.756 84.4C793.956 84.4 783.356 98.4 780.156 103.8H778.956V41H763.156V191H778.356V174.6H779.556C782.156 178.4 791.956 193.6 814.556 193.6ZM813.556 179.4C791.956 179.4 778.356 161.2 778.356 139.4C778.356 113.6 794.356 98.8 813.956 98.8C834.356 98.8 849.156 115.6 849.156 139.4C849.156 163.6 833.556 179.4 813.556 179.4ZM936.23 193.6C958.83 193.6 968.43 178.8 971.03 174.6H972.23V175.6C972.43 184.6 978.83 191 987.43 191H997.63V177H992.83C989.63 177 987.63 175.4 987.63 172.2V87H971.63V103.8H970.43C967.43 98.4 956.63 84.4 935.03 84.4C905.43 84.4 885.43 107.2 885.43 139.2C885.43 171 906.43 193.6 936.23 193.6ZM937.03 179.4C917.03 179.4 901.63 163.6 901.63 139.4C901.63 115.6 916.43 98.8 936.83 98.8C956.23 98.8 972.23 113.6 972.23 139.4C972.23 161.2 958.83 179.4 937.03 179.4ZM1027.61 191H1043.41V129C1043.41 111.8 1056.21 99.2 1072.61 99.2C1087.21 99.2 1099.41 110 1099.41 126.6V191H1115.21V125.6C1115.21 102.6 1100.61 84.4 1076.41 84.4C1060.21 84.4 1049.01 92.8 1044.61 102.2H1043.41V87H1027.61V191ZM1149.29 191H1165.09V141.6H1183.89L1214.69 191H1233.49L1196.69 134.2V133L1230.89 87H1212.69L1183.29 127.2H1165.09V41H1149.29V191Z" fill="#091F23"/>
<path d="M304.4 192.6C334 192.6 355.2 170 355.2 138.2C355.2 106.2 335 83.4 305.6 83.4C283.8 83.4 273.2 97.4 270 102.8H268.8V40H253V190H268.2V173.6H269.4C272 177.4 281.8 192.6 304.4 192.6ZM303.4 178.4C281.8 178.4 268.2 160.2 268.2 138.4C268.2 112.6 284.2 97.8 303.8 97.8C324.2 97.8 339 114.6 339 138.4C339 162.6 323.4 178.4 303.4 178.4ZM426.673 192.6C450.673 192.6 467.873 178.8 473.673 159.4L458.273 155.8C454.873 170.2 441.473 178.6 426.873 178.6C405.273 178.6 391.673 165.6 391.473 142.4H475.073V136.6C475.073 105.4 457.073 83.4 425.673 83.4C398.073 83.4 375.273 105.2 375.273 138.4C375.273 170.4 395.073 192.6 426.673 192.6ZM391.873 129.6C393.073 110 408.673 97.6 425.673 97.6C442.873 97.6 457.873 108 458.873 129.6H391.873ZM503 190H518.8V128C518.8 110.8 531.6 98.2 548 98.2C562.6 98.2 574.8 109 574.8 125.6V190H590.6V124.6C590.6 101.6 576 83.4 551.8 83.4C535.6 83.4 524.4 91.8 520 101.2H518.8V86H503V190ZM648.68 67.2C655.48 67.2 660.28 62.2 660.28 55.6C660.28 49.2 655.48 44.2 648.68 44.2C642.08 44.2 637.28 49.2 637.28 55.6C637.28 62.2 642.08 67.2 648.68 67.2ZM609.68 236H625.08C644.08 236 656.68 227.4 656.68 206.4V86H618.28V99.4H640.88V206.2C640.88 217.4 636.28 222 625.28 222H609.68V236ZM715.611 67.2C722.411 67.2 727.211 62.2 727.211 55.6C727.211 49.2 722.411 44.2 715.611 44.2C709.011 44.2 704.211 49.2 704.211 55.6C704.211 62.2 709.011 67.2 715.611 67.2ZM707.811 190H723.611V86H688.211V99.4H707.811V190ZM814.556 192.6C844.156 192.6 865.356 170 865.356 138.2C865.356 106.2 845.156 83.4 815.756 83.4C793.956 83.4 783.356 97.4 780.156 102.8H778.956V40H763.156V190H778.356V173.6H779.556C782.156 177.4 791.956 192.6 814.556 192.6ZM813.556 178.4C791.956 178.4 778.356 160.2 778.356 138.4C778.356 112.6 794.356 97.8 813.956 97.8C834.356 97.8 849.156 114.6 849.156 138.4C849.156 162.6 833.556 178.4 813.556 178.4ZM936.23 192.6C958.83 192.6 968.43 177.8 971.03 173.6H972.23V174.6C972.43 183.6 978.83 190 987.43 190H997.63V176H992.83C989.63 176 987.63 174.4 987.63 171.2V86H971.63V102.8H970.43C967.43 97.4 956.63 83.4 935.03 83.4C905.43 83.4 885.43 106.2 885.43 138.2C885.43 170 906.43 192.6 936.23 192.6ZM937.03 178.4C917.03 178.4 901.63 162.6 901.63 138.4C901.63 114.6 916.43 97.8 936.83 97.8C956.23 97.8 972.23 112.6 972.23 138.4C972.23 160.2 958.83 178.4 937.03 178.4ZM1027.61 190H1043.41V128C1043.41 110.8 1056.21 98.2 1072.61 98.2C1087.21 98.2 1099.41 109 1099.41 125.6V190H1115.21V124.6C1115.21 101.6 1100.61 83.4 1076.41 83.4C1060.21 83.4 1049.01 91.8 1044.61 101.2H1043.41V86H1027.61V190ZM1149.29 190H1165.09V140.6H1183.89L1214.69 190H1233.49L1196.69 133.2V132L1230.89 86H1212.69L1183.29 126.2H1165.09V40H1149.29V190Z" fill="#091F23"/>
<path d="M303.4 192.6C333 192.6 354.2 170 354.2 138.2C354.2 106.2 334 83.4 304.6 83.4C282.8 83.4 272.2 97.4 269 102.8H267.8V40H252V190H267.2V173.6H268.4C271 177.4 280.8 192.6 303.4 192.6ZM302.4 178.4C280.8 178.4 267.2 160.2 267.2 138.4C267.2 112.6 283.2 97.8 302.8 97.8C323.2 97.8 338 114.6 338 138.4C338 162.6 322.4 178.4 302.4 178.4ZM425.673 192.6C449.673 192.6 466.873 178.8 472.673 159.4L457.273 155.8C453.873 170.2 440.473 178.6 425.873 178.6C404.273 178.6 390.673 165.6 390.473 142.4H474.073V136.6C474.073 105.4 456.073 83.4 424.673 83.4C397.073 83.4 374.273 105.2 374.273 138.4C374.273 170.4 394.073 192.6 425.673 192.6ZM390.873 129.6C392.073 110 407.673 97.6 424.673 97.6C441.873 97.6 456.873 108 457.873 129.6H390.873ZM502 190H517.8V128C517.8 110.8 530.6 98.2 547 98.2C561.6 98.2 573.8 109 573.8 125.6V190H589.6V124.6C589.6 101.6 575 83.4 550.8 83.4C534.6 83.4 523.4 91.8 519 101.2H517.8V86H502V190ZM647.68 67.2C654.48 67.2 659.28 62.2 659.28 55.6C659.28 49.2 654.48 44.2 647.68 44.2C641.08 44.2 636.28 49.2 636.28 55.6C636.28 62.2 641.08 67.2 647.68 67.2ZM608.68 236H624.08C643.08 236 655.68 227.4 655.68 206.4V86H617.28V99.4H639.88V206.2C639.88 217.4 635.28 222 624.28 222H608.68V236ZM714.611 67.2C721.411 67.2 726.211 62.2 726.211 55.6C726.211 49.2 721.411 44.2 714.611 44.2C708.011 44.2 703.211 49.2 703.211 55.6C703.211 62.2 708.011 67.2 714.611 67.2ZM706.811 190H722.611V86H687.211V99.4H706.811V190ZM813.556 192.6C843.156 192.6 864.356 170 864.356 138.2C864.356 106.2 844.156 83.4 814.756 83.4C792.956 83.4 782.356 97.4 779.156 102.8H777.956V40H762.156V190H777.356V173.6H778.556C781.156 177.4 790.956 192.6 813.556 192.6ZM812.556 178.4C790.956 178.4 777.356 160.2 777.356 138.4C777.356 112.6 793.356 97.8 812.956 97.8C833.356 97.8 848.156 114.6 848.156 138.4C848.156 162.6 832.556 178.4 812.556 178.4ZM935.23 192.6C957.83 192.6 967.43 177.8 970.03 173.6H971.23V174.6C971.43 183.6 977.83 190 986.43 190H996.63V176H991.83C988.63 176 986.63 174.4 986.63 171.2V86H970.63V102.8H969.43C966.43 97.4 955.63 83.4 934.03 83.4C904.43 83.4 884.43 106.2 884.43 138.2C884.43 170 905.43 192.6 935.23 192.6ZM936.03 178.4C916.03 178.4 900.63 162.6 900.63 138.4C900.63 114.6 915.43 97.8 935.83 97.8C955.23 97.8 971.23 112.6 971.23 138.4C971.23 160.2 957.83 178.4 936.03 178.4ZM1026.61 190H1042.41V128C1042.41 110.8 1055.21 98.2 1071.61 98.2C1086.21 98.2 1098.41 109 1098.41 125.6V190H1114.21V124.6C1114.21 101.6 1099.61 83.4 1075.41 83.4C1059.21 83.4 1048.01 91.8 1043.61 101.2H1042.41V86H1026.61V190ZM1148.29 190H1164.09V140.6H1182.89L1213.69 190H1232.49L1195.69 133.2V132L1229.89 86H1211.69L1182.29 126.2H1164.09V40H1148.29V190Z" fill="#091F23"/>
<path d="M301.4 192.6C331 192.6 352.2 170 352.2 138.2C352.2 106.2 332 83.4 302.6 83.4C280.8 83.4 270.2 97.4 267 102.8H265.8V40H250V190H265.2V173.6H266.4C269 177.4 278.8 192.6 301.4 192.6ZM300.4 178.4C278.8 178.4 265.2 160.2 265.2 138.4C265.2 112.6 281.2 97.8 300.8 97.8C321.2 97.8 336 114.6 336 138.4C336 162.6 320.4 178.4 300.4 178.4ZM423.673 192.6C447.673 192.6 464.873 178.8 470.673 159.4L455.273 155.8C451.873 170.2 438.473 178.6 423.873 178.6C402.273 178.6 388.673 165.6 388.473 142.4H472.073V136.6C472.073 105.4 454.073 83.4 422.673 83.4C395.073 83.4 372.273 105.2 372.273 138.4C372.273 170.4 392.073 192.6 423.673 192.6ZM388.873 129.6C390.073 110 405.673 97.6 422.673 97.6C439.873 97.6 454.873 108 455.873 129.6H388.873ZM500 190H515.8V128C515.8 110.8 528.6 98.2 545 98.2C559.6 98.2 571.8 109 571.8 125.6V190H587.6V124.6C587.6 101.6 573 83.4 548.8 83.4C532.6 83.4 521.4 91.8 517 101.2H515.8V86H500V190ZM645.68 67.2C652.48 67.2 657.28 62.2 657.28 55.6C657.28 49.2 652.48 44.2 645.68 44.2C639.08 44.2 634.28 49.2 634.28 55.6C634.28 62.2 639.08 67.2 645.68 67.2ZM606.68 236H622.08C641.08 236 653.68 227.4 653.68 206.4V86H615.28V99.4H637.88V206.2C637.88 217.4 633.28 222 622.28 222H606.68V236ZM712.611 67.2C719.411 67.2 724.211 62.2 724.211 55.6C724.211 49.2 719.411 44.2 712.611 44.2C706.011 44.2 701.211 49.2 701.211 55.6C701.211 62.2 706.011 67.2 712.611 67.2ZM704.811 190H720.611V86H685.211V99.4H704.811V190ZM811.556 192.6C841.156 192.6 862.356 170 862.356 138.2C862.356 106.2 842.156 83.4 812.756 83.4C790.956 83.4 780.356 97.4 777.156 102.8H775.956V40H760.156V190H775.356V173.6H776.556C779.156 177.4 788.956 192.6 811.556 192.6ZM810.556 178.4C788.956 178.4 775.356 160.2 775.356 138.4C775.356 112.6 791.356 97.8 810.956 97.8C831.356 97.8 846.156 114.6 846.156 138.4C846.156 162.6 830.556 178.4 810.556 178.4ZM933.23 192.6C955.83 192.6 965.43 177.8 968.03 173.6H969.23V174.6C969.43 183.6 975.83 190 984.43 190H994.63V176H989.83C986.63 176 984.63 174.4 984.63 171.2V86H968.63V102.8H967.43C964.43 97.4 953.63 83.4 932.03 83.4C902.43 83.4 882.43 106.2 882.43 138.2C882.43 170 903.43 192.6 933.23 192.6ZM934.03 178.4C914.03 178.4 898.63 162.6 898.63 138.4C898.63 114.6 913.43 97.8 933.83 97.8C953.23 97.8 969.23 112.6 969.23 138.4C969.23 160.2 955.83 178.4 934.03 178.4ZM1024.61 190H1040.41V128C1040.41 110.8 1053.21 98.2 1069.61 98.2C1084.21 98.2 1096.41 109 1096.41 125.6V190H1112.21V124.6C1112.21 101.6 1097.61 83.4 1073.41 83.4C1057.21 83.4 1046.01 91.8 1041.61 101.2H1040.41V86H1024.61V190ZM1146.29 190H1162.09V140.6H1180.89L1211.69 190H1230.49L1193.69 133.2V132L1227.89 86H1209.69L1180.29 126.2H1162.09V40H1146.29V190Z" fill="#091F23"/>
<path d="M301.4 194.6C331 194.6 352.2 172 352.2 140.2C352.2 108.2 332 85.4 302.6 85.4C280.8 85.4 270.2 99.4 267 104.8H265.8V42H250V192H265.2V175.6H266.4C269 179.4 278.8 194.6 301.4 194.6ZM300.4 180.4C278.8 180.4 265.2 162.2 265.2 140.4C265.2 114.6 281.2 99.8 300.8 99.8C321.2 99.8 336 116.6 336 140.4C336 164.6 320.4 180.4 300.4 180.4ZM423.673 194.6C447.673 194.6 464.873 180.8 470.673 161.4L455.273 157.8C451.873 172.2 438.473 180.6 423.873 180.6C402.273 180.6 388.673 167.6 388.473 144.4H472.073V138.6C472.073 107.4 454.073 85.4 422.673 85.4C395.073 85.4 372.273 107.2 372.273 140.4C372.273 172.4 392.073 194.6 423.673 194.6ZM388.873 131.6C390.073 112 405.673 99.6 422.673 99.6C439.873 99.6 454.873 110 455.873 131.6H388.873ZM500 192H515.8V130C515.8 112.8 528.6 100.2 545 100.2C559.6 100.2 571.8 111 571.8 127.6V192H587.6V126.6C587.6 103.6 573 85.4 548.8 85.4C532.6 85.4 521.4 93.8 517 103.2H515.8V88H500V192ZM645.68 69.2C652.48 69.2 657.28 64.2 657.28 57.6C657.28 51.2 652.48 46.2 645.68 46.2C639.08 46.2 634.28 51.2 634.28 57.6C634.28 64.2 639.08 69.2 645.68 69.2ZM606.68 238H622.08C641.08 238 653.68 229.4 653.68 208.4V88H615.28V101.4H637.88V208.2C637.88 219.4 633.28 224 622.28 224H606.68V238ZM712.611 69.2C719.411 69.2 724.211 64.2 724.211 57.6C724.211 51.2 719.411 46.2 712.611 46.2C706.011 46.2 701.211 51.2 701.211 57.6C701.211 64.2 706.011 69.2 712.611 69.2ZM704.811 192H720.611V88H685.211V101.4H704.811V192ZM811.556 194.6C841.156 194.6 862.356 172 862.356 140.2C862.356 108.2 842.156 85.4 812.756 85.4C790.956 85.4 780.356 99.4 777.156 104.8H775.956V42H760.156V192H775.356V175.6H776.556C779.156 179.4 788.956 194.6 811.556 194.6ZM810.556 180.4C788.956 180.4 775.356 162.2 775.356 140.4C775.356 114.6 791.356 99.8 810.956 99.8C831.356 99.8 846.156 116.6 846.156 140.4C846.156 164.6 830.556 180.4 810.556 180.4ZM933.23 194.6C955.83 194.6 965.43 179.8 968.03 175.6H969.23V176.6C969.43 185.6 975.83 192 984.43 192H994.63V178H989.83C986.63 178 984.63 176.4 984.63 173.2V88H968.63V104.8H967.43C964.43 99.4 953.63 85.4 932.03 85.4C902.43 85.4 882.43 108.2 882.43 140.2C882.43 172 903.43 194.6 933.23 194.6ZM934.03 180.4C914.03 180.4 898.63 164.6 898.63 140.4C898.63 116.6 913.43 99.8 933.83 99.8C953.23 99.8 969.23 114.6 969.23 140.4C969.23 162.2 955.83 180.4 934.03 180.4ZM1024.61 192H1040.41V130C1040.41 112.8 1053.21 100.2 1069.61 100.2C1084.21 100.2 1096.41 111 1096.41 127.6V192H1112.21V126.6C1112.21 103.6 1097.61 85.4 1073.41 85.4C1057.21 85.4 1046.01 93.8 1041.61 103.2H1040.41V88H1024.61V192ZM1146.29 192H1162.09V142.6H1180.89L1211.69 192H1230.49L1193.69 135.2V134L1227.89 88H1209.69L1180.29 128.2H1162.09V42H1146.29V192Z" fill="#091F23"/>
<path d="M303.4 196.6C333 196.6 354.2 174 354.2 142.2C354.2 110.2 334 87.4 304.6 87.4C282.8 87.4 272.2 101.4 269 106.8H267.8V44H252V194H267.2V177.6H268.4C271 181.4 280.8 196.6 303.4 196.6ZM302.4 182.4C280.8 182.4 267.2 164.2 267.2 142.4C267.2 116.6 283.2 101.8 302.8 101.8C323.2 101.8 338 118.6 338 142.4C338 166.6 322.4 182.4 302.4 182.4ZM425.673 196.6C449.673 196.6 466.873 182.8 472.673 163.4L457.273 159.8C453.873 174.2 440.473 182.6 425.873 182.6C404.273 182.6 390.673 169.6 390.473 146.4H474.073V140.6C474.073 109.4 456.073 87.4 424.673 87.4C397.073 87.4 374.273 109.2 374.273 142.4C374.273 174.4 394.073 196.6 425.673 196.6ZM390.873 133.6C392.073 114 407.673 101.6 424.673 101.6C441.873 101.6 456.873 112 457.873 133.6H390.873ZM502 194H517.8V132C517.8 114.8 530.6 102.2 547 102.2C561.6 102.2 573.8 113 573.8 129.6V194H589.6V128.6C589.6 105.6 575 87.4 550.8 87.4C534.6 87.4 523.4 95.8 519 105.2H517.8V90H502V194ZM647.68 71.2C654.48 71.2 659.28 66.2 659.28 59.6C659.28 53.2 654.48 48.2 647.68 48.2C641.08 48.2 636.28 53.2 636.28 59.6C636.28 66.2 641.08 71.2 647.68 71.2ZM608.68 240H624.08C643.08 240 655.68 231.4 655.68 210.4V90H617.28V103.4H639.88V210.2C639.88 221.4 635.28 226 624.28 226H608.68V240ZM714.611 71.2C721.411 71.2 726.211 66.2 726.211 59.6C726.211 53.2 721.411 48.2 714.611 48.2C708.011 48.2 703.211 53.2 703.211 59.6C703.211 66.2 708.011 71.2 714.611 71.2ZM706.811 194H722.611V90H687.211V103.4H706.811V194ZM813.556 196.6C843.156 196.6 864.356 174 864.356 142.2C864.356 110.2 844.156 87.4 814.756 87.4C792.956 87.4 782.356 101.4 779.156 106.8H777.956V44H762.156V194H777.356V177.6H778.556C781.156 181.4 790.956 196.6 813.556 196.6ZM812.556 182.4C790.956 182.4 777.356 164.2 777.356 142.4C777.356 116.6 793.356 101.8 812.956 101.8C833.356 101.8 848.156 118.6 848.156 142.4C848.156 166.6 832.556 182.4 812.556 182.4ZM935.23 196.6C957.83 196.6 967.43 181.8 970.03 177.6H971.23V178.6C971.43 187.6 977.83 194 986.43 194H996.63V180H991.83C988.63 180 986.63 178.4 986.63 175.2V90H970.63V106.8H969.43C966.43 101.4 955.63 87.4 934.03 87.4C904.43 87.4 884.43 110.2 884.43 142.2C884.43 174 905.43 196.6 935.23 196.6ZM936.03 182.4C916.03 182.4 900.63 166.6 900.63 142.4C900.63 118.6 915.43 101.8 935.83 101.8C955.23 101.8 971.23 116.6 971.23 142.4C971.23 164.2 957.83 182.4 936.03 182.4ZM1026.61 194H1042.41V132C1042.41 114.8 1055.21 102.2 1071.61 102.2C1086.21 102.2 1098.41 113 1098.41 129.6V194H1114.21V128.6C1114.21 105.6 1099.61 87.4 1075.41 87.4C1059.21 87.4 1048.01 95.8 1043.61 105.2H1042.41V90H1026.61V194ZM1148.29 194H1164.09V144.6H1182.89L1213.69 194H1232.49L1195.69 137.2V136L1229.89 90H1211.69L1182.29 130.2H1164.09V44H1148.29V194Z" fill="#091F23"/>
<path fill-rule="evenodd" clip-rule="evenodd" d="M97.3661 30.4581C86.2111 33.5911 84.9961 34.5091 91.7971 34.6651C104.281 34.9521 107.839 37.5531 140.438 70.2131L169.375 99.2051L177.688 90.7421C188.8 79.4271 189.161 80.8321 170.25 61.7421C143.559 34.7991 135.088 29.8741 114.5 29.3321C106.219 29.1141 100.909 29.4631 97.3661 30.4581ZM77.4771 39.0531C34.4051 44.8241 0.48306 85.2011 0.64806 130.5C0.94206 211.11 96.915 252.653 155.735 197.631C173.027 181.456 186.142 153.219 184.825 135L184.5 130.5L161.569 130.231L138.638 129.962L116.041 152.481C103.613 164.866 93.0031 175 92.4641 175C91.9241 175 81.3651 164.874 68.9971 152.497L46.5111 129.994L69.7531 106.753L92.9941 83.5111L114.755 105.256C141.095 131.575 137.859 130.684 152.777 115.723L164.022 104.447L134.261 74.8911C97.486 38.3701 94.8751 36.7221 77.4771 39.0531Z" fill="#091F23"/>
</svg>
