<svg width="1238" height="246" viewBox="0 0 1238 246" fill="none" xmlns="http://www.w3.org/2000/svg">
<path d="M301.753 194.6C331.353 194.6 352.553 172 352.553 140.2C352.553 108.2 332.353 85.4 302.953 85.4C281.153 85.4 270.553 99.4 267.353 104.8H266.153V42H250.353V192H265.553V175.6H266.753C269.353 179.4 279.153 194.6 301.753 194.6ZM300.753 180.4C279.153 180.4 265.553 162.2 265.553 140.4C265.553 114.6 281.553 99.8 301.153 99.8C321.553 99.8 336.353 116.6 336.353 140.4C336.353 164.6 320.753 180.4 300.753 180.4ZM424.026 194.6C448.026 194.6 465.226 180.8 471.026 161.4L455.626 157.8C452.226 172.2 438.826 180.6 424.226 180.6C402.626 180.6 389.026 167.6 388.826 144.4H472.426V138.6C472.426 107.4 454.426 85.4 423.026 85.4C395.426 85.4 372.626 107.2 372.626 140.4C372.626 172.4 392.426 194.6 424.026 194.6ZM389.226 131.6C390.426 112 406.026 99.6 423.026 99.6C440.226 99.6 455.226 110 456.226 131.6H389.226ZM500.353 192H516.153V130C516.153 112.8 528.953 100.2 545.353 100.2C559.953 100.2 572.153 111 572.153 127.6V192H587.953V126.6C587.953 103.6 573.353 85.4 549.153 85.4C532.953 85.4 521.753 93.8 517.353 103.2H516.153V88H500.353V192ZM646.032 69.2C652.832 69.2 657.632 64.2 657.632 57.6C657.632 51.2 652.832 46.2 646.032 46.2C639.432 46.2 634.632 51.2 634.632 57.6C634.632 64.2 639.432 69.2 646.032 69.2ZM607.032 238H622.432C641.432 238 654.032 229.4 654.032 208.4V88H615.632V101.4H638.232V208.2C638.232 219.4 633.632 224 622.632 224H607.032V238ZM712.963 69.2C719.763 69.2 724.563 64.2 724.563 57.6C724.563 51.2 719.763 46.2 712.963 46.2C706.363 46.2 701.563 51.2 701.563 57.6C701.563 64.2 706.363 69.2 712.963 69.2ZM705.163 192H720.963V88H685.563V101.4H705.163V192ZM811.909 194.6C841.509 194.6 862.709 172 862.709 140.2C862.709 108.2 842.509 85.4 813.109 85.4C791.309 85.4 780.709 99.4 777.509 104.8H776.309V42H760.509V192H775.709V175.6H776.909C779.509 179.4 789.309 194.6 811.909 194.6ZM810.909 180.4C789.309 180.4 775.709 162.2 775.709 140.4C775.709 114.6 791.709 99.8 811.309 99.8C831.709 99.8 846.509 116.6 846.509 140.4C846.509 164.6 830.909 180.4 810.909 180.4ZM933.582 194.6C956.182 194.6 965.782 179.8 968.382 175.6H969.582V176.6C969.782 185.6 976.182 192 984.782 192H994.982V178H990.182C986.982 178 984.982 176.4 984.982 173.2V88H968.982V104.8H967.782C964.782 99.4 953.982 85.4 932.382 85.4C902.782 85.4 882.782 108.2 882.782 140.2C882.782 172 903.782 194.6 933.582 194.6ZM934.382 180.4C914.382 180.4 898.982 164.6 898.982 140.4C898.982 116.6 913.782 99.8 934.182 99.8C953.582 99.8 969.582 114.6 969.582 140.4C969.582 162.2 956.182 180.4 934.382 180.4ZM1024.96 192H1040.76V130C1040.76 112.8 1053.56 100.2 1069.96 100.2C1084.56 100.2 1096.76 111 1096.76 127.6V192H1112.56V126.6C1112.56 103.6 1097.96 85.4 1073.76 85.4C1057.56 85.4 1046.36 93.8 1041.96 103.2H1040.76V88H1024.96V192ZM1146.64 192H1162.44V142.6H1181.24L1212.04 192H1230.84L1194.04 135.2V134L1228.24 88H1210.04L1180.64 128.2H1162.44V42H1146.64V192Z" fill="#E2F3F7"/>
<path d="M301.753 195.6C331.353 195.6 352.553 173 352.553 141.2C352.553 109.2 332.353 86.4 302.953 86.4C281.153 86.4 270.553 100.4 267.353 105.8H266.153V43H250.353V193H265.553V176.6H266.753C269.353 180.4 279.153 195.6 301.753 195.6ZM300.753 181.4C279.153 181.4 265.553 163.2 265.553 141.4C265.553 115.6 281.553 100.8 301.153 100.8C321.553 100.8 336.353 117.6 336.353 141.4C336.353 165.6 320.753 181.4 300.753 181.4ZM424.026 195.6C448.026 195.6 465.226 181.8 471.026 162.4L455.626 158.8C452.226 173.2 438.826 181.6 424.226 181.6C402.626 181.6 389.026 168.6 388.826 145.4H472.426V139.6C472.426 108.4 454.426 86.4 423.026 86.4C395.426 86.4 372.626 108.2 372.626 141.4C372.626 173.4 392.426 195.6 424.026 195.6ZM389.226 132.6C390.426 113 406.026 100.6 423.026 100.6C440.226 100.6 455.226 111 456.226 132.6H389.226ZM500.353 193H516.153V131C516.153 113.8 528.953 101.2 545.353 101.2C559.953 101.2 572.153 112 572.153 128.6V193H587.953V127.6C587.953 104.6 573.353 86.4 549.153 86.4C532.953 86.4 521.753 94.8 517.353 104.2H516.153V89H500.353V193ZM646.032 70.2C652.832 70.2 657.632 65.2 657.632 58.6C657.632 52.2 652.832 47.2 646.032 47.2C639.432 47.2 634.632 52.2 634.632 58.6C634.632 65.2 639.432 70.2 646.032 70.2ZM607.032 239H622.432C641.432 239 654.032 230.4 654.032 209.4V89H615.632V102.4H638.232V209.2C638.232 220.4 633.632 225 622.632 225H607.032V239ZM712.963 70.2C719.763 70.2 724.563 65.2 724.563 58.6C724.563 52.2 719.763 47.2 712.963 47.2C706.363 47.2 701.563 52.2 701.563 58.6C701.563 65.2 706.363 70.2 712.963 70.2ZM705.163 193H720.963V89H685.563V102.4H705.163V193ZM811.909 195.6C841.509 195.6 862.709 173 862.709 141.2C862.709 109.2 842.509 86.4 813.109 86.4C791.309 86.4 780.709 100.4 777.509 105.8H776.309V43H760.509V193H775.709V176.6H776.909C779.509 180.4 789.309 195.6 811.909 195.6ZM810.909 181.4C789.309 181.4 775.709 163.2 775.709 141.4C775.709 115.6 791.709 100.8 811.309 100.8C831.709 100.8 846.509 117.6 846.509 141.4C846.509 165.6 830.909 181.4 810.909 181.4ZM933.582 195.6C956.182 195.6 965.782 180.8 968.382 176.6H969.582V177.6C969.782 186.6 976.182 193 984.782 193H994.982V179H990.182C986.982 179 984.982 177.4 984.982 174.2V89H968.982V105.8H967.782C964.782 100.4 953.982 86.4 932.382 86.4C902.782 86.4 882.782 109.2 882.782 141.2C882.782 173 903.782 195.6 933.582 195.6ZM934.382 181.4C914.382 181.4 898.982 165.6 898.982 141.4C898.982 117.6 913.782 100.8 934.182 100.8C953.582 100.8 969.582 115.6 969.582 141.4C969.582 163.2 956.182 181.4 934.382 181.4ZM1024.96 193H1040.76V131C1040.76 113.8 1053.56 101.2 1069.96 101.2C1084.56 101.2 1096.76 112 1096.76 128.6V193H1112.56V127.6C1112.56 104.6 1097.96 86.4 1073.76 86.4C1057.56 86.4 1046.36 94.8 1041.96 104.2H1040.76V89H1024.96V193ZM1146.64 193H1162.44V143.6H1181.24L1212.04 193H1230.84L1194.04 136.2V135L1228.24 89H1210.04L1180.64 129.2H1162.44V43H1146.64V193Z" fill="#E2F3F7"/>
<path d="M302.753 195.6C332.353 195.6 353.553 173 353.553 141.2C353.553 109.2 333.353 86.4 303.953 86.4C282.153 86.4 271.553 100.4 268.353 105.8H267.153V43H251.353V193H266.553V176.6H267.753C270.353 180.4 280.153 195.6 302.753 195.6ZM301.753 181.4C280.153 181.4 266.553 163.2 266.553 141.4C266.553 115.6 282.553 100.8 302.153 100.8C322.553 100.8 337.353 117.6 337.353 141.4C337.353 165.6 321.753 181.4 301.753 181.4ZM425.026 195.6C449.026 195.6 466.226 181.8 472.026 162.4L456.626 158.8C453.226 173.2 439.826 181.6 425.226 181.6C403.626 181.6 390.026 168.6 389.826 145.4H473.426V139.6C473.426 108.4 455.426 86.4 424.026 86.4C396.426 86.4 373.626 108.2 373.626 141.4C373.626 173.4 393.426 195.6 425.026 195.6ZM390.226 132.6C391.426 113 407.026 100.6 424.026 100.6C441.226 100.6 456.226 111 457.226 132.6H390.226ZM501.353 193H517.153V131C517.153 113.8 529.953 101.2 546.353 101.2C560.953 101.2 573.153 112 573.153 128.6V193H588.953V127.6C588.953 104.6 574.353 86.4 550.153 86.4C533.953 86.4 522.753 94.8 518.353 104.2H517.153V89H501.353V193ZM647.032 70.2C653.832 70.2 658.632 65.2 658.632 58.6C658.632 52.2 653.832 47.2 647.032 47.2C640.432 47.2 635.632 52.2 635.632 58.6C635.632 65.2 640.432 70.2 647.032 70.2ZM608.032 239H623.432C642.432 239 655.032 230.4 655.032 209.4V89H616.632V102.4H639.232V209.2C639.232 220.4 634.632 225 623.632 225H608.032V239ZM713.963 70.2C720.763 70.2 725.563 65.2 725.563 58.6C725.563 52.2 720.763 47.2 713.963 47.2C707.363 47.2 702.563 52.2 702.563 58.6C702.563 65.2 707.363 70.2 713.963 70.2ZM706.163 193H721.963V89H686.563V102.4H706.163V193ZM812.909 195.6C842.509 195.6 863.709 173 863.709 141.2C863.709 109.2 843.509 86.4 814.109 86.4C792.309 86.4 781.709 100.4 778.509 105.8H777.309V43H761.509V193H776.709V176.6H777.909C780.509 180.4 790.309 195.6 812.909 195.6ZM811.909 181.4C790.309 181.4 776.709 163.2 776.709 141.4C776.709 115.6 792.709 100.8 812.309 100.8C832.709 100.8 847.509 117.6 847.509 141.4C847.509 165.6 831.909 181.4 811.909 181.4ZM934.582 195.6C957.182 195.6 966.782 180.8 969.382 176.6H970.582V177.6C970.782 186.6 977.182 193 985.782 193H995.982V179H991.182C987.982 179 985.982 177.4 985.982 174.2V89H969.982V105.8H968.782C965.782 100.4 954.982 86.4 933.382 86.4C903.782 86.4 883.782 109.2 883.782 141.2C883.782 173 904.782 195.6 934.582 195.6ZM935.382 181.4C915.382 181.4 899.982 165.6 899.982 141.4C899.982 117.6 914.782 100.8 935.182 100.8C954.582 100.8 970.582 115.6 970.582 141.4C970.582 163.2 957.182 181.4 935.382 181.4ZM1025.96 193H1041.76V131C1041.76 113.8 1054.56 101.2 1070.96 101.2C1085.56 101.2 1097.76 112 1097.76 128.6V193H1113.56V127.6C1113.56 104.6 1098.96 86.4 1074.76 86.4C1058.56 86.4 1047.36 94.8 1042.96 104.2H1041.76V89H1025.96V193ZM1147.64 193H1163.44V143.6H1182.24L1213.04 193H1231.84L1195.04 136.2V135L1229.24 89H1211.04L1181.64 129.2H1163.44V43H1147.64V193Z" fill="#E2F3F7"/>
<path d="M302.753 194.6C332.353 194.6 353.553 172 353.553 140.2C353.553 108.2 333.353 85.4 303.953 85.4C282.153 85.4 271.553 99.4 268.353 104.8H267.153V42H251.353V192H266.553V175.6H267.753C270.353 179.4 280.153 194.6 302.753 194.6ZM301.753 180.4C280.153 180.4 266.553 162.2 266.553 140.4C266.553 114.6 282.553 99.8 302.153 99.8C322.553 99.8 337.353 116.6 337.353 140.4C337.353 164.6 321.753 180.4 301.753 180.4ZM425.026 194.6C449.026 194.6 466.226 180.8 472.026 161.4L456.626 157.8C453.226 172.2 439.826 180.6 425.226 180.6C403.626 180.6 390.026 167.6 389.826 144.4H473.426V138.6C473.426 107.4 455.426 85.4 424.026 85.4C396.426 85.4 373.626 107.2 373.626 140.4C373.626 172.4 393.426 194.6 425.026 194.6ZM390.226 131.6C391.426 112 407.026 99.6 424.026 99.6C441.226 99.6 456.226 110 457.226 131.6H390.226ZM501.353 192H517.153V130C517.153 112.8 529.953 100.2 546.353 100.2C560.953 100.2 573.153 111 573.153 127.6V192H588.953V126.6C588.953 103.6 574.353 85.4 550.153 85.4C533.953 85.4 522.753 93.8 518.353 103.2H517.153V88H501.353V192ZM647.032 69.2C653.832 69.2 658.632 64.2 658.632 57.6C658.632 51.2 653.832 46.2 647.032 46.2C640.432 46.2 635.632 51.2 635.632 57.6C635.632 64.2 640.432 69.2 647.032 69.2ZM608.032 238H623.432C642.432 238 655.032 229.4 655.032 208.4V88H616.632V101.4H639.232V208.2C639.232 219.4 634.632 224 623.632 224H608.032V238ZM713.963 69.2C720.763 69.2 725.563 64.2 725.563 57.6C725.563 51.2 720.763 46.2 713.963 46.2C707.363 46.2 702.563 51.2 702.563 57.6C702.563 64.2 707.363 69.2 713.963 69.2ZM706.163 192H721.963V88H686.563V101.4H706.163V192ZM812.909 194.6C842.509 194.6 863.709 172 863.709 140.2C863.709 108.2 843.509 85.4 814.109 85.4C792.309 85.4 781.709 99.4 778.509 104.8H777.309V42H761.509V192H776.709V175.6H777.909C780.509 179.4 790.309 194.6 812.909 194.6ZM811.909 180.4C790.309 180.4 776.709 162.2 776.709 140.4C776.709 114.6 792.709 99.8 812.309 99.8C832.709 99.8 847.509 116.6 847.509 140.4C847.509 164.6 831.909 180.4 811.909 180.4ZM934.582 194.6C957.182 194.6 966.782 179.8 969.382 175.6H970.582V176.6C970.782 185.6 977.182 192 985.782 192H995.982V178H991.182C987.982 178 985.982 176.4 985.982 173.2V88H969.982V104.8H968.782C965.782 99.4 954.982 85.4 933.382 85.4C903.782 85.4 883.782 108.2 883.782 140.2C883.782 172 904.782 194.6 934.582 194.6ZM935.382 180.4C915.382 180.4 899.982 164.6 899.982 140.4C899.982 116.6 914.782 99.8 935.182 99.8C954.582 99.8 970.582 114.6 970.582 140.4C970.582 162.2 957.182 180.4 935.382 180.4ZM1025.96 192H1041.76V130C1041.76 112.8 1054.56 100.2 1070.96 100.2C1085.56 100.2 1097.76 111 1097.76 127.6V192H1113.56V126.6C1113.56 103.6 1098.96 85.4 1074.76 85.4C1058.56 85.4 1047.36 93.8 1042.96 103.2H1041.76V88H1025.96V192ZM1147.64 192H1163.44V142.6H1182.24L1213.04 192H1231.84L1195.04 135.2V134L1229.24 88H1211.04L1181.64 128.2H1163.44V42H1147.64V192Z" fill="#E2F3F7"/>
<path d="M301.753 194.6C331.353 194.6 352.553 172 352.553 140.2C352.553 108.2 332.353 85.4 302.953 85.4C281.153 85.4 270.553 99.4 267.353 104.8H266.153V42H250.353V192H265.553V175.6H266.753C269.353 179.4 279.153 194.6 301.753 194.6ZM300.753 180.4C279.153 180.4 265.553 162.2 265.553 140.4C265.553 114.6 281.553 99.8 301.153 99.8C321.553 99.8 336.353 116.6 336.353 140.4C336.353 164.6 320.753 180.4 300.753 180.4ZM424.026 194.6C448.026 194.6 465.226 180.8 471.026 161.4L455.626 157.8C452.226 172.2 438.826 180.6 424.226 180.6C402.626 180.6 389.026 167.6 388.826 144.4H472.426V138.6C472.426 107.4 454.426 85.4 423.026 85.4C395.426 85.4 372.626 107.2 372.626 140.4C372.626 172.4 392.426 194.6 424.026 194.6ZM389.226 131.6C390.426 112 406.026 99.6 423.026 99.6C440.226 99.6 455.226 110 456.226 131.6H389.226ZM500.353 192H516.153V130C516.153 112.8 528.953 100.2 545.353 100.2C559.953 100.2 572.153 111 572.153 127.6V192H587.953V126.6C587.953 103.6 573.353 85.4 549.153 85.4C532.953 85.4 521.753 93.8 517.353 103.2H516.153V88H500.353V192ZM646.032 69.2C652.832 69.2 657.632 64.2 657.632 57.6C657.632 51.2 652.832 46.2 646.032 46.2C639.432 46.2 634.632 51.2 634.632 57.6C634.632 64.2 639.432 69.2 646.032 69.2ZM607.032 238H622.432C641.432 238 654.032 229.4 654.032 208.4V88H615.632V101.4H638.232V208.2C638.232 219.4 633.632 224 622.632 224H607.032V238ZM712.963 69.2C719.763 69.2 724.563 64.2 724.563 57.6C724.563 51.2 719.763 46.2 712.963 46.2C706.363 46.2 701.563 51.2 701.563 57.6C701.563 64.2 706.363 69.2 712.963 69.2ZM705.163 192H720.963V88H685.563V101.4H705.163V192ZM811.909 194.6C841.509 194.6 862.709 172 862.709 140.2C862.709 108.2 842.509 85.4 813.109 85.4C791.309 85.4 780.709 99.4 777.509 104.8H776.309V42H760.509V192H775.709V175.6H776.909C779.509 179.4 789.309 194.6 811.909 194.6ZM810.909 180.4C789.309 180.4 775.709 162.2 775.709 140.4C775.709 114.6 791.709 99.8 811.309 99.8C831.709 99.8 846.509 116.6 846.509 140.4C846.509 164.6 830.909 180.4 810.909 180.4ZM933.582 194.6C956.182 194.6 965.782 179.8 968.382 175.6H969.582V176.6C969.782 185.6 976.182 192 984.782 192H994.982V178H990.182C986.982 178 984.982 176.4 984.982 173.2V88H968.982V104.8H967.782C964.782 99.4 953.982 85.4 932.382 85.4C902.782 85.4 882.782 108.2 882.782 140.2C882.782 172 903.782 194.6 933.582 194.6ZM934.382 180.4C914.382 180.4 898.982 164.6 898.982 140.4C898.982 116.6 913.782 99.8 934.182 99.8C953.582 99.8 969.582 114.6 969.582 140.4C969.582 162.2 956.182 180.4 934.382 180.4ZM1024.96 192H1040.76V130C1040.76 112.8 1053.56 100.2 1069.96 100.2C1084.56 100.2 1096.76 111 1096.76 127.6V192H1112.56V126.6C1112.56 103.6 1097.96 85.4 1073.76 85.4C1057.56 85.4 1046.36 93.8 1041.96 103.2H1040.76V88H1024.96V192ZM1146.64 192H1162.44V142.6H1181.24L1212.04 192H1230.84L1194.04 135.2V134L1228.24 88H1210.04L1180.64 128.2H1162.44V42H1146.64V192Z" fill="#E2F3F7"/>
<path d="M299.753 194.6C329.353 194.6 350.553 172 350.553 140.2C350.553 108.2 330.353 85.4 300.953 85.4C279.153 85.4 268.553 99.4 265.353 104.8H264.153V42H248.353V192H263.553V175.6H264.753C267.353 179.4 277.153 194.6 299.753 194.6ZM298.753 180.4C277.153 180.4 263.553 162.2 263.553 140.4C263.553 114.6 279.553 99.8 299.153 99.8C319.553 99.8 334.353 116.6 334.353 140.4C334.353 164.6 318.753 180.4 298.753 180.4ZM422.026 194.6C446.026 194.6 463.226 180.8 469.026 161.4L453.626 157.8C450.226 172.2 436.826 180.6 422.226 180.6C400.626 180.6 387.026 167.6 386.826 144.4H470.426V138.6C470.426 107.4 452.426 85.4 421.026 85.4C393.426 85.4 370.626 107.2 370.626 140.4C370.626 172.4 390.426 194.6 422.026 194.6ZM387.226 131.6C388.426 112 404.026 99.6 421.026 99.6C438.226 99.6 453.226 110 454.226 131.6H387.226ZM498.353 192H514.153V130C514.153 112.8 526.953 100.2 543.353 100.2C557.953 100.2 570.153 111 570.153 127.6V192H585.953V126.6C585.953 103.6 571.353 85.4 547.153 85.4C530.953 85.4 519.753 93.8 515.353 103.2H514.153V88H498.353V192ZM644.032 69.2C650.832 69.2 655.632 64.2 655.632 57.6C655.632 51.2 650.832 46.2 644.032 46.2C637.432 46.2 632.632 51.2 632.632 57.6C632.632 64.2 637.432 69.2 644.032 69.2ZM605.032 238H620.432C639.432 238 652.032 229.4 652.032 208.4V88H613.632V101.4H636.232V208.2C636.232 219.4 631.632 224 620.632 224H605.032V238ZM710.963 69.2C717.763 69.2 722.563 64.2 722.563 57.6C722.563 51.2 717.763 46.2 710.963 46.2C704.363 46.2 699.563 51.2 699.563 57.6C699.563 64.2 704.363 69.2 710.963 69.2ZM703.163 192H718.963V88H683.563V101.4H703.163V192ZM809.909 194.6C839.509 194.6 860.709 172 860.709 140.2C860.709 108.2 840.509 85.4 811.109 85.4C789.309 85.4 778.709 99.4 775.509 104.8H774.309V42H758.509V192H773.709V175.6H774.909C777.509 179.4 787.309 194.6 809.909 194.6ZM808.909 180.4C787.309 180.4 773.709 162.2 773.709 140.4C773.709 114.6 789.709 99.8 809.309 99.8C829.709 99.8 844.509 116.6 844.509 140.4C844.509 164.6 828.909 180.4 808.909 180.4ZM931.582 194.6C954.182 194.6 963.782 179.8 966.382 175.6H967.582V176.6C967.782 185.6 974.182 192 982.782 192H992.982V178H988.182C984.982 178 982.982 176.4 982.982 173.2V88H966.982V104.8H965.782C962.782 99.4 951.982 85.4 930.382 85.4C900.782 85.4 880.782 108.2 880.782 140.2C880.782 172 901.782 194.6 931.582 194.6ZM932.382 180.4C912.382 180.4 896.982 164.6 896.982 140.4C896.982 116.6 911.782 99.8 932.182 99.8C951.582 99.8 967.582 114.6 967.582 140.4C967.582 162.2 954.182 180.4 932.382 180.4ZM1022.96 192H1038.76V130C1038.76 112.8 1051.56 100.2 1067.96 100.2C1082.56 100.2 1094.76 111 1094.76 127.6V192H1110.56V126.6C1110.56 103.6 1095.96 85.4 1071.76 85.4C1055.56 85.4 1044.36 93.8 1039.96 103.2H1038.76V88H1022.96V192ZM1144.64 192H1160.44V142.6H1179.24L1210.04 192H1228.84L1192.04 135.2V134L1226.24 88H1208.04L1178.64 128.2H1160.44V42H1144.64V192Z" fill="#E2F3F7"/>
<path d="M299.753 196.6C329.353 196.6 350.553 174 350.553 142.2C350.553 110.2 330.353 87.4 300.953 87.4C279.153 87.4 268.553 101.4 265.353 106.8H264.153V44H248.353V194H263.553V177.6H264.753C267.353 181.4 277.153 196.6 299.753 196.6ZM298.753 182.4C277.153 182.4 263.553 164.2 263.553 142.4C263.553 116.6 279.553 101.8 299.153 101.8C319.553 101.8 334.353 118.6 334.353 142.4C334.353 166.6 318.753 182.4 298.753 182.4ZM422.026 196.6C446.026 196.6 463.226 182.8 469.026 163.4L453.626 159.8C450.226 174.2 436.826 182.6 422.226 182.6C400.626 182.6 387.026 169.6 386.826 146.4H470.426V140.6C470.426 109.4 452.426 87.4 421.026 87.4C393.426 87.4 370.626 109.2 370.626 142.4C370.626 174.4 390.426 196.6 422.026 196.6ZM387.226 133.6C388.426 114 404.026 101.6 421.026 101.6C438.226 101.6 453.226 112 454.226 133.6H387.226ZM498.353 194H514.153V132C514.153 114.8 526.953 102.2 543.353 102.2C557.953 102.2 570.153 113 570.153 129.6V194H585.953V128.6C585.953 105.6 571.353 87.4 547.153 87.4C530.953 87.4 519.753 95.8 515.353 105.2H514.153V90H498.353V194ZM644.032 71.2C650.832 71.2 655.632 66.2 655.632 59.6C655.632 53.2 650.832 48.2 644.032 48.2C637.432 48.2 632.632 53.2 632.632 59.6C632.632 66.2 637.432 71.2 644.032 71.2ZM605.032 240H620.432C639.432 240 652.032 231.4 652.032 210.4V90H613.632V103.4H636.232V210.2C636.232 221.4 631.632 226 620.632 226H605.032V240ZM710.963 71.2C717.763 71.2 722.563 66.2 722.563 59.6C722.563 53.2 717.763 48.2 710.963 48.2C704.363 48.2 699.563 53.2 699.563 59.6C699.563 66.2 704.363 71.2 710.963 71.2ZM703.163 194H718.963V90H683.563V103.4H703.163V194ZM809.909 196.6C839.509 196.6 860.709 174 860.709 142.2C860.709 110.2 840.509 87.4 811.109 87.4C789.309 87.4 778.709 101.4 775.509 106.8H774.309V44H758.509V194H773.709V177.6H774.909C777.509 181.4 787.309 196.6 809.909 196.6ZM808.909 182.4C787.309 182.4 773.709 164.2 773.709 142.4C773.709 116.6 789.709 101.8 809.309 101.8C829.709 101.8 844.509 118.6 844.509 142.4C844.509 166.6 828.909 182.4 808.909 182.4ZM931.582 196.6C954.182 196.6 963.782 181.8 966.382 177.6H967.582V178.6C967.782 187.6 974.182 194 982.782 194H992.982V180H988.182C984.982 180 982.982 178.4 982.982 175.2V90H966.982V106.8H965.782C962.782 101.4 951.982 87.4 930.382 87.4C900.782 87.4 880.782 110.2 880.782 142.2C880.782 174 901.782 196.6 931.582 196.6ZM932.382 182.4C912.382 182.4 896.982 166.6 896.982 142.4C896.982 118.6 911.782 101.8 932.182 101.8C951.582 101.8 967.582 116.6 967.582 142.4C967.582 164.2 954.182 182.4 932.382 182.4ZM1022.96 194H1038.76V132C1038.76 114.8 1051.56 102.2 1067.96 102.2C1082.56 102.2 1094.76 113 1094.76 129.6V194H1110.56V128.6C1110.56 105.6 1095.96 87.4 1071.76 87.4C1055.56 87.4 1044.36 95.8 1039.96 105.2H1038.76V90H1022.96V194ZM1144.64 194H1160.44V144.6H1179.24L1210.04 194H1228.84L1192.04 137.2V136L1226.24 90H1208.04L1178.64 130.2H1160.44V44H1144.64V194Z" fill="#E2F3F7"/>
<path d="M301.753 198.6C331.353 198.6 352.553 176 352.553 144.2C352.553 112.2 332.353 89.4 302.953 89.4C281.153 89.4 270.553 103.4 267.353 108.8H266.153V46H250.353V196H265.553V179.6H266.753C269.353 183.4 279.153 198.6 301.753 198.6ZM300.753 184.4C279.153 184.4 265.553 166.2 265.553 144.4C265.553 118.6 281.553 103.8 301.153 103.8C321.553 103.8 336.353 120.6 336.353 144.4C336.353 168.6 320.753 184.4 300.753 184.4ZM424.026 198.6C448.026 198.6 465.226 184.8 471.026 165.4L455.626 161.8C452.226 176.2 438.826 184.6 424.226 184.6C402.626 184.6 389.026 171.6 388.826 148.4H472.426V142.6C472.426 111.4 454.426 89.4 423.026 89.4C395.426 89.4 372.626 111.2 372.626 144.4C372.626 176.4 392.426 198.6 424.026 198.6ZM389.226 135.6C390.426 116 406.026 103.6 423.026 103.6C440.226 103.6 455.226 114 456.226 135.6H389.226ZM500.353 196H516.153V134C516.153 116.8 528.953 104.2 545.353 104.2C559.953 104.2 572.153 115 572.153 131.6V196H587.953V130.6C587.953 107.6 573.353 89.4 549.153 89.4C532.953 89.4 521.753 97.8 517.353 107.2H516.153V92H500.353V196ZM646.032 73.2C652.832 73.2 657.632 68.2 657.632 61.6C657.632 55.2 652.832 50.2 646.032 50.2C639.432 50.2 634.632 55.2 634.632 61.6C634.632 68.2 639.432 73.2 646.032 73.2ZM607.032 242H622.432C641.432 242 654.032 233.4 654.032 212.4V92H615.632V105.4H638.232V212.2C638.232 223.4 633.632 228 622.632 228H607.032V242ZM712.963 73.2C719.763 73.2 724.563 68.2 724.563 61.6C724.563 55.2 719.763 50.2 712.963 50.2C706.363 50.2 701.563 55.2 701.563 61.6C701.563 68.2 706.363 73.2 712.963 73.2ZM705.163 196H720.963V92H685.563V105.4H705.163V196ZM811.909 198.6C841.509 198.6 862.709 176 862.709 144.2C862.709 112.2 842.509 89.4 813.109 89.4C791.309 89.4 780.709 103.4 777.509 108.8H776.309V46H760.509V196H775.709V179.6H776.909C779.509 183.4 789.309 198.6 811.909 198.6ZM810.909 184.4C789.309 184.4 775.709 166.2 775.709 144.4C775.709 118.6 791.709 103.8 811.309 103.8C831.709 103.8 846.509 120.6 846.509 144.4C846.509 168.6 830.909 184.4 810.909 184.4ZM933.582 198.6C956.182 198.6 965.782 183.8 968.382 179.6H969.582V180.6C969.782 189.6 976.182 196 984.782 196H994.982V182H990.182C986.982 182 984.982 180.4 984.982 177.2V92H968.982V108.8H967.782C964.782 103.4 953.982 89.4 932.382 89.4C902.782 89.4 882.782 112.2 882.782 144.2C882.782 176 903.782 198.6 933.582 198.6ZM934.382 184.4C914.382 184.4 898.982 168.6 898.982 144.4C898.982 120.6 913.782 103.8 934.182 103.8C953.582 103.8 969.582 118.6 969.582 144.4C969.582 166.2 956.182 184.4 934.382 184.4ZM1024.96 196H1040.76V134C1040.76 116.8 1053.56 104.2 1069.96 104.2C1084.56 104.2 1096.76 115 1096.76 131.6V196H1112.56V130.6C1112.56 107.6 1097.96 89.4 1073.76 89.4C1057.56 89.4 1046.36 97.8 1041.96 107.2H1040.76V92H1024.96V196ZM1146.64 196H1162.44V146.6H1181.24L1212.04 196H1230.84L1194.04 139.2V138L1228.24 92H1210.04L1180.64 132.2H1162.44V46H1146.64V196Z" fill="#E2F3F7"/>
<path d="M302.753 192.6C332.353 192.6 353.553 170 353.553 138.2C353.553 106.2 333.353 83.4 303.953 83.4C282.153 83.4 271.553 97.4 268.353 102.8H267.153V40H251.353V190H266.553V173.6H267.753C270.353 177.4 280.153 192.6 302.753 192.6ZM301.753 178.4C280.153 178.4 266.553 160.2 266.553 138.4C266.553 112.6 282.553 97.8 302.153 97.8C322.553 97.8 337.353 114.6 337.353 138.4C337.353 162.6 321.753 178.4 301.753 178.4ZM425.026 192.6C449.026 192.6 466.226 178.8 472.026 159.4L456.626 155.8C453.226 170.2 439.826 178.6 425.226 178.6C403.626 178.6 390.026 165.6 389.826 142.4H473.426V136.6C473.426 105.4 455.426 83.4 424.026 83.4C396.426 83.4 373.626 105.2 373.626 138.4C373.626 170.4 393.426 192.6 425.026 192.6ZM390.226 129.6C391.426 110 407.026 97.6 424.026 97.6C441.226 97.6 456.226 108 457.226 129.6H390.226ZM501.353 190H517.153V128C517.153 110.8 529.953 98.2 546.353 98.2C560.953 98.2 573.153 109 573.153 125.6V190H588.953V124.6C588.953 101.6 574.353 83.4 550.153 83.4C533.953 83.4 522.753 91.8 518.353 101.2H517.153V86H501.353V190ZM647.032 67.2C653.832 67.2 658.632 62.2 658.632 55.6C658.632 49.2 653.832 44.2 647.032 44.2C640.432 44.2 635.632 49.2 635.632 55.6C635.632 62.2 640.432 67.2 647.032 67.2ZM608.032 236H623.432C642.432 236 655.032 227.4 655.032 206.4V86H616.632V99.4H639.232V206.2C639.232 217.4 634.632 222 623.632 222H608.032V236ZM713.963 67.2C720.763 67.2 725.563 62.2 725.563 55.6C725.563 49.2 720.763 44.2 713.963 44.2C707.363 44.2 702.563 49.2 702.563 55.6C702.563 62.2 707.363 67.2 713.963 67.2ZM706.163 190H721.963V86H686.563V99.4H706.163V190ZM812.909 192.6C842.509 192.6 863.709 170 863.709 138.2C863.709 106.2 843.509 83.4 814.109 83.4C792.309 83.4 781.709 97.4 778.509 102.8H777.309V40H761.509V190H776.709V173.6H777.909C780.509 177.4 790.309 192.6 812.909 192.6ZM811.909 178.4C790.309 178.4 776.709 160.2 776.709 138.4C776.709 112.6 792.709 97.8 812.309 97.8C832.709 97.8 847.509 114.6 847.509 138.4C847.509 162.6 831.909 178.4 811.909 178.4ZM934.582 192.6C957.182 192.6 966.782 177.8 969.382 173.6H970.582V174.6C970.782 183.6 977.182 190 985.782 190H995.982V176H991.182C987.982 176 985.982 174.4 985.982 171.2V86H969.982V102.8H968.782C965.782 97.4 954.982 83.4 933.382 83.4C903.782 83.4 883.782 106.2 883.782 138.2C883.782 170 904.782 192.6 934.582 192.6ZM935.382 178.4C915.382 178.4 899.982 162.6 899.982 138.4C899.982 114.6 914.782 97.8 935.182 97.8C954.582 97.8 970.582 112.6 970.582 138.4C970.582 160.2 957.182 178.4 935.382 178.4ZM1025.96 190H1041.76V128C1041.76 110.8 1054.56 98.2 1070.96 98.2C1085.56 98.2 1097.76 109 1097.76 125.6V190H1113.56V124.6C1113.56 101.6 1098.96 83.4 1074.76 83.4C1058.56 83.4 1047.36 91.8 1042.96 101.2H1041.76V86H1025.96V190ZM1147.64 190H1163.44V140.6H1182.24L1213.04 190H1231.84L1195.04 133.2V132L1229.24 86H1211.04L1181.64 126.2H1163.44V40H1147.64V190Z" fill="#E2F3F7"/>
<path d="M302.753 193.6C332.353 193.6 353.553 171 353.553 139.2C353.553 107.2 333.353 84.4 303.953 84.4C282.153 84.4 271.553 98.4 268.353 103.8H267.153V41H251.353V191H266.553V174.6H267.753C270.353 178.4 280.153 193.6 302.753 193.6ZM301.753 179.4C280.153 179.4 266.553 161.2 266.553 139.4C266.553 113.6 282.553 98.8 302.153 98.8C322.553 98.8 337.353 115.6 337.353 139.4C337.353 163.6 321.753 179.4 301.753 179.4ZM425.026 193.6C449.026 193.6 466.226 179.8 472.026 160.4L456.626 156.8C453.226 171.2 439.826 179.6 425.226 179.6C403.626 179.6 390.026 166.6 389.826 143.4H473.426V137.6C473.426 106.4 455.426 84.4 424.026 84.4C396.426 84.4 373.626 106.2 373.626 139.4C373.626 171.4 393.426 193.6 425.026 193.6ZM390.226 130.6C391.426 111 407.026 98.6 424.026 98.6C441.226 98.6 456.226 109 457.226 130.6H390.226ZM501.353 191H517.153V129C517.153 111.8 529.953 99.2 546.353 99.2C560.953 99.2 573.153 110 573.153 126.6V191H588.953V125.6C588.953 102.6 574.353 84.4 550.153 84.4C533.953 84.4 522.753 92.8 518.353 102.2H517.153V87H501.353V191ZM647.032 68.2C653.832 68.2 658.632 63.2 658.632 56.6C658.632 50.2 653.832 45.2 647.032 45.2C640.432 45.2 635.632 50.2 635.632 56.6C635.632 63.2 640.432 68.2 647.032 68.2ZM608.032 237H623.432C642.432 237 655.032 228.4 655.032 207.4V87H616.632V100.4H639.232V207.2C639.232 218.4 634.632 223 623.632 223H608.032V237ZM713.963 68.2C720.763 68.2 725.563 63.2 725.563 56.6C725.563 50.2 720.763 45.2 713.963 45.2C707.363 45.2 702.563 50.2 702.563 56.6C702.563 63.2 707.363 68.2 713.963 68.2ZM706.163 191H721.963V87H686.563V100.4H706.163V191ZM812.909 193.6C842.509 193.6 863.709 171 863.709 139.2C863.709 107.2 843.509 84.4 814.109 84.4C792.309 84.4 781.709 98.4 778.509 103.8H777.309V41H761.509V191H776.709V174.6H777.909C780.509 178.4 790.309 193.6 812.909 193.6ZM811.909 179.4C790.309 179.4 776.709 161.2 776.709 139.4C776.709 113.6 792.709 98.8 812.309 98.8C832.709 98.8 847.509 115.6 847.509 139.4C847.509 163.6 831.909 179.4 811.909 179.4ZM934.582 193.6C957.182 193.6 966.782 178.8 969.382 174.6H970.582V175.6C970.782 184.6 977.182 191 985.782 191H995.982V177H991.182C987.982 177 985.982 175.4 985.982 172.2V87H969.982V103.8H968.782C965.782 98.4 954.982 84.4 933.382 84.4C903.782 84.4 883.782 107.2 883.782 139.2C883.782 171 904.782 193.6 934.582 193.6ZM935.382 179.4C915.382 179.4 899.982 163.6 899.982 139.4C899.982 115.6 914.782 98.8 935.182 98.8C954.582 98.8 970.582 113.6 970.582 139.4C970.582 161.2 957.182 179.4 935.382 179.4ZM1025.96 191H1041.76V129C1041.76 111.8 1054.56 99.2 1070.96 99.2C1085.56 99.2 1097.76 110 1097.76 126.6V191H1113.56V125.6C1113.56 102.6 1098.96 84.4 1074.76 84.4C1058.56 84.4 1047.36 92.8 1042.96 102.2H1041.76V87H1025.96V191ZM1147.64 191H1163.44V141.6H1182.24L1213.04 191H1231.84L1195.04 134.2V133L1229.24 87H1211.04L1181.64 127.2H1163.44V41H1147.64V191Z" fill="#E2F3F7"/>
<path d="M303.753 193.6C333.353 193.6 354.553 171 354.553 139.2C354.553 107.2 334.353 84.4 304.953 84.4C283.153 84.4 272.553 98.4 269.353 103.8H268.153V41H252.353V191H267.553V174.6H268.753C271.353 178.4 281.153 193.6 303.753 193.6ZM302.753 179.4C281.153 179.4 267.553 161.2 267.553 139.4C267.553 113.6 283.553 98.8 303.153 98.8C323.553 98.8 338.353 115.6 338.353 139.4C338.353 163.6 322.753 179.4 302.753 179.4ZM426.026 193.6C450.026 193.6 467.226 179.8 473.026 160.4L457.626 156.8C454.226 171.2 440.826 179.6 426.226 179.6C404.626 179.6 391.026 166.6 390.826 143.4H474.426V137.6C474.426 106.4 456.426 84.4 425.026 84.4C397.426 84.4 374.626 106.2 374.626 139.4C374.626 171.4 394.426 193.6 426.026 193.6ZM391.226 130.6C392.426 111 408.026 98.6 425.026 98.6C442.226 98.6 457.226 109 458.226 130.6H391.226ZM502.353 191H518.153V129C518.153 111.8 530.953 99.2 547.353 99.2C561.953 99.2 574.153 110 574.153 126.6V191H589.953V125.6C589.953 102.6 575.353 84.4 551.153 84.4C534.953 84.4 523.753 92.8 519.353 102.2H518.153V87H502.353V191ZM648.032 68.2C654.832 68.2 659.632 63.2 659.632 56.6C659.632 50.2 654.832 45.2 648.032 45.2C641.432 45.2 636.632 50.2 636.632 56.6C636.632 63.2 641.432 68.2 648.032 68.2ZM609.032 237H624.432C643.432 237 656.032 228.4 656.032 207.4V87H617.632V100.4H640.232V207.2C640.232 218.4 635.632 223 624.632 223H609.032V237ZM714.963 68.2C721.763 68.2 726.563 63.2 726.563 56.6C726.563 50.2 721.763 45.2 714.963 45.2C708.363 45.2 703.563 50.2 703.563 56.6C703.563 63.2 708.363 68.2 714.963 68.2ZM707.163 191H722.963V87H687.563V100.4H707.163V191ZM813.909 193.6C843.509 193.6 864.709 171 864.709 139.2C864.709 107.2 844.509 84.4 815.109 84.4C793.309 84.4 782.709 98.4 779.509 103.8H778.309V41H762.509V191H777.709V174.6H778.909C781.509 178.4 791.309 193.6 813.909 193.6ZM812.909 179.4C791.309 179.4 777.709 161.2 777.709 139.4C777.709 113.6 793.709 98.8 813.309 98.8C833.709 98.8 848.509 115.6 848.509 139.4C848.509 163.6 832.909 179.4 812.909 179.4ZM935.582 193.6C958.182 193.6 967.782 178.8 970.382 174.6H971.582V175.6C971.782 184.6 978.182 191 986.782 191H996.982V177H992.182C988.982 177 986.982 175.4 986.982 172.2V87H970.982V103.8H969.782C966.782 98.4 955.982 84.4 934.382 84.4C904.782 84.4 884.782 107.2 884.782 139.2C884.782 171 905.782 193.6 935.582 193.6ZM936.382 179.4C916.382 179.4 900.982 163.6 900.982 139.4C900.982 115.6 915.782 98.8 936.182 98.8C955.582 98.8 971.582 113.6 971.582 139.4C971.582 161.2 958.182 179.4 936.382 179.4ZM1026.96 191H1042.76V129C1042.76 111.8 1055.56 99.2 1071.96 99.2C1086.56 99.2 1098.76 110 1098.76 126.6V191H1114.56V125.6C1114.56 102.6 1099.96 84.4 1075.76 84.4C1059.56 84.4 1048.36 92.8 1043.96 102.2H1042.76V87H1026.96V191ZM1148.64 191H1164.44V141.6H1183.24L1214.04 191H1232.84L1196.04 134.2V133L1230.24 87H1212.04L1182.64 127.2H1164.44V41H1148.64V191Z" fill="#E2F3F7"/>
<path d="M303.753 192.6C333.353 192.6 354.553 170 354.553 138.2C354.553 106.2 334.353 83.4 304.953 83.4C283.153 83.4 272.553 97.4 269.353 102.8H268.153V40H252.353V190H267.553V173.6H268.753C271.353 177.4 281.153 192.6 303.753 192.6ZM302.753 178.4C281.153 178.4 267.553 160.2 267.553 138.4C267.553 112.6 283.553 97.8 303.153 97.8C323.553 97.8 338.353 114.6 338.353 138.4C338.353 162.6 322.753 178.4 302.753 178.4ZM426.026 192.6C450.026 192.6 467.226 178.8 473.026 159.4L457.626 155.8C454.226 170.2 440.826 178.6 426.226 178.6C404.626 178.6 391.026 165.6 390.826 142.4H474.426V136.6C474.426 105.4 456.426 83.4 425.026 83.4C397.426 83.4 374.626 105.2 374.626 138.4C374.626 170.4 394.426 192.6 426.026 192.6ZM391.226 129.6C392.426 110 408.026 97.6 425.026 97.6C442.226 97.6 457.226 108 458.226 129.6H391.226ZM502.353 190H518.153V128C518.153 110.8 530.953 98.2 547.353 98.2C561.953 98.2 574.153 109 574.153 125.6V190H589.953V124.6C589.953 101.6 575.353 83.4 551.153 83.4C534.953 83.4 523.753 91.8 519.353 101.2H518.153V86H502.353V190ZM648.032 67.2C654.832 67.2 659.632 62.2 659.632 55.6C659.632 49.2 654.832 44.2 648.032 44.2C641.432 44.2 636.632 49.2 636.632 55.6C636.632 62.2 641.432 67.2 648.032 67.2ZM609.032 236H624.432C643.432 236 656.032 227.4 656.032 206.4V86H617.632V99.4H640.232V206.2C640.232 217.4 635.632 222 624.632 222H609.032V236ZM714.963 67.2C721.763 67.2 726.563 62.2 726.563 55.6C726.563 49.2 721.763 44.2 714.963 44.2C708.363 44.2 703.563 49.2 703.563 55.6C703.563 62.2 708.363 67.2 714.963 67.2ZM707.163 190H722.963V86H687.563V99.4H707.163V190ZM813.909 192.6C843.509 192.6 864.709 170 864.709 138.2C864.709 106.2 844.509 83.4 815.109 83.4C793.309 83.4 782.709 97.4 779.509 102.8H778.309V40H762.509V190H777.709V173.6H778.909C781.509 177.4 791.309 192.6 813.909 192.6ZM812.909 178.4C791.309 178.4 777.709 160.2 777.709 138.4C777.709 112.6 793.709 97.8 813.309 97.8C833.709 97.8 848.509 114.6 848.509 138.4C848.509 162.6 832.909 178.4 812.909 178.4ZM935.582 192.6C958.182 192.6 967.782 177.8 970.382 173.6H971.582V174.6C971.782 183.6 978.182 190 986.782 190H996.982V176H992.182C988.982 176 986.982 174.4 986.982 171.2V86H970.982V102.8H969.782C966.782 97.4 955.982 83.4 934.382 83.4C904.782 83.4 884.782 106.2 884.782 138.2C884.782 170 905.782 192.6 935.582 192.6ZM936.382 178.4C916.382 178.4 900.982 162.6 900.982 138.4C900.982 114.6 915.782 97.8 936.182 97.8C955.582 97.8 971.582 112.6 971.582 138.4C971.582 160.2 958.182 178.4 936.382 178.4ZM1026.96 190H1042.76V128C1042.76 110.8 1055.56 98.2 1071.96 98.2C1086.56 98.2 1098.76 109 1098.76 125.6V190H1114.56V124.6C1114.56 101.6 1099.96 83.4 1075.76 83.4C1059.56 83.4 1048.36 91.8 1043.96 101.2H1042.76V86H1026.96V190ZM1148.64 190H1164.44V140.6H1183.24L1214.04 190H1232.84L1196.04 133.2V132L1230.24 86H1212.04L1182.64 126.2H1164.44V40H1148.64V190Z" fill="#E2F3F7"/>
<path d="M302.753 192.6C332.353 192.6 353.553 170 353.553 138.2C353.553 106.2 333.353 83.4 303.953 83.4C282.153 83.4 271.553 97.4 268.353 102.8H267.153V40H251.353V190H266.553V173.6H267.753C270.353 177.4 280.153 192.6 302.753 192.6ZM301.753 178.4C280.153 178.4 266.553 160.2 266.553 138.4C266.553 112.6 282.553 97.8 302.153 97.8C322.553 97.8 337.353 114.6 337.353 138.4C337.353 162.6 321.753 178.4 301.753 178.4ZM425.026 192.6C449.026 192.6 466.226 178.8 472.026 159.4L456.626 155.8C453.226 170.2 439.826 178.6 425.226 178.6C403.626 178.6 390.026 165.6 389.826 142.4H473.426V136.6C473.426 105.4 455.426 83.4 424.026 83.4C396.426 83.4 373.626 105.2 373.626 138.4C373.626 170.4 393.426 192.6 425.026 192.6ZM390.226 129.6C391.426 110 407.026 97.6 424.026 97.6C441.226 97.6 456.226 108 457.226 129.6H390.226ZM501.353 190H517.153V128C517.153 110.8 529.953 98.2 546.353 98.2C560.953 98.2 573.153 109 573.153 125.6V190H588.953V124.6C588.953 101.6 574.353 83.4 550.153 83.4C533.953 83.4 522.753 91.8 518.353 101.2H517.153V86H501.353V190ZM647.032 67.2C653.832 67.2 658.632 62.2 658.632 55.6C658.632 49.2 653.832 44.2 647.032 44.2C640.432 44.2 635.632 49.2 635.632 55.6C635.632 62.2 640.432 67.2 647.032 67.2ZM608.032 236H623.432C642.432 236 655.032 227.4 655.032 206.4V86H616.632V99.4H639.232V206.2C639.232 217.4 634.632 222 623.632 222H608.032V236ZM713.963 67.2C720.763 67.2 725.563 62.2 725.563 55.6C725.563 49.2 720.763 44.2 713.963 44.2C707.363 44.2 702.563 49.2 702.563 55.6C702.563 62.2 707.363 67.2 713.963 67.2ZM706.163 190H721.963V86H686.563V99.4H706.163V190ZM812.909 192.6C842.509 192.6 863.709 170 863.709 138.2C863.709 106.2 843.509 83.4 814.109 83.4C792.309 83.4 781.709 97.4 778.509 102.8H777.309V40H761.509V190H776.709V173.6H777.909C780.509 177.4 790.309 192.6 812.909 192.6ZM811.909 178.4C790.309 178.4 776.709 160.2 776.709 138.4C776.709 112.6 792.709 97.8 812.309 97.8C832.709 97.8 847.509 114.6 847.509 138.4C847.509 162.6 831.909 178.4 811.909 178.4ZM934.582 192.6C957.182 192.6 966.782 177.8 969.382 173.6H970.582V174.6C970.782 183.6 977.182 190 985.782 190H995.982V176H991.182C987.982 176 985.982 174.4 985.982 171.2V86H969.982V102.8H968.782C965.782 97.4 954.982 83.4 933.382 83.4C903.782 83.4 883.782 106.2 883.782 138.2C883.782 170 904.782 192.6 934.582 192.6ZM935.382 178.4C915.382 178.4 899.982 162.6 899.982 138.4C899.982 114.6 914.782 97.8 935.182 97.8C954.582 97.8 970.582 112.6 970.582 138.4C970.582 160.2 957.182 178.4 935.382 178.4ZM1025.96 190H1041.76V128C1041.76 110.8 1054.56 98.2 1070.96 98.2C1085.56 98.2 1097.76 109 1097.76 125.6V190H1113.56V124.6C1113.56 101.6 1098.96 83.4 1074.76 83.4C1058.56 83.4 1047.36 91.8 1042.96 101.2H1041.76V86H1025.96V190ZM1147.64 190H1163.44V140.6H1182.24L1213.04 190H1231.84L1195.04 133.2V132L1229.24 86H1211.04L1181.64 126.2H1163.44V40H1147.64V190Z" fill="#E2F3F7"/>
<path d="M300.753 192.6C330.353 192.6 351.553 170 351.553 138.2C351.553 106.2 331.353 83.4 301.953 83.4C280.153 83.4 269.553 97.4 266.353 102.8H265.153V40H249.353V190H264.553V173.6H265.753C268.353 177.4 278.153 192.6 300.753 192.6ZM299.753 178.4C278.153 178.4 264.553 160.2 264.553 138.4C264.553 112.6 280.553 97.8 300.153 97.8C320.553 97.8 335.353 114.6 335.353 138.4C335.353 162.6 319.753 178.4 299.753 178.4ZM423.026 192.6C447.026 192.6 464.226 178.8 470.026 159.4L454.626 155.8C451.226 170.2 437.826 178.6 423.226 178.6C401.626 178.6 388.026 165.6 387.826 142.4H471.426V136.6C471.426 105.4 453.426 83.4 422.026 83.4C394.426 83.4 371.626 105.2 371.626 138.4C371.626 170.4 391.426 192.6 423.026 192.6ZM388.226 129.6C389.426 110 405.026 97.6 422.026 97.6C439.226 97.6 454.226 108 455.226 129.6H388.226ZM499.353 190H515.153V128C515.153 110.8 527.953 98.2 544.353 98.2C558.953 98.2 571.153 109 571.153 125.6V190H586.953V124.6C586.953 101.6 572.353 83.4 548.153 83.4C531.953 83.4 520.753 91.8 516.353 101.2H515.153V86H499.353V190ZM645.032 67.2C651.832 67.2 656.632 62.2 656.632 55.6C656.632 49.2 651.832 44.2 645.032 44.2C638.432 44.2 633.632 49.2 633.632 55.6C633.632 62.2 638.432 67.2 645.032 67.2ZM606.032 236H621.432C640.432 236 653.032 227.4 653.032 206.4V86H614.632V99.4H637.232V206.2C637.232 217.4 632.632 222 621.632 222H606.032V236ZM711.963 67.2C718.763 67.2 723.563 62.2 723.563 55.6C723.563 49.2 718.763 44.2 711.963 44.2C705.363 44.2 700.563 49.2 700.563 55.6C700.563 62.2 705.363 67.2 711.963 67.2ZM704.163 190H719.963V86H684.563V99.4H704.163V190ZM810.909 192.6C840.509 192.6 861.709 170 861.709 138.2C861.709 106.2 841.509 83.4 812.109 83.4C790.309 83.4 779.709 97.4 776.509 102.8H775.309V40H759.509V190H774.709V173.6H775.909C778.509 177.4 788.309 192.6 810.909 192.6ZM809.909 178.4C788.309 178.4 774.709 160.2 774.709 138.4C774.709 112.6 790.709 97.8 810.309 97.8C830.709 97.8 845.509 114.6 845.509 138.4C845.509 162.6 829.909 178.4 809.909 178.4ZM932.582 192.6C955.182 192.6 964.782 177.8 967.382 173.6H968.582V174.6C968.782 183.6 975.182 190 983.782 190H993.982V176H989.182C985.982 176 983.982 174.4 983.982 171.2V86H967.982V102.8H966.782C963.782 97.4 952.982 83.4 931.382 83.4C901.782 83.4 881.782 106.2 881.782 138.2C881.782 170 902.782 192.6 932.582 192.6ZM933.382 178.4C913.382 178.4 897.982 162.6 897.982 138.4C897.982 114.6 912.782 97.8 933.182 97.8C952.582 97.8 968.582 112.6 968.582 138.4C968.582 160.2 955.182 178.4 933.382 178.4ZM1023.96 190H1039.76V128C1039.76 110.8 1052.56 98.2 1068.96 98.2C1083.56 98.2 1095.76 109 1095.76 125.6V190H1111.56V124.6C1111.56 101.6 1096.96 83.4 1072.76 83.4C1056.56 83.4 1045.36 91.8 1040.96 101.2H1039.76V86H1023.96V190ZM1145.64 190H1161.44V140.6H1180.24L1211.04 190H1229.84L1193.04 133.2V132L1227.24 86H1209.04L1179.64 126.2H1161.44V40H1145.64V190Z" fill="#E2F3F7"/>
<path d="M300.753 194.6C330.353 194.6 351.553 172 351.553 140.2C351.553 108.2 331.353 85.4 301.953 85.4C280.153 85.4 269.553 99.4 266.353 104.8H265.153V42H249.353V192H264.553V175.6H265.753C268.353 179.4 278.153 194.6 300.753 194.6ZM299.753 180.4C278.153 180.4 264.553 162.2 264.553 140.4C264.553 114.6 280.553 99.8 300.153 99.8C320.553 99.8 335.353 116.6 335.353 140.4C335.353 164.6 319.753 180.4 299.753 180.4ZM423.026 194.6C447.026 194.6 464.226 180.8 470.026 161.4L454.626 157.8C451.226 172.2 437.826 180.6 423.226 180.6C401.626 180.6 388.026 167.6 387.826 144.4H471.426V138.6C471.426 107.4 453.426 85.4 422.026 85.4C394.426 85.4 371.626 107.2 371.626 140.4C371.626 172.4 391.426 194.6 423.026 194.6ZM388.226 131.6C389.426 112 405.026 99.6 422.026 99.6C439.226 99.6 454.226 110 455.226 131.6H388.226ZM499.353 192H515.153V130C515.153 112.8 527.953 100.2 544.353 100.2C558.953 100.2 571.153 111 571.153 127.6V192H586.953V126.6C586.953 103.6 572.353 85.4 548.153 85.4C531.953 85.4 520.753 93.8 516.353 103.2H515.153V88H499.353V192ZM645.032 69.2C651.832 69.2 656.632 64.2 656.632 57.6C656.632 51.2 651.832 46.2 645.032 46.2C638.432 46.2 633.632 51.2 633.632 57.6C633.632 64.2 638.432 69.2 645.032 69.2ZM606.032 238H621.432C640.432 238 653.032 229.4 653.032 208.4V88H614.632V101.4H637.232V208.2C637.232 219.4 632.632 224 621.632 224H606.032V238ZM711.963 69.2C718.763 69.2 723.563 64.2 723.563 57.6C723.563 51.2 718.763 46.2 711.963 46.2C705.363 46.2 700.563 51.2 700.563 57.6C700.563 64.2 705.363 69.2 711.963 69.2ZM704.163 192H719.963V88H684.563V101.4H704.163V192ZM810.909 194.6C840.509 194.6 861.709 172 861.709 140.2C861.709 108.2 841.509 85.4 812.109 85.4C790.309 85.4 779.709 99.4 776.509 104.8H775.309V42H759.509V192H774.709V175.6H775.909C778.509 179.4 788.309 194.6 810.909 194.6ZM809.909 180.4C788.309 180.4 774.709 162.2 774.709 140.4C774.709 114.6 790.709 99.8 810.309 99.8C830.709 99.8 845.509 116.6 845.509 140.4C845.509 164.6 829.909 180.4 809.909 180.4ZM932.582 194.6C955.182 194.6 964.782 179.8 967.382 175.6H968.582V176.6C968.782 185.6 975.182 192 983.782 192H993.982V178H989.182C985.982 178 983.982 176.4 983.982 173.2V88H967.982V104.8H966.782C963.782 99.4 952.982 85.4 931.382 85.4C901.782 85.4 881.782 108.2 881.782 140.2C881.782 172 902.782 194.6 932.582 194.6ZM933.382 180.4C913.382 180.4 897.982 164.6 897.982 140.4C897.982 116.6 912.782 99.8 933.182 99.8C952.582 99.8 968.582 114.6 968.582 140.4C968.582 162.2 955.182 180.4 933.382 180.4ZM1023.96 192H1039.76V130C1039.76 112.8 1052.56 100.2 1068.96 100.2C1083.56 100.2 1095.76 111 1095.76 127.6V192H1111.56V126.6C1111.56 103.6 1096.96 85.4 1072.76 85.4C1056.56 85.4 1045.36 93.8 1040.96 103.2H1039.76V88H1023.96V192ZM1145.64 192H1161.44V142.6H1180.24L1211.04 192H1229.84L1193.04 135.2V134L1227.24 88H1209.04L1179.64 128.2H1161.44V42H1145.64V192Z" fill="#E2F3F7"/>
<path d="M302.753 196.6C332.353 196.6 353.553 174 353.553 142.2C353.553 110.2 333.353 87.4 303.953 87.4C282.153 87.4 271.553 101.4 268.353 106.8H267.153V44H251.353V194H266.553V177.6H267.753C270.353 181.4 280.153 196.6 302.753 196.6ZM301.753 182.4C280.153 182.4 266.553 164.2 266.553 142.4C266.553 116.6 282.553 101.8 302.153 101.8C322.553 101.8 337.353 118.6 337.353 142.4C337.353 166.6 321.753 182.4 301.753 182.4ZM425.026 196.6C449.026 196.6 466.226 182.8 472.026 163.4L456.626 159.8C453.226 174.2 439.826 182.6 425.226 182.6C403.626 182.6 390.026 169.6 389.826 146.4H473.426V140.6C473.426 109.4 455.426 87.4 424.026 87.4C396.426 87.4 373.626 109.2 373.626 142.4C373.626 174.4 393.426 196.6 425.026 196.6ZM390.226 133.6C391.426 114 407.026 101.6 424.026 101.6C441.226 101.6 456.226 112 457.226 133.6H390.226ZM501.353 194H517.153V132C517.153 114.8 529.953 102.2 546.353 102.2C560.953 102.2 573.153 113 573.153 129.6V194H588.953V128.6C588.953 105.6 574.353 87.4 550.153 87.4C533.953 87.4 522.753 95.8 518.353 105.2H517.153V90H501.353V194ZM647.032 71.2C653.832 71.2 658.632 66.2 658.632 59.6C658.632 53.2 653.832 48.2 647.032 48.2C640.432 48.2 635.632 53.2 635.632 59.6C635.632 66.2 640.432 71.2 647.032 71.2ZM608.032 240H623.432C642.432 240 655.032 231.4 655.032 210.4V90H616.632V103.4H639.232V210.2C639.232 221.4 634.632 226 623.632 226H608.032V240ZM713.963 71.2C720.763 71.2 725.563 66.2 725.563 59.6C725.563 53.2 720.763 48.2 713.963 48.2C707.363 48.2 702.563 53.2 702.563 59.6C702.563 66.2 707.363 71.2 713.963 71.2ZM706.163 194H721.963V90H686.563V103.4H706.163V194ZM812.909 196.6C842.509 196.6 863.709 174 863.709 142.2C863.709 110.2 843.509 87.4 814.109 87.4C792.309 87.4 781.709 101.4 778.509 106.8H777.309V44H761.509V194H776.709V177.6H777.909C780.509 181.4 790.309 196.6 812.909 196.6ZM811.909 182.4C790.309 182.4 776.709 164.2 776.709 142.4C776.709 116.6 792.709 101.8 812.309 101.8C832.709 101.8 847.509 118.6 847.509 142.4C847.509 166.6 831.909 182.4 811.909 182.4ZM934.582 196.6C957.182 196.6 966.782 181.8 969.382 177.6H970.582V178.6C970.782 187.6 977.182 194 985.782 194H995.982V180H991.182C987.982 180 985.982 178.4 985.982 175.2V90H969.982V106.8H968.782C965.782 101.4 954.982 87.4 933.382 87.4C903.782 87.4 883.782 110.2 883.782 142.2C883.782 174 904.782 196.6 934.582 196.6ZM935.382 182.4C915.382 182.4 899.982 166.6 899.982 142.4C899.982 118.6 914.782 101.8 935.182 101.8C954.582 101.8 970.582 116.6 970.582 142.4C970.582 164.2 957.182 182.4 935.382 182.4ZM1025.96 194H1041.76V132C1041.76 114.8 1054.56 102.2 1070.96 102.2C1085.56 102.2 1097.76 113 1097.76 129.6V194H1113.56V128.6C1113.56 105.6 1098.96 87.4 1074.76 87.4C1058.56 87.4 1047.36 95.8 1042.96 105.2H1041.76V90H1025.96V194ZM1147.64 194H1163.44V144.6H1182.24L1213.04 194H1231.84L1195.04 137.2V136L1229.24 90H1211.04L1181.64 130.2H1163.44V44H1147.64V194Z" fill="#E2F3F7"/>
<path fill-rule="evenodd" clip-rule="evenodd" d="M96.7186 30.4581C85.5636 33.5911 84.3486 34.5091 91.1496 34.6651C103.634 34.9521 107.192 37.5531 139.791 70.2131L168.728 99.2051L177.041 90.7421C188.153 79.4271 188.514 80.8321 169.603 61.7421C142.912 34.7991 134.441 29.8741 113.853 29.3321C105.572 29.1141 100.262 29.4631 96.7186 30.4581ZM76.8296 39.0531C33.7576 44.8241 -0.164401 85.2011 0.000599373 130.5C0.294599 211.11 96.2676 252.653 155.088 197.631C172.38 181.456 185.495 153.219 184.178 135L183.853 130.5L160.922 130.231L137.991 129.962L115.394 152.481C102.966 164.866 92.3556 175 91.8166 175C91.2766 175 80.7176 164.874 68.3496 152.497L45.8636 129.994L69.1056 106.753L92.3466 83.5111L114.108 105.256C140.448 131.575 137.212 130.684 152.13 115.723L163.375 104.447L133.614 74.8911C96.8386 38.3701 94.2276 36.7221 76.8296 39.0531Z" fill="#E2F3F7"/>
</svg>
