<svg width="154.01" height="27" viewBox="0 0 101 18" fill="none" xmlns="http://www.w3.org/2000/svg">
<path d="M43.8086 11.8177V8.12829C43.8086 6.73863 42.9232 5.80401 41.4966 5.79168C41.0902 5.76522 40.6842 5.84825 40.3208 6.03211C39.9574 6.21597 39.65 6.49394 39.4306 6.83704C39.2306 6.50416 38.9446 6.23138 38.6027 6.04741C38.2607 5.86344 37.8755 5.77509 37.4875 5.79168C37.1493 5.77469 36.8126 5.84632 36.5106 5.99947C36.2087 6.15263 35.9519 6.382 35.7659 6.66487V5.93927H34.4868V11.8177H35.7781V8.55868C35.7781 7.53798 36.3438 6.99697 37.217 6.99697C38.0655 6.99697 38.496 7.5503 38.496 8.54645V11.8177H39.7872V8.55868C39.7872 7.53798 40.3776 6.99697 41.2261 6.99697C42.0992 6.99697 42.5173 7.5503 42.5173 8.54645V11.8177H43.8086ZM62.9195 5.93927H60.8289V4.15613H59.5376V5.93927H58.3447V7.10759H59.5376V9.78849C59.5376 11.1536 60.0664 11.9653 61.579 11.9653C62.1441 11.967 62.6982 11.8093 63.1777 11.5103L62.8089 10.4157C62.4659 10.6203 62.0766 10.7346 61.6774 10.7478C61.0379 10.7478 60.8289 10.3542 60.8289 9.76397V7.10759H62.9195V5.93927ZM73.8277 5.79168C73.5159 5.7825 73.2074 5.85762 72.9347 6.00913C72.662 6.16064 72.4352 6.38292 72.2783 6.65254V5.93927H71.0115V11.8177H72.2905V8.5218C72.2905 7.5503 72.7086 7.00918 73.545 7.00918C73.8185 7.00542 74.0902 7.05558 74.3443 7.15679L74.7378 5.9516C74.4458 5.84703 74.138 5.79295 73.8277 5.79168V5.79168ZM57.3363 6.40664C56.6124 5.97614 55.78 5.76269 54.9382 5.79168C53.4501 5.79168 52.4909 6.50495 52.4909 7.67324C52.4909 8.63253 53.2042 9.22284 54.52 9.40733L55.1227 9.49339C55.8236 9.5917 56.1557 9.77617 56.1557 10.1083C56.1557 10.5633 55.6883 10.8215 54.8152 10.8215C54.1129 10.8417 53.4242 10.6252 52.8598 10.2067L52.2572 11.2027C53.0022 11.7231 53.8946 11.9904 54.8029 11.9653C56.5 11.9653 57.4838 11.1658 57.4838 10.0467C57.4838 9.0137 56.7091 8.47259 55.4301 8.28813L54.8275 8.20204C54.2741 8.12828 53.8314 8.01768 53.8314 7.62416C53.8314 7.19367 54.2494 6.93544 54.9505 6.93544C55.5942 6.94512 56.2248 7.11866 56.7829 7.43967L57.3363 6.40664ZM91.5982 5.79168C91.2864 5.78249 90.9779 5.85761 90.7051 6.00912C90.4324 6.16063 90.2056 6.38291 90.0487 6.65254V5.93927H88.782V11.8177H90.061V8.5218C90.061 7.5503 90.4791 7.00918 91.3153 7.00918C91.5889 7.00541 91.8606 7.05557 92.1148 7.15679L92.5083 5.9516C92.2162 5.84702 91.9085 5.79294 91.5982 5.79168V5.79168ZM75.119 8.87843C75.119 10.6617 76.3612 11.9653 78.2551 11.9653C79.0229 12.0039 79.7774 11.7538 80.3702 11.2642L79.7554 10.2312C79.3132 10.5683 78.774 10.7537 78.2181 10.76C77.1974 10.7478 76.4472 10.0099 76.4472 8.87843C76.4472 7.7471 77.1974 7.00918 78.2181 6.99697C78.774 7.00324 79.3132 7.18868 79.7554 7.52575L80.3702 6.49272C79.7774 6.00319 79.0229 5.75313 78.2551 5.79168C76.3612 5.79168 75.119 7.09526 75.119 8.87843ZM87.0972 8.87843V5.93927H85.8183V6.65254C85.5999 6.37121 85.3174 6.14626 84.9943 5.99649C84.6712 5.84672 84.317 5.77649 83.9612 5.79168C82.3133 5.79168 81.0221 7.08306 81.0221 8.87843C81.0221 10.6739 82.3133 11.9653 83.9612 11.9653C84.317 11.9805 84.6712 11.9103 84.9943 11.7605C85.3174 11.6107 85.5999 11.3857 85.8183 11.1044V11.8177H87.0972V8.87843ZM82.3379 8.87843C82.3379 7.84541 83.0142 6.99697 84.1211 6.99697C85.1787 6.99697 85.892 7.80853 85.892 8.87843C85.892 9.94834 85.1787 10.76 84.1211 10.76C83.0142 10.76 82.3379 9.91146 82.3379 8.87843ZM66.9041 5.79168C65.1824 5.79168 63.9772 7.04606 63.9772 8.87843C63.9772 10.7478 65.2315 11.9653 66.9902 11.9653C67.8676 11.9961 68.7256 11.7028 69.4006 11.1413L68.7733 10.1943C68.2877 10.5835 67.6862 10.7999 67.0639 10.8092C66.2399 10.8092 65.4898 10.428 65.3053 9.37033H69.6711C69.6834 9.21051 69.6956 9.0507 69.6956 8.87843C69.6834 7.04606 68.552 5.79168 66.9041 5.79168ZM66.8794 6.93544C67.7034 6.93544 68.2322 7.45189 68.3675 8.36198H65.3176C65.4529 7.51342 65.9694 6.93544 66.8794 6.93544ZM98.9647 8.87843V3.57812H97.6856V6.65254C97.4673 6.37123 97.1848 6.14627 96.8618 5.99651C96.5387 5.84674 96.1845 5.7765 95.8287 5.79168C94.1807 5.79168 92.8895 7.08306 92.8895 8.87843C92.8895 10.6739 94.1807 11.9653 95.8287 11.9653C96.1845 11.9805 96.5387 11.9102 96.8618 11.7605C97.1848 11.6107 97.4673 11.3857 97.6856 11.1044V11.8177H98.9647V8.87843ZM100.459 11.2752C100.51 11.2749 100.56 11.2848 100.607 11.3045C100.652 11.3233 100.693 11.3504 100.728 11.3845C100.762 11.4185 100.79 11.4589 100.809 11.5034C100.829 11.5491 100.839 11.5983 100.839 11.6481C100.839 11.6978 100.829 11.7471 100.809 11.7928C100.79 11.8371 100.762 11.8772 100.728 11.9112C100.693 11.9453 100.652 11.9725 100.607 11.9916C100.56 12.0116 100.51 12.0217 100.459 12.0214C100.385 12.0221 100.311 12.0008 100.249 11.9602C100.186 11.9195 100.137 11.8613 100.107 11.7928C100.087 11.747 100.077 11.6978 100.077 11.6481C100.077 11.5983 100.087 11.5491 100.107 11.5034C100.145 11.4131 100.218 11.3416 100.309 11.3045C100.357 11.2848 100.408 11.2748 100.459 11.2752V11.2752ZM100.459 11.9391C100.498 11.9394 100.536 11.9316 100.572 11.9162C100.606 11.9014 100.637 11.8803 100.663 11.854C100.717 11.7992 100.748 11.7253 100.748 11.6482C100.748 11.5712 100.717 11.4973 100.663 11.4425C100.637 11.4163 100.606 11.3954 100.572 11.3808C100.536 11.3657 100.498 11.3581 100.459 11.3584C100.42 11.3581 100.381 11.3657 100.345 11.3808C100.301 11.3995 100.262 11.4285 100.232 11.4655C100.202 11.5024 100.182 11.5462 100.173 11.5928C100.164 11.6395 100.166 11.6877 100.18 11.7332C100.194 11.7788 100.218 11.8202 100.252 11.854C100.279 11.8805 100.31 11.9016 100.345 11.9162C100.381 11.9315 100.42 11.9393 100.459 11.9391V11.9391ZM100.481 11.4736C100.518 11.4712 100.554 11.4818 100.584 11.5034C100.596 11.5131 100.606 11.5255 100.612 11.5396C100.618 11.5536 100.621 11.5689 100.62 11.5843C100.621 11.5974 100.618 11.6105 100.613 11.6227C100.609 11.6349 100.601 11.646 100.592 11.6551C100.569 11.6752 100.54 11.6873 100.51 11.6894L100.623 11.8201H100.534L100.429 11.6903H100.395V11.8201H100.321V11.4736H100.481ZM100.395 11.5386V11.6309H100.48C100.497 11.6317 100.513 11.6278 100.527 11.6194C100.533 11.6156 100.537 11.6104 100.54 11.6042C100.544 11.598 100.545 11.5911 100.544 11.5843C100.545 11.5775 100.543 11.5708 100.54 11.5648C100.537 11.5588 100.533 11.5537 100.527 11.55C100.513 11.5417 100.497 11.5378 100.48 11.5386H100.395ZM94.2054 8.87843C94.2054 7.84541 94.8818 6.99697 95.9885 6.99697C97.0461 6.99697 97.7594 7.80853 97.7594 8.87843C97.7594 9.94834 97.0461 10.76 95.9885 10.76C94.8818 10.76 94.2054 9.91146 94.2054 8.87843ZM51.0152 8.87843V5.93927H49.7362V6.65254C49.5179 6.37121 49.2353 6.14625 48.9123 5.99648C48.5892 5.84671 48.2349 5.77649 47.8792 5.79168C46.2313 5.79168 44.94 7.08306 44.94 8.87843C44.94 10.6739 46.2313 11.9653 47.8792 11.9653C48.2349 11.9805 48.5892 11.9103 48.9123 11.7605C49.2353 11.6107 49.5179 11.3857 49.7362 11.1044V11.8177H51.0152V8.87843ZM46.2559 8.87843C46.2559 7.84541 46.9323 6.99697 48.0391 6.99697C49.0967 6.99697 49.8099 7.80853 49.8099 8.87843C49.8099 9.94834 49.0967 10.76 48.0391 10.76C46.9323 10.76 46.2559 9.91146 46.2559 8.87843V8.87843Z" fill="#091F23"/>
<path d="M18.1686 1.88965H10.4343V15.7883H18.1686V1.88965Z" fill="#FF5F00"/>
<path d="M10.9254 8.83913C10.9242 7.50059 11.2275 6.17932 11.8124 4.97533C12.3973 3.77135 13.2485 2.71622 14.3015 1.88981C12.9975 0.864872 11.4315 0.22748 9.78242 0.0504827C8.13334 -0.126514 6.46774 0.16402 4.97598 0.888892C3.48422 1.61376 2.22649 2.74372 1.34656 4.14961C0.466634 5.55549 0 7.18058 0 8.83913C0 10.4977 0.466634 12.1228 1.34656 13.5287C2.22649 14.9345 3.48422 16.0645 4.97598 16.7894C6.46774 17.5142 8.13334 17.8048 9.78242 17.6278C11.4315 17.4508 12.9975 16.8134 14.3015 15.7885C13.2485 14.962 12.3974 13.9069 11.8124 12.7029C11.2275 11.4989 10.9242 10.1777 10.9254 8.83913V8.83913Z" fill="#EB001B"/>
<path d="M28.6025 8.83914C28.6026 10.4977 28.136 12.1227 27.2561 13.5286C26.3763 14.9345 25.1186 16.0645 23.6268 16.7894C22.1351 17.5142 20.4695 17.8048 18.8205 17.6278C17.1714 17.4508 15.6054 16.8134 14.3015 15.7885C15.3536 14.9612 16.204 13.9059 16.7889 12.7021C17.3737 11.4983 17.6775 10.1775 17.6775 8.83914C17.6775 7.50081 17.3737 6.17995 16.7889 4.97615C16.204 3.77236 15.3536 2.71706 14.3015 1.88982C15.6054 0.864876 17.1714 0.227476 18.8205 0.0504806C20.4695 -0.126515 22.1351 0.164033 23.6268 0.888912C25.1186 1.61379 26.3763 2.74376 27.2561 4.14964C28.136 5.55553 28.6026 7.18061 28.6025 8.83914V8.83914Z" fill="#F79E1B"/>
<path d="M27.7593 14.3157V14.0312H27.874V13.9732H27.5818V14.0312H27.6966V14.3157H27.7593ZM28.3266 14.3157V13.9727H28.237L28.134 14.2086L28.0309 13.9727H27.9413V14.3157H28.0045V14.0569L28.1012 14.2801H28.1667L28.2634 14.0564V14.3157H28.3266Z" fill="#F79E1B"/>
</svg>
